0
SECTION
2
HEADER
9
$INSUNITS
70
4
0
ENDSEC
0
SECTION
2
TABLES
0
TABLE
2
LTYPE
0
LTYPE
72
65
70
0
2
CONTINUOUS
3
______
73
0
40
0
0
LTYPE
72
65
70
0
2
DASHED
3
_ _ _ 
73
2
40
7.5
49
5
49
-2.5
0
LTYPE
72
65
70
0
2
DOTTED
3
. . . 
73
2
40
1.5
49
0.5
49
-1
0
ENDTAB
0
TABLE
2
LAYER
0
ENDTAB
0
ENDSEC
0
SECTION
2
ENTITIES
0
POLYLINE
8
0
6
CONTINUOUS
66
1
70
1
0
VERTEX
8
0
10
189.230843
20
-90.6339012
42
0.4142136
0
VERTEX
8
0
10
189.8432154
20
-90.9874546
0
VERTEX
8
0
10
202.4002512
20
-87.622807
42
0.4142136
0
VERTEX
8
0
10
202.7538046
20
-87.0104346
0
VERTEX
8
0
10
199.389157
20
-74.4533988
42
0.4142136
0
VERTEX
8
0
10
198.7767846
20
-74.0998454
0
VERTEX
8
0
10
186.2197488
20
-77.464493
42
0.4142136
0
VERTEX
8
0
10
185.8661954
20
-78.0768654
0
SEQEND
0
POLYLINE
8
0
6
CONTINUOUS
66
1
70
1
0
VERTEX
8
0
10
16.2868323
20
-86.0084336
42
0.4142136
0
VERTEX
8
0
10
16.6403857
20
-86.620806
0
VERTEX
8
0
10
29.1974215
20
-89.9854536
42
0.4142136
0
VERTEX
8
0
10
29.8097939
20
-89.6319002
0
VERTEX
8
0
10
33.1744415
20
-77.0748644
42
0.4142136
0
VERTEX
8
0
10
32.8208881
20
-76.462492
0
VERTEX
8
0
10
20.2638523
20
-73.0978444
42
0.4142136
0
VERTEX
8
0
10
19.6514799
20
-73.4513978
0
SEQEND
0
POLYLINE
8
0
6
CONTINUOUS
66
1
70
1
0
VERTEX
8
0
10
-7
20
-6.5
42
0.4142136
0
VERTEX
8
0
10
-6.5
20
-7
0
VERTEX
8
0
10
6.5
20
-7
42
0.4142136
0
VERTEX
8
0
10
7
20
-6.5
0
VERTEX
8
0
10
7
20
6.5
42
0.4142136
0
VERTEX
8
0
10
6.5
20
7
0
VERTEX
8
0
10
-6.5
20
7
42
0.4142136
0
VERTEX
8
0
10
-7
20
6.5
0
SEQEND
0
POLYLINE
8
0
6
CONTINUOUS
66
1
70
1
0
VERTEX
8
0
10
212.075
20
-6.5
42
0.4142136
0
VERTEX
8
0
10
212.575
20
-7
0
VERTEX
8
0
10
225.575
20
-7
42
0.4142136
0
VERTEX
8
0
10
226.075
20
-6.5
0
VERTEX
8
0
10
226.075
20
6.5
42
0.4142136
0
VERTEX
8
0
10
225.575
20
7
0
VERTEX
8
0
10
212.575
20
7
42
0.4142136
0
VERTEX
8
0
10
212.075
20
6.5
0
SEQEND
0
POLYLINE
8
0
6
CONTINUOUS
66
1
70
1
0
VERTEX
8
0
10
-26.05
20
-8.88125
42
0.4142136
0
VERTEX
8
0
10
-25.55
20
-9.38125
0
VERTEX
8
0
10
-12.55
20
-9.38125
42
0.4142136
0
VERTEX
8
0
10
-12.05
20
-8.88125
0
VERTEX
8
0
10
-12.05
20
4.11875
42
0.4142136
0
VERTEX
8
0
10
-12.55
20
4.61875
0
VERTEX
8
0
10
-25.55
20
4.61875
42
0.4142136
0
VERTEX
8
0
10
-26.05
20
4.11875
0
SEQEND
0
POLYLINE
8
0
6
CONTINUOUS
66
1
70
1
0
VERTEX
8
0
10
12.05
20
-8.88125
42
0.4142136
0
VERTEX
8
0
10
12.55
20
-9.38125
0
VERTEX
8
0
10
25.55
20
-9.38125
42
0.4142136
0
VERTEX
8
0
10
26.05
20
-8.88125
0
VERTEX
8
0
10
26.05
20
4.11875
42
0.4142136
0
VERTEX
8
0
10
25.55
20
4.61875
0
VERTEX
8
0
10
12.55
20
4.61875
42
0.4142136
0
VERTEX
8
0
10
12.05
20
4.11875
0
SEQEND
0
POLYLINE
8
0
6
CONTINUOUS
66
1
70
1
0
VERTEX
8
0
10
193.025
20
-8.88125
42
0.4142136
0
VERTEX
8
0
10
193.525
20
-9.38125
0
VERTEX
8
0
10
206.525
20
-9.38125
42
0.4142136
0
VERTEX
8
0
10
207.025
20
-8.88125
0
VERTEX
8
0
10
207.025
20
4.11875
42
0.4142136
0
VERTEX
8
0
10
206.525
20
4.61875
0
VERTEX
8
0
10
193.525
20
4.61875
42
0.4142136
0
VERTEX
8
0
10
193.025
20
4.11875
0
SEQEND
0
POLYLINE
8
0
6
CONTINUOUS
66
1
70
1
0
VERTEX
8
0
10
231.125
20
-8.88125
42
0.4142136
0
VERTEX
8
0
10
231.625
20
-9.38125
0
VERTEX
8
0
10
244.625
20
-9.38125
42
0.4142136
0
VERTEX
8
0
10
245.125
20
-8.88125
0
VERTEX
8
0
10
245.125
20
4.11875
42
0.4142136
0
VERTEX
8
0
10
244.625
20
4.61875
0
VERTEX
8
0
10
231.625
20
4.61875
42
0.4142136
0
VERTEX
8
0
10
231.125
20
4.11875
0
SEQEND
0
POLYLINE
8
0
6
CONTINUOUS
66
1
70
1
0
VERTEX
8
0
10
31.1
20
-11.2625
42
0.4142136
0
VERTEX
8
0
10
31.6
20
-11.7625
0
VERTEX
8
0
10
44.6
20
-11.7625
42
0.4142136
0
VERTEX
8
0
10
45.1
20
-11.2625
0
VERTEX
8
0
10
45.1
20
1.7375
42
0.4142136
0
VERTEX
8
0
10
44.6
20
2.2375
0
VERTEX
8
0
10
31.6
20
2.2375
42
0.4142136
0
VERTEX
8
0
10
31.1
20
1.7375
0
SEQEND
0
POLYLINE
8
0
6
CONTINUOUS
66
1
70
1
0
VERTEX
8
0
10
173.975
20
-11.2625
42
0.4142136
0
VERTEX
8
0
10
174.475
20
-11.7625
0
VERTEX
8
0
10
187.475
20
-11.7625
42
0.4142136
0
VERTEX
8
0
10
187.975
20
-11.2625
0
VERTEX
8
0
10
187.975
20
1.7375
42
0.4142136
0
VERTEX
8
0
10
187.475
20
2.2375
0
VERTEX
8
0
10
174.475
20
2.2375
42
0.4142136
0
VERTEX
8
0
10
173.975
20
1.7375
0
SEQEND
0
POLYLINE
8
0
6
CONTINUOUS
66
1
70
1
0
VERTEX
8
0
10
-68.9125
20
-13.64375
42
0.4142136
0
VERTEX
8
0
10
-68.4125
20
-14.14375
0
VERTEX
8
0
10
-55.4125
20
-14.14375
42
0.4142136
0
VERTEX
8
0
10
-54.9125
20
-13.64375
0
VERTEX
8
0
10
-54.9125
20
-0.64375
42
0.4142136
0
VERTEX
8
0
10
-55.4125
20
-0.14375
0
VERTEX
8
0
10
-68.4125
20
-0.14375
42
0.4142136
0
VERTEX
8
0
10
-68.9125
20
-0.64375
0
SEQEND
0
POLYLINE
8
0
6
CONTINUOUS
66
1
70
1
0
VERTEX
8
0
10
-45.1
20
-13.64375
42
0.4142136
0
VERTEX
8
0
10
-44.6
20
-14.14375
0
VERTEX
8
0
10
-31.6
20
-14.14375
42
0.4142136
0
VERTEX
8
0
10
-31.1
20
-13.64375
0
VERTEX
8
0
10
-31.1
20
-0.64375
42
0.4142136
0
VERTEX
8
0
10
-31.6
20
-0.14375
0
VERTEX
8
0
10
-44.6
20
-0.14375
42
0.4142136
0
VERTEX
8
0
10
-45.1
20
-0.64375
0
SEQEND
0
POLYLINE
8
0
6
CONTINUOUS
66
1
70
1
0
VERTEX
8
0
10
250.175
20
-13.64375
42
0.4142136
0
VERTEX
8
0
10
250.675
20
-14.14375
0
VERTEX
8
0
10
263.675
20
-14.14375
42
0.4142136
0
VERTEX
8
0
10
264.175
20
-13.64375
0
VERTEX
8
0
10
264.175
20
-0.64375
42
0.4142136
0
VERTEX
8
0
10
263.675
20
-0.14375
0
VERTEX
8
0
10
250.675
20
-0.14375
42
0.4142136
0
VERTEX
8
0
10
250.175
20
-0.64375
0
SEQEND
0
POLYLINE
8
0
6
CONTINUOUS
66
1
70
1
0
VERTEX
8
0
10
273.9875
20
-13.64375
42
0.4142136
0
VERTEX
8
0
10
274.4875
20
-14.14375
0
VERTEX
8
0
10
287.4875
20
-14.14375
42
0.4142136
0
VERTEX
8
0
10
287.9875
20
-13.64375
0
VERTEX
8
0
10
287.9875
20
-0.64375
42
0.4142136
0
VERTEX
8
0
10
287.4875
20
-0.14375
0
VERTEX
8
0
10
274.4875
20
-0.14375
42
0.4142136
0
VERTEX
8
0
10
273.9875
20
-0.64375
0
SEQEND
0
POLYLINE
8
0
6
CONTINUOUS
66
1
70
1
0
VERTEX
8
0
10
-7
20
-25.55
42
0.4142136
0
VERTEX
8
0
10
-6.5
20
-26.05
0
VERTEX
8
0
10
6.5
20
-26.05
42
0.4142136
0
VERTEX
8
0
10
7
20
-25.55
0
VERTEX
8
0
10
7
20
-12.55
42
0.4142136
0
VERTEX
8
0
10
6.5
20
-12.05
0
VERTEX
8
0
10
-6.5
20
-12.05
42
0.4142136
0
VERTEX
8
0
10
-7
20
-12.55
0
SEQEND
0
POLYLINE
8
0
6
CONTINUOUS
66
1
70
1
0
VERTEX
8
0
10
212.075
20
-25.55
42
0.4142136
0
VERTEX
8
0
10
212.575
20
-26.05
0
VERTEX
8
0
10
225.575
20
-26.05
42
0.4142136
0
VERTEX
8
0
10
226.075
20
-25.55
0
VERTEX
8
0
10
226.075
20
-12.55
42
0.4142136
0
VERTEX
8
0
10
225.575
20
-12.05
0
VERTEX
8
0
10
212.575
20
-12.05
42
0.4142136
0
VERTEX
8
0
10
212.075
20
-12.55
0
SEQEND
0
POLYLINE
8
0
6
CONTINUOUS
66
1
70
1
0
VERTEX
8
0
10
-26.05
20
-27.93125
42
0.4142136
0
VERTEX
8
0
10
-25.55
20
-28.43125
0
VERTEX
8
0
10
-12.55
20
-28.43125
42
0.4142136
0
VERTEX
8
0
10
-12.05
20
-27.93125
0
VERTEX
8
0
10
-12.05
20
-14.93125
42
0.4142136
0
VERTEX
8
0
10
-12.55
20
-14.43125
0
VERTEX
8
0
10
-25.55
20
-14.43125
42
0.4142136
0
VERTEX
8
0
10
-26.05
20
-14.93125
0
SEQEND
0
POLYLINE
8
0
6
CONTINUOUS
66
1
70
1
0
VERTEX
8
0
10
12.05
20
-27.93125
42
0.4142136
0
VERTEX
8
0
10
12.55
20
-28.43125
0
VERTEX
8
0
10
25.55
20
-28.43125
42
0.4142136
0
VERTEX
8
0
10
26.05
20
-27.93125
0
VERTEX
8
0
10
26.05
20
-14.93125
42
0.4142136
0
VERTEX
8
0
10
25.55
20
-14.43125
0
VERTEX
8
0
10
12.55
20
-14.43125
42
0.4142136
0
VERTEX
8
0
10
12.05
20
-14.93125
0
SEQEND
0
POLYLINE
8
0
6
CONTINUOUS
66
1
70
1
0
VERTEX
8
0
10
193.025
20
-27.93125
42
0.4142136
0
VERTEX
8
0
10
193.525
20
-28.43125
0
VERTEX
8
0
10
206.525
20
-28.43125
42
0.4142136
0
VERTEX
8
0
10
207.025
20
-27.93125
0
VERTEX
8
0
10
207.025
20
-14.93125
42
0.4142136
0
VERTEX
8
0
10
206.525
20
-14.43125
0
VERTEX
8
0
10
193.525
20
-14.43125
42
0.4142136
0
VERTEX
8
0
10
193.025
20
-14.93125
0
SEQEND
0
POLYLINE
8
0
6
CONTINUOUS
66
1
70
1
0
VERTEX
8
0
10
231.125
20
-27.93125
42
0.4142136
0
VERTEX
8
0
10
231.625
20
-28.43125
0
VERTEX
8
0
10
244.625
20
-28.43125
42
0.4142136
0
VERTEX
8
0
10
245.125
20
-27.93125
0
VERTEX
8
0
10
245.125
20
-14.93125
42
0.4142136
0
VERTEX
8
0
10
244.625
20
-14.43125
0
VERTEX
8
0
10
231.625
20
-14.43125
42
0.4142136
0
VERTEX
8
0
10
231.125
20
-14.93125
0
SEQEND
0
POLYLINE
8
0
6
CONTINUOUS
66
1
70
1
0
VERTEX
8
0
10
31.1
20
-30.3125
42
0.4142136
0
VERTEX
8
0
10
31.6
20
-30.8125
0
VERTEX
8
0
10
44.6
20
-30.8125
42
0.4142136
0
VERTEX
8
0
10
45.1
20
-30.3125
0
VERTEX
8
0
10
45.1
20
-17.3125
42
0.4142136
0
VERTEX
8
0
10
44.6
20
-16.8125
0
VERTEX
8
0
10
31.6
20
-16.8125
42
0.4142136
0
VERTEX
8
0
10
31.1
20
-17.3125
0
SEQEND
0
POLYLINE
8
0
6
CONTINUOUS
66
1
70
1
0
VERTEX
8
0
10
173.975
20
-30.3125
42
0.4142136
0
VERTEX
8
0
10
174.475
20
-30.8125
0
VERTEX
8
0
10
187.475
20
-30.8125
42
0.4142136
0
VERTEX
8
0
10
187.975
20
-30.3125
0
VERTEX
8
0
10
187.975
20
-17.3125
42
0.4142136
0
VERTEX
8
0
10
187.475
20
-16.8125
0
VERTEX
8
0
10
174.475
20
-16.8125
42
0.4142136
0
VERTEX
8
0
10
173.975
20
-17.3125
0
SEQEND
0
POLYLINE
8
0
6
CONTINUOUS
66
1
70
1
0
VERTEX
8
0
10
-68.9125
20
-32.69375
42
0.4142136
0
VERTEX
8
0
10
-68.4125
20
-33.19375
0
VERTEX
8
0
10
-55.4125
20
-33.19375
42
0.4142136
0
VERTEX
8
0
10
-54.9125
20
-32.69375
0
VERTEX
8
0
10
-54.9125
20
-19.69375
42
0.4142136
0
VERTEX
8
0
10
-55.4125
20
-19.19375
0
VERTEX
8
0
10
-68.4125
20
-19.19375
42
0.4142136
0
VERTEX
8
0
10
-68.9125
20
-19.69375
0
SEQEND
0
POLYLINE
8
0
6
CONTINUOUS
66
1
70
1
0
VERTEX
8
0
10
-45.1
20
-32.69375
42
0.4142136
0
VERTEX
8
0
10
-44.6
20
-33.19375
0
VERTEX
8
0
10
-31.6
20
-33.19375
42
0.4142136
0
VERTEX
8
0
10
-31.1
20
-32.69375
0
VERTEX
8
0
10
-31.1
20
-19.69375
42
0.4142136
0
VERTEX
8
0
10
-31.6
20
-19.19375
0
VERTEX
8
0
10
-44.6
20
-19.19375
42
0.4142136
0
VERTEX
8
0
10
-45.1
20
-19.69375
0
SEQEND
0
POLYLINE
8
0
6
CONTINUOUS
66
1
70
1
0
VERTEX
8
0
10
250.175
20
-32.69375
42
0.4142136
0
VERTEX
8
0
10
250.675
20
-33.19375
0
VERTEX
8
0
10
263.675
20
-33.19375
42
0.4142136
0
VERTEX
8
0
10
264.175
20
-32.69375
0
VERTEX
8
0
10
264.175
20
-19.69375
42
0.4142136
0
VERTEX
8
0
10
263.675
20
-19.19375
0
VERTEX
8
0
10
250.675
20
-19.19375
42
0.4142136
0
VERTEX
8
0
10
250.175
20
-19.69375
0
SEQEND
0
POLYLINE
8
0
6
CONTINUOUS
66
1
70
1
0
VERTEX
8
0
10
273.9875
20
-32.69375
42
0.4142136
0
VERTEX
8
0
10
274.4875
20
-33.19375
0
VERTEX
8
0
10
287.4875
20
-33.19375
42
0.4142136
0
VERTEX
8
0
10
287.9875
20
-32.69375
0
VERTEX
8
0
10
287.9875
20
-19.69375
42
0.4142136
0
VERTEX
8
0
10
287.4875
20
-19.19375
0
VERTEX
8
0
10
274.4875
20
-19.19375
42
0.4142136
0
VERTEX
8
0
10
273.9875
20
-19.69375
0
SEQEND
0
POLYLINE
8
0
6
CONTINUOUS
66
1
70
1
0
VERTEX
8
0
10
-7
20
-44.6
42
0.4142136
0
VERTEX
8
0
10
-6.5
20
-45.1
0
VERTEX
8
0
10
6.5
20
-45.1
42
0.4142136
0
VERTEX
8
0
10
7
20
-44.6
0
VERTEX
8
0
10
7
20
-31.6
42
0.4142136
0
VERTEX
8
0
10
6.5
20
-31.1
0
VERTEX
8
0
10
-6.5
20
-31.1
42
0.4142136
0
VERTEX
8
0
10
-7
20
-31.6
0
SEQEND
0
POLYLINE
8
0
6
CONTINUOUS
66
1
70
1
0
VERTEX
8
0
10
212.075
20
-44.6
42
0.4142136
0
VERTEX
8
0
10
212.575
20
-45.1
0
VERTEX
8
0
10
225.575
20
-45.1
42
0.4142136
0
VERTEX
8
0
10
226.075
20
-44.6
0
VERTEX
8
0
10
226.075
20
-31.6
42
0.4142136
0
VERTEX
8
0
10
225.575
20
-31.1
0
VERTEX
8
0
10
212.575
20
-31.1
42
0.4142136
0
VERTEX
8
0
10
212.075
20
-31.6
0
SEQEND
0
POLYLINE
8
0
6
CONTINUOUS
66
1
70
1
0
VERTEX
8
0
10
-26.05
20
-46.98125
42
0.4142136
0
VERTEX
8
0
10
-25.55
20
-47.48125
0
VERTEX
8
0
10
-12.55
20
-47.48125
42
0.4142136
0
VERTEX
8
0
10
-12.05
20
-46.98125
0
VERTEX
8
0
10
-12.05
20
-33.98125
42
0.4142136
0
VERTEX
8
0
10
-12.55
20
-33.48125
0
VERTEX
8
0
10
-25.55
20
-33.48125
42
0.4142136
0
VERTEX
8
0
10
-26.05
20
-33.98125
0
SEQEND
0
POLYLINE
8
0
6
CONTINUOUS
66
1
70
1
0
VERTEX
8
0
10
12.05
20
-46.98125
42
0.4142136
0
VERTEX
8
0
10
12.55
20
-47.48125
0
VERTEX
8
0
10
25.55
20
-47.48125
42
0.4142136
0
VERTEX
8
0
10
26.05
20
-46.98125
0
VERTEX
8
0
10
26.05
20
-33.98125
42
0.4142136
0
VERTEX
8
0
10
25.55
20
-33.48125
0
VERTEX
8
0
10
12.55
20
-33.48125
42
0.4142136
0
VERTEX
8
0
10
12.05
20
-33.98125
0
SEQEND
0
POLYLINE
8
0
6
CONTINUOUS
66
1
70
1
0
VERTEX
8
0
10
193.025
20
-46.98125
42
0.4142136
0
VERTEX
8
0
10
193.525
20
-47.48125
0
VERTEX
8
0
10
206.525
20
-47.48125
42
0.4142136
0
VERTEX
8
0
10
207.025
20
-46.98125
0
VERTEX
8
0
10
207.025
20
-33.98125
42
0.4142136
0
VERTEX
8
0
10
206.525
20
-33.48125
0
VERTEX
8
0
10
193.525
20
-33.48125
42
0.4142136
0
VERTEX
8
0
10
193.025
20
-33.98125
0
SEQEND
0
POLYLINE
8
0
6
CONTINUOUS
66
1
70
1
0
VERTEX
8
0
10
231.125
20
-46.98125
42
0.4142136
0
VERTEX
8
0
10
231.625
20
-47.48125
0
VERTEX
8
0
10
244.625
20
-47.48125
42
0.4142136
0
VERTEX
8
0
10
245.125
20
-46.98125
0
VERTEX
8
0
10
245.125
20
-33.98125
42
0.4142136
0
VERTEX
8
0
10
244.625
20
-33.48125
0
VERTEX
8
0
10
231.625
20
-33.48125
42
0.4142136
0
VERTEX
8
0
10
231.125
20
-33.98125
0
SEQEND
0
POLYLINE
8
0
6
CONTINUOUS
66
1
70
1
0
VERTEX
8
0
10
31.1
20
-49.3625
42
0.4142136
0
VERTEX
8
0
10
31.6
20
-49.8625
0
VERTEX
8
0
10
44.6
20
-49.8625
42
0.4142136
0
VERTEX
8
0
10
45.1
20
-49.3625
0
VERTEX
8
0
10
45.1
20
-36.3625
42
0.4142136
0
VERTEX
8
0
10
44.6
20
-35.8625
0
VERTEX
8
0
10
31.6
20
-35.8625
42
0.4142136
0
VERTEX
8
0
10
31.1
20
-36.3625
0
SEQEND
0
POLYLINE
8
0
6
CONTINUOUS
66
1
70
1
0
VERTEX
8
0
10
173.975
20
-49.3625
42
0.4142136
0
VERTEX
8
0
10
174.475
20
-49.8625
0
VERTEX
8
0
10
187.475
20
-49.8625
42
0.4142136
0
VERTEX
8
0
10
187.975
20
-49.3625
0
VERTEX
8
0
10
187.975
20
-36.3625
42
0.4142136
0
VERTEX
8
0
10
187.475
20
-35.8625
0
VERTEX
8
0
10
174.475
20
-35.8625
42
0.4142136
0
VERTEX
8
0
10
173.975
20
-36.3625
0
SEQEND
0
POLYLINE
8
0
6
CONTINUOUS
66
1
70
1
0
VERTEX
8
0
10
-68.9125
20
-51.74375
42
0.4142136
0
VERTEX
8
0
10
-68.4125
20
-52.24375
0
VERTEX
8
0
10
-55.4125
20
-52.24375
42
0.4142136
0
VERTEX
8
0
10
-54.9125
20
-51.74375
0
VERTEX
8
0
10
-54.9125
20
-38.74375
42
0.4142136
0
VERTEX
8
0
10
-55.4125
20
-38.24375
0
VERTEX
8
0
10
-68.4125
20
-38.24375
42
0.4142136
0
VERTEX
8
0
10
-68.9125
20
-38.74375
0
SEQEND
0
POLYLINE
8
0
6
CONTINUOUS
66
1
70
1
0
VERTEX
8
0
10
-45.1
20
-51.74375
42
0.4142136
0
VERTEX
8
0
10
-44.6
20
-52.24375
0
VERTEX
8
0
10
-31.6
20
-52.24375
42
0.4142136
0
VERTEX
8
0
10
-31.1
20
-51.74375
0
VERTEX
8
0
10
-31.1
20
-38.74375
42
0.4142136
0
VERTEX
8
0
10
-31.6
20
-38.24375
0
VERTEX
8
0
10
-44.6
20
-38.24375
42
0.4142136
0
VERTEX
8
0
10
-45.1
20
-38.74375
0
SEQEND
0
POLYLINE
8
0
6
CONTINUOUS
66
1
70
1
0
VERTEX
8
0
10
250.175
20
-51.74375
42
0.4142136
0
VERTEX
8
0
10
250.675
20
-52.24375
0
VERTEX
8
0
10
263.675
20
-52.24375
42
0.4142136
0
VERTEX
8
0
10
264.175
20
-51.74375
0
VERTEX
8
0
10
264.175
20
-38.74375
42
0.4142136
0
VERTEX
8
0
10
263.675
20
-38.24375
0
VERTEX
8
0
10
250.675
20
-38.24375
42
0.4142136
0
VERTEX
8
0
10
250.175
20
-38.74375
0
SEQEND
0
POLYLINE
8
0
6
CONTINUOUS
66
1
70
1
0
VERTEX
8
0
10
273.9875
20
-51.74375
42
0.4142136
0
VERTEX
8
0
10
274.4875
20
-52.24375
0
VERTEX
8
0
10
287.4875
20
-52.24375
42
0.4142136
0
VERTEX
8
0
10
287.9875
20
-51.74375
0
VERTEX
8
0
10
287.9875
20
-38.74375
42
0.4142136
0
VERTEX
8
0
10
287.4875
20
-38.24375
0
VERTEX
8
0
10
274.4875
20
-38.24375
42
0.4142136
0
VERTEX
8
0
10
273.9875
20
-38.74375
0
SEQEND
0
POLYLINE
8
0
6
CONTINUOUS
66
1
70
1
0
VERTEX
8
0
10
-7
20
-63.65
42
0.4142136
0
VERTEX
8
0
10
-6.5
20
-64.15
0
VERTEX
8
0
10
6.5
20
-64.15
42
0.4142136
0
VERTEX
8
0
10
7
20
-63.65
0
VERTEX
8
0
10
7
20
-50.65
42
0.4142136
0
VERTEX
8
0
10
6.5
20
-50.15
0
VERTEX
8
0
10
-6.5
20
-50.15
42
0.4142136
0
VERTEX
8
0
10
-7
20
-50.65
0
SEQEND
0
POLYLINE
8
0
6
CONTINUOUS
66
1
70
1
0
VERTEX
8
0
10
212.075
20
-63.65
42
0.4142136
0
VERTEX
8
0
10
212.575
20
-64.15
0
VERTEX
8
0
10
225.575
20
-64.15
42
0.4142136
0
VERTEX
8
0
10
226.075
20
-63.65
0
VERTEX
8
0
10
226.075
20
-50.65
42
0.4142136
0
VERTEX
8
0
10
225.575
20
-50.15
0
VERTEX
8
0
10
212.575
20
-50.15
42
0.4142136
0
VERTEX
8
0
10
212.075
20
-50.65
0
SEQEND
0
POLYLINE
8
0
6
CONTINUOUS
66
1
70
1
0
VERTEX
8
0
10
-26.05
20
-66.03125
42
0.4142136
0
VERTEX
8
0
10
-25.55
20
-66.53125
0
VERTEX
8
0
10
-12.55
20
-66.53125
42
0.4142136
0
VERTEX
8
0
10
-12.05
20
-66.03125
0
VERTEX
8
0
10
-12.05
20
-53.03125
42
0.4142136
0
VERTEX
8
0
10
-12.55
20
-52.53125
0
VERTEX
8
0
10
-25.55
20
-52.53125
42
0.4142136
0
VERTEX
8
0
10
-26.05
20
-53.03125
0
SEQEND
0
POLYLINE
8
0
6
CONTINUOUS
66
1
70
1
0
VERTEX
8
0
10
12.05
20
-66.03125
42
0.4142136
0
VERTEX
8
0
10
12.55
20
-66.53125
0
VERTEX
8
0
10
25.55
20
-66.53125
42
0.4142136
0
VERTEX
8
0
10
26.05
20
-66.03125
0
VERTEX
8
0
10
26.05
20
-53.03125
42
0.4142136
0
VERTEX
8
0
10
25.55
20
-52.53125
0
VERTEX
8
0
10
12.55
20
-52.53125
42
0.4142136
0
VERTEX
8
0
10
12.05
20
-53.03125
0
SEQEND
0
POLYLINE
8
0
6
CONTINUOUS
66
1
70
1
0
VERTEX
8
0
10
193.025
20
-66.03125
42
0.4142136
0
VERTEX
8
0
10
193.525
20
-66.53125
0
VERTEX
8
0
10
206.525
20
-66.53125
42
0.4142136
0
VERTEX
8
0
10
207.025
20
-66.03125
0
VERTEX
8
0
10
207.025
20
-53.03125
42
0.4142136
0
VERTEX
8
0
10
206.525
20
-52.53125
0
VERTEX
8
0
10
193.525
20
-52.53125
42
0.4142136
0
VERTEX
8
0
10
193.025
20
-53.03125
0
SEQEND
0
POLYLINE
8
0
6
CONTINUOUS
66
1
70
1
0
VERTEX
8
0
10
231.125
20
-66.03125
42
0.4142136
0
VERTEX
8
0
10
231.625
20
-66.53125
0
VERTEX
8
0
10
244.625
20
-66.53125
42
0.4142136
0
VERTEX
8
0
10
245.125
20
-66.03125
0
VERTEX
8
0
10
245.125
20
-53.03125
42
0.4142136
0
VERTEX
8
0
10
244.625
20
-52.53125
0
VERTEX
8
0
10
231.625
20
-52.53125
42
0.4142136
0
VERTEX
8
0
10
231.125
20
-53.03125
0
SEQEND
0
POLYLINE
8
0
6
CONTINUOUS
66
1
70
1
0
VERTEX
8
0
10
31.1
20
-68.4125
42
0.4142136
0
VERTEX
8
0
10
31.6
20
-68.9125
0
VERTEX
8
0
10
44.6
20
-68.9125
42
0.4142136
0
VERTEX
8
0
10
45.1
20
-68.4125
0
VERTEX
8
0
10
45.1
20
-55.4125
42
0.4142136
0
VERTEX
8
0
10
44.6
20
-54.9125
0
VERTEX
8
0
10
31.6
20
-54.9125
42
0.4142136
0
VERTEX
8
0
10
31.1
20
-55.4125
0
SEQEND
0
POLYLINE
8
0
6
CONTINUOUS
66
1
70
1
0
VERTEX
8
0
10
173.975
20
-68.4125
42
0.4142136
0
VERTEX
8
0
10
174.475
20
-68.9125
0
VERTEX
8
0
10
187.475
20
-68.9125
42
0.4142136
0
VERTEX
8
0
10
187.975
20
-68.4125
0
VERTEX
8
0
10
187.975
20
-55.4125
42
0.4142136
0
VERTEX
8
0
10
187.475
20
-54.9125
0
VERTEX
8
0
10
174.475
20
-54.9125
42
0.4142136
0
VERTEX
8
0
10
173.975
20
-55.4125
0
SEQEND
0
POLYLINE
8
0
6
CONTINUOUS
66
1
70
1
0
VERTEX
8
0
10
-68.9125
20
-70.79375
42
0.4142136
0
VERTEX
8
0
10
-68.4125
20
-71.29375
0
VERTEX
8
0
10
-55.4125
20
-71.29375
42
0.4142136
0
VERTEX
8
0
10
-54.9125
20
-70.79375
0
VERTEX
8
0
10
-54.9125
20
-57.79375
42
0.4142136
0
VERTEX
8
0
10
-55.4125
20
-57.29375
0
VERTEX
8
0
10
-68.4125
20
-57.29375
42
0.4142136
0
VERTEX
8
0
10
-68.9125
20
-57.79375
0
SEQEND
0
POLYLINE
8
0
6
CONTINUOUS
66
1
70
1
0
VERTEX
8
0
10
-45.1
20
-70.79375
42
0.4142136
0
VERTEX
8
0
10
-44.6
20
-71.29375
0
VERTEX
8
0
10
-31.6
20
-71.29375
42
0.4142136
0
VERTEX
8
0
10
-31.1
20
-70.79375
0
VERTEX
8
0
10
-31.1
20
-57.79375
42
0.4142136
0
VERTEX
8
0
10
-31.6
20
-57.29375
0
VERTEX
8
0
10
-44.6
20
-57.29375
42
0.4142136
0
VERTEX
8
0
10
-45.1
20
-57.79375
0
SEQEND
0
POLYLINE
8
0
6
CONTINUOUS
66
1
70
1
0
VERTEX
8
0
10
250.175
20
-70.79375
42
0.4142136
0
VERTEX
8
0
10
250.675
20
-71.29375
0
VERTEX
8
0
10
263.675
20
-71.29375
42
0.4142136
0
VERTEX
8
0
10
264.175
20
-70.79375
0
VERTEX
8
0
10
264.175
20
-57.79375
42
0.4142136
0
VERTEX
8
0
10
263.675
20
-57.29375
0
VERTEX
8
0
10
250.675
20
-57.29375
42
0.4142136
0
VERTEX
8
0
10
250.175
20
-57.79375
0
SEQEND
0
POLYLINE
8
0
6
CONTINUOUS
66
1
70
1
0
VERTEX
8
0
10
273.9875
20
-70.79375
42
0.4142136
0
VERTEX
8
0
10
274.4875
20
-71.29375
0
VERTEX
8
0
10
287.4875
20
-71.29375
42
0.4142136
0
VERTEX
8
0
10
287.9875
20
-70.79375
0
VERTEX
8
0
10
287.9875
20
-57.79375
42
0.4142136
0
VERTEX
8
0
10
287.4875
20
-57.29375
0
VERTEX
8
0
10
274.4875
20
-57.29375
42
0.4142136
0
VERTEX
8
0
10
273.9875
20
-57.79375
0
SEQEND
0
POLYLINE
8
0
6
CONTINUOUS
66
1
70
1
0
VERTEX
8
0
10
-7
20
-82.7
42
0.4142136
0
VERTEX
8
0
10
-6.5
20
-83.2
0
VERTEX
8
0
10
6.5
20
-83.2
42
0.4142136
0
VERTEX
8
0
10
7
20
-82.7
0
VERTEX
8
0
10
7
20
-69.7
42
0.4142136
0
VERTEX
8
0
10
6.5
20
-69.2
0
VERTEX
8
0
10
-6.5
20
-69.2
42
0.4142136
0
VERTEX
8
0
10
-7
20
-69.7
0
SEQEND
0
POLYLINE
8
0
6
CONTINUOUS
66
1
70
1
0
VERTEX
8
0
10
212.075
20
-82.7
42
0.4142136
0
VERTEX
8
0
10
212.575
20
-83.2
0
VERTEX
8
0
10
225.575
20
-83.2
42
0.4142136
0
VERTEX
8
0
10
226.075
20
-82.7
0
VERTEX
8
0
10
226.075
20
-69.7
42
0.4142136
0
VERTEX
8
0
10
225.575
20
-69.2
0
VERTEX
8
0
10
212.575
20
-69.2
42
0.4142136
0
VERTEX
8
0
10
212.075
20
-69.7
0
SEQEND
0
POLYLINE
8
0
6
CONTINUOUS
66
1
70
1
0
VERTEX
8
0
10
-26.05
20
-85.08125
42
0.4142136
0
VERTEX
8
0
10
-25.55
20
-85.58125
0
VERTEX
8
0
10
-12.55
20
-85.58125
42
0.4142136
0
VERTEX
8
0
10
-12.05
20
-85.08125
0
VERTEX
8
0
10
-12.05
20
-72.08125
42
0.4142136
0
VERTEX
8
0
10
-12.55
20
-71.58125
0
VERTEX
8
0
10
-25.55
20
-71.58125
42
0.4142136
0
VERTEX
8
0
10
-26.05
20
-72.08125
0
SEQEND
0
POLYLINE
8
0
6
CONTINUOUS
66
1
70
1
0
VERTEX
8
0
10
231.125
20
-85.08125
42
0.4142136
0
VERTEX
8
0
10
231.625
20
-85.58125
0
VERTEX
8
0
10
244.625
20
-85.58125
42
0.4142136
0
VERTEX
8
0
10
245.125
20
-85.08125
0
VERTEX
8
0
10
245.125
20
-72.08125
42
0.4142136
0
VERTEX
8
0
10
244.625
20
-71.58125
0
VERTEX
8
0
10
231.625
20
-71.58125
42
0.4142136
0
VERTEX
8
0
10
231.125
20
-72.08125
0
SEQEND
0
POLYLINE
8
0
6
CONTINUOUS
66
1
70
1
0
VERTEX
8
0
10
-54.625
20
-89.84375
42
0.4142136
0
VERTEX
8
0
10
-54.125
20
-90.34375
0
VERTEX
8
0
10
-41.125
20
-90.34375
42
0.4142136
0
VERTEX
8
0
10
-40.625
20
-89.84375
0
VERTEX
8
0
10
-40.625
20
-76.84375
42
0.4142136
0
VERTEX
8
0
10
-41.125
20
-76.34375
0
VERTEX
8
0
10
-54.125
20
-76.34375
42
0.4142136
0
VERTEX
8
0
10
-54.625
20
-76.84375
0
SEQEND
0
POLYLINE
8
0
6
CONTINUOUS
66
1
70
1
0
VERTEX
8
0
10
259.7
20
-89.84375
42
0.4142136
0
VERTEX
8
0
10
260.2
20
-90.34375
0
VERTEX
8
0
10
273.2
20
-90.34375
42
0.4142136
0
VERTEX
8
0
10
273.7
20
-89.84375
0
VERTEX
8
0
10
273.7
20
-76.84375
42
0.4142136
0
VERTEX
8
0
10
273.2
20
-76.34375
0
VERTEX
8
0
10
260.2
20
-76.34375
42
0.4142136
0
VERTEX
8
0
10
259.7
20
-76.84375
0
SEQEND
0
POLYLINE
8
0
6
CONTINUOUS
66
1
70
1
0
VERTEX
8
0
10
139.1286463
20
-86.6052731
42
0.4142136
0
VERTEX
8
0
10
139.811659
20
-86.7882858
0
VERTEX
8
0
10
151.0699892
20
-80.2882858
42
0.4142136
0
VERTEX
8
0
10
151.2530019
20
-79.6052731
0
VERTEX
8
0
10
144.7530019
20
-68.3469429
42
0.4142136
0
VERTEX
8
0
10
144.0699892
20
-68.1639302
0
VERTEX
8
0
10
132.811659
20
-74.6639302
42
0.4142136
0
VERTEX
8
0
10
132.6286463
20
-75.3469429
0
SEQEND
0
POLYLINE
8
0
6
CONTINUOUS
66
1
70
1
0
VERTEX
8
0
10
155.6264302
20
-77.0802731
42
0.4142136
0
VERTEX
8
0
10
156.3094429
20
-77.2632858
0
VERTEX
8
0
10
167.5677731
20
-70.7632858
42
0.4142136
0
VERTEX
8
0
10
167.7507858
20
-70.0802731
0
VERTEX
8
0
10
161.2507858
20
-58.8219429
42
0.4142136
0
VERTEX
8
0
10
160.5677731
20
-58.6389302
0
VERTEX
8
0
10
149.3094429
20
-65.1389302
42
0.4142136
0
VERTEX
8
0
10
149.1264302
20
-65.8219429
0
SEQEND
0
POLYLINE
8
0
6
CONTINUOUS
66
1
70
1
0
VERTEX
8
0
10
151.0348963
20
-107.2275031
42
0.4142136
0
VERTEX
8
0
10
151.717909
20
-107.4105158
0
VERTEX
8
0
10
162.9762392
20
-100.9105158
42
0.4142136
0
VERTEX
8
0
10
163.1592519
20
-100.2275031
0
VERTEX
8
0
10
156.6592519
20
-88.9691729
42
0.4142136
0
VERTEX
8
0
10
155.9762392
20
-88.7861602
0
VERTEX
8
0
10
144.717909
20
-95.2861602
42
0.4142136
0
VERTEX
8
0
10
144.5348963
20
-95.9691729
0
SEQEND
0
POLYLINE
8
0
6
CONTINUOUS
66
1
70
1
0
VERTEX
8
0
10
167.5326802
20
-97.7025031
42
0.4142136
0
VERTEX
8
0
10
168.2156929
20
-97.8855158
0
VERTEX
8
0
10
179.4740231
20
-91.3855158
42
0.4142136
0
VERTEX
8
0
10
179.6570358
20
-90.7025031
0
VERTEX
8
0
10
173.1570358
20
-79.4441729
42
0.4142136
0
VERTEX
8
0
10
172.4740231
20
-79.2611602
0
VERTEX
8
0
10
161.2156929
20
-85.7611602
42
0.4142136
0
VERTEX
8
0
10
161.0326802
20
-86.4441729
0
SEQEND
0
POLYLINE
8
0
6
CONTINUOUS
66
1
70
1
0
VERTEX
8
0
10
51.3242142
20
-70.0802731
42
0.4142136
0
VERTEX
8
0
10
51.5072269
20
-70.7632858
0
VERTEX
8
0
10
62.7655571
20
-77.2632858
42
0.4142136
0
VERTEX
8
0
10
63.4485698
20
-77.0802731
0
VERTEX
8
0
10
69.9485698
20
-65.8219429
42
0.4142136
0
VERTEX
8
0
10
69.7655571
20
-65.1389302
0
VERTEX
8
0
10
58.5072269
20
-58.6389302
42
0.4142136
0
VERTEX
8
0
10
57.8242142
20
-58.8219429
0
SEQEND
0
POLYLINE
8
0
6
CONTINUOUS
66
1
70
1
0
VERTEX
8
0
10
67.8219981
20
-79.6052731
42
0.4142136
0
VERTEX
8
0
10
68.0050108
20
-80.2882858
0
VERTEX
8
0
10
79.263341
20
-86.7882858
42
0.4142136
0
VERTEX
8
0
10
79.9463537
20
-86.6052731
0
VERTEX
8
0
10
86.4463537
20
-75.3469429
42
0.4142136
0
VERTEX
8
0
10
86.263341
20
-74.6639302
0
VERTEX
8
0
10
75.0050108
20
-68.1639302
42
0.4142136
0
VERTEX
8
0
10
74.3219981
20
-68.3469429
0
SEQEND
0
POLYLINE
8
0
6
CONTINUOUS
66
1
70
1
0
VERTEX
8
0
10
39.4179642
20
-90.7025031
42
0.4142136
0
VERTEX
8
0
10
39.6009769
20
-91.3855158
0
VERTEX
8
0
10
50.8593071
20
-97.8855158
42
0.4142136
0
VERTEX
8
0
10
51.5423198
20
-97.7025031
0
VERTEX
8
0
10
58.0423198
20
-86.4441729
42
0.4142136
0
VERTEX
8
0
10
57.8593071
20
-85.7611602
0
VERTEX
8
0
10
46.6009769
20
-79.2611602
42
0.4142136
0
VERTEX
8
0
10
45.9179642
20
-79.4441729
0
SEQEND
0
POLYLINE
8
0
6
CONTINUOUS
66
1
70
1
0
VERTEX
8
0
10
55.9157481
20
-100.2275031
42
0.4142136
0
VERTEX
8
0
10
56.0987608
20
-100.9105158
0
VERTEX
8
0
10
67.357091
20
-107.4105158
42
0.4142136
0
VERTEX
8
0
10
68.0401037
20
-107.2275031
0
VERTEX
8
0
10
74.5401037
20
-95.9691729
42
0.4142136
0
VERTEX
8
0
10
74.357091
20
-95.2861602
0
VERTEX
8
0
10
63.0987608
20
-88.7861602
42
0.4142136
0
VERTEX
8
0
10
62.4157481
20
-88.9691729
0
SEQEND
0
POLYLINE
8
0
6
CONTINUOUS
66
1
70
1
0
VERTEX
8
0
10
-63.063
20
-91.94375
42
0.4142136
0
VERTEX
8
0
10
-62.663
20
-92.34375
0
VERTEX
8
0
10
-56.463
20
-92.34375
42
0.4142136
0
VERTEX
8
0
10
-56.063
20
-91.94375
0
VERTEX
8
0
10
-56.063
20
-77.74375
42
0.4142136
0
VERTEX
8
0
10
-56.463
20
-77.34375
0
VERTEX
8
0
10
-62.663
20
-77.34375
42
0.4142136
0
VERTEX
8
0
10
-63.063
20
-77.74375
0
SEQEND
0
POLYLINE
8
0
6
CONTINUOUS
66
1
70
1
0
VERTEX
8
0
10
-39.187
20
-91.94375
42
0.4142136
0
VERTEX
8
0
10
-38.787
20
-92.34375
0
VERTEX
8
0
10
-32.587
20
-92.34375
42
0.4142136
0
VERTEX
8
0
10
-32.187
20
-91.94375
0
VERTEX
8
0
10
-32.187
20
-77.74375
42
0.4142136
0
VERTEX
8
0
10
-32.587
20
-77.34375
0
VERTEX
8
0
10
-38.787
20
-77.34375
42
0.4142136
0
VERTEX
8
0
10
-39.187
20
-77.74375
0
SEQEND
0
POLYLINE
8
0
6
CONTINUOUS
66
1
70
1
0
VERTEX
8
0
10
251.262
20
-91.94375
42
0.4142136
0
VERTEX
8
0
10
251.662
20
-92.34375
0
VERTEX
8
0
10
257.862
20
-92.34375
42
0.4142136
0
VERTEX
8
0
10
258.262
20
-91.94375
0
VERTEX
8
0
10
258.262
20
-77.74375
42
0.4142136
0
VERTEX
8
0
10
257.862
20
-77.34375
0
VERTEX
8
0
10
251.662
20
-77.34375
42
0.4142136
0
VERTEX
8
0
10
251.262
20
-77.74375
0
SEQEND
0
POLYLINE
8
0
6
CONTINUOUS
66
1
70
1
0
VERTEX
8
0
10
275.138
20
-91.94375
42
0.4142136
0
VERTEX
8
0
10
275.538
20
-92.34375
0
VERTEX
8
0
10
281.738
20
-92.34375
42
0.4142136
0
VERTEX
8
0
10
282.138
20
-91.94375
0
VERTEX
8
0
10
282.138
20
-77.74375
42
0.4142136
0
VERTEX
8
0
10
281.738
20
-77.34375
0
VERTEX
8
0
10
275.538
20
-77.34375
42
0.4142136
0
VERTEX
8
0
10
275.138
20
-77.74375
0
SEQEND
0
ENDSEC
0
EOF