%TF.GenerationSoftware,KiCad,Pcbnew,6.0.9*%
%TF.CreationDate,2023-01-02T19:50:32+01:00*%
%TF.ProjectId,macropad,6d616372-6f70-4616-942e-6b696361645f,rev?*%
%TF.SameCoordinates,Original*%
%TF.FileFunction,Soldermask,Bot*%
%TF.FilePolarity,Negative*%
%FSLAX46Y46*%
G04 Gerber Fmt 4.6, Leading zero omitted, Abs format (unit mm)*
G04 Created by KiCad (PCBNEW 6.0.9) date 2023-01-02 19:50:32*
%MOMM*%
%LPD*%
G01*
G04 APERTURE LIST*
G04 Aperture macros list*
%AMRoundRect*
0 Rectangle with rounded corners*
0 $1 Rounding radius*
0 $2 $3 $4 $5 $6 $7 $8 $9 X,Y pos of 4 corners*
0 Add a 4 corners polygon primitive as box body*
4,1,4,$2,$3,$4,$5,$6,$7,$8,$9,$2,$3,0*
0 Add four circle primitives for the rounded corners*
1,1,$1+$1,$2,$3*
1,1,$1+$1,$4,$5*
1,1,$1+$1,$6,$7*
1,1,$1+$1,$8,$9*
0 Add four rect primitives between the rounded corners*
20,1,$1+$1,$2,$3,$4,$5,0*
20,1,$1+$1,$4,$5,$6,$7,0*
20,1,$1+$1,$6,$7,$8,$9,0*
20,1,$1+$1,$8,$9,$2,$3,0*%
%AMRotRect*
0 Rectangle, with rotation*
0 The origin of the aperture is its center*
0 $1 length*
0 $2 width*
0 $3 Rotation angle, in degrees counterclockwise*
0 Add horizontal line*
21,1,$1,$2,0,0,$3*%
%AMFreePoly0*
4,1,18,-0.410000,0.593000,-0.403758,0.624380,-0.385983,0.650983,-0.359380,0.668758,-0.328000,0.675000,0.328000,0.675000,0.359380,0.668758,0.385983,0.650983,0.403758,0.624380,0.410000,0.593000,0.410000,-0.593000,0.403758,-0.624380,0.385983,-0.650983,0.359380,-0.668758,0.328000,-0.675000,0.000000,-0.675000,-0.410000,-0.265000,-0.410000,0.593000,-0.410000,0.593000,$1*%
G04 Aperture macros list end*
%ADD10RoundRect,0.082000X0.593000X-0.328000X0.593000X0.328000X-0.593000X0.328000X-0.593000X-0.328000X0*%
%ADD11FreePoly0,90.000000*%
%ADD12R,1.700000X1.700000*%
%ADD13O,1.700000X1.700000*%
%ADD14RotRect,2.000000X2.400000X225.000000*%
%ADD15R,2.000000X1.500000*%
%ADD16R,2.000000X3.800000*%
%ADD17RoundRect,0.149824X0.149824X-0.386209X0.149824X0.386209X-0.149824X0.386209X-0.149824X-0.386209X0*%
%ADD18RoundRect,0.156337X0.156336X-0.390557X0.156336X0.390557X-0.156336X0.390557X-0.156336X-0.390557X0*%
%ADD19RoundRect,0.156099X0.156098X-0.377750X0.156098X0.377750X-0.156098X0.377750X-0.156098X-0.377750X0*%
%ADD20RoundRect,0.150000X0.150000X-0.875000X0.150000X0.875000X-0.150000X0.875000X-0.150000X-0.875000X0*%
%ADD21RoundRect,0.050000X-0.238649X-0.309359X0.309359X0.238649X0.238649X0.309359X-0.309359X-0.238649X0*%
%ADD22RoundRect,0.050000X0.238649X-0.309359X0.309359X-0.238649X-0.238649X0.309359X-0.309359X0.238649X0*%
%ADD23RotRect,3.200000X3.200000X45.000000*%
%ADD24R,1.550000X1.300000*%
%ADD25RoundRect,0.200000X-0.275000X0.200000X-0.275000X-0.200000X0.275000X-0.200000X0.275000X0.200000X0*%
%ADD26RoundRect,0.200000X0.275000X-0.200000X0.275000X0.200000X-0.275000X0.200000X-0.275000X-0.200000X0*%
%ADD27RoundRect,0.200000X0.200000X0.275000X-0.200000X0.275000X-0.200000X-0.275000X0.200000X-0.275000X0*%
%ADD28RoundRect,0.200000X-0.053033X0.335876X-0.335876X0.053033X0.053033X-0.335876X0.335876X-0.053033X0*%
%ADD29RoundRect,0.200000X-0.200000X-0.275000X0.200000X-0.275000X0.200000X0.275000X-0.200000X0.275000X0*%
%ADD30FreePoly0,270.000000*%
%ADD31RoundRect,0.082000X-0.593000X0.328000X-0.593000X-0.328000X0.593000X-0.328000X0.593000X0.328000X0*%
%ADD32O,0.950000X0.650000*%
%ADD33C,0.650000*%
%ADD34R,0.300000X0.700000*%
%ADD35O,0.800000X1.400000*%
%ADD36R,0.250000X1.650000*%
%ADD37R,0.900000X0.300000*%
%ADD38RoundRect,0.140000X-0.170000X0.140000X-0.170000X-0.140000X0.170000X-0.140000X0.170000X0.140000X0*%
%ADD39RoundRect,0.140000X0.170000X-0.140000X0.170000X0.140000X-0.170000X0.140000X-0.170000X-0.140000X0*%
%ADD40RoundRect,0.140000X-0.219203X-0.021213X-0.021213X-0.219203X0.219203X0.021213X0.021213X0.219203X0*%
G04 APERTURE END LIST*
D10*
%TO.C,LED2*%
X129121092Y-117414938D03*
X129121092Y-118914938D03*
X134571092Y-117414938D03*
D11*
X134571092Y-118914938D03*
%TD*%
D10*
%TO.C,LED4*%
X148163012Y-117414937D03*
X148163012Y-118914937D03*
X153613012Y-117414937D03*
D11*
X153613012Y-118914937D03*
%TD*%
%TO.C,LED6*%
X172671092Y-118914938D03*
D10*
X172671092Y-117414938D03*
X167221092Y-118914938D03*
X167221092Y-117414938D03*
%TD*%
D12*
%TO.C,J1*%
X164258551Y-76090737D03*
D13*
X161718551Y-76090737D03*
X159178551Y-76090737D03*
X156638551Y-76090737D03*
%TD*%
D14*
%TO.C,Y1*%
X150307924Y-78510566D03*
X147691628Y-81126862D03*
%TD*%
D15*
%TO.C,U9*%
X177108591Y-95289021D03*
X177108591Y-92989021D03*
D16*
X170808591Y-92989021D03*
D15*
X177108591Y-90689021D03*
%TD*%
D17*
%TO.C,U8*%
X170895740Y-124383893D03*
D18*
X169008771Y-124373027D03*
D19*
X169958289Y-122103792D03*
%TD*%
D17*
%TO.C,U7*%
X170912990Y-105345530D03*
D18*
X169026021Y-105334664D03*
D19*
X169975539Y-103065429D03*
%TD*%
D20*
%TO.C,U6*%
X139554250Y-92262248D03*
X138284250Y-92262248D03*
X137014250Y-92262248D03*
X135744250Y-92262248D03*
X134474250Y-92262248D03*
X133204250Y-92262248D03*
X131934250Y-92262248D03*
X130664250Y-92262248D03*
X129394250Y-92262248D03*
X128124250Y-92262248D03*
X126854250Y-92262248D03*
X125584250Y-92262248D03*
X125584250Y-82962248D03*
X126854250Y-82962248D03*
X128124250Y-82962248D03*
X129394250Y-82962248D03*
X130664250Y-82962248D03*
X131934250Y-82962248D03*
X133204250Y-82962248D03*
X134474250Y-82962248D03*
X135744250Y-82962248D03*
X137014250Y-82962248D03*
X138284250Y-82962248D03*
X139554250Y-82962248D03*
%TD*%
D17*
%TO.C,U5*%
X151837660Y-124383892D03*
D18*
X149950691Y-124373026D03*
D19*
X150900209Y-122103791D03*
%TD*%
D17*
%TO.C,U4*%
X151837660Y-105345530D03*
D18*
X149950691Y-105334664D03*
D19*
X150900209Y-103065429D03*
%TD*%
D17*
%TO.C,U3*%
X132795740Y-124383893D03*
D18*
X130908771Y-124373027D03*
D19*
X131858289Y-122103792D03*
%TD*%
D17*
%TO.C,U2*%
X132812990Y-105345530D03*
D18*
X130926021Y-105334664D03*
D19*
X131875539Y-103065429D03*
%TD*%
D21*
%TO.C,U1*%
X154204682Y-89905561D03*
X153921839Y-89622718D03*
X153638997Y-89339876D03*
X153356154Y-89057033D03*
X153073311Y-88774190D03*
X152790469Y-88491348D03*
X152507626Y-88208505D03*
X152224783Y-87925662D03*
X151941940Y-87642819D03*
X151659098Y-87359977D03*
X151376255Y-87077134D03*
X151093412Y-86794291D03*
X150810570Y-86511449D03*
X150527727Y-86228606D03*
D22*
X150527727Y-85044202D03*
X150810570Y-84761359D03*
X151093412Y-84478517D03*
X151376255Y-84195674D03*
X151659098Y-83912831D03*
X151941940Y-83629989D03*
X152224783Y-83347146D03*
X152507626Y-83064303D03*
X152790469Y-82781460D03*
X153073311Y-82498618D03*
X153356154Y-82215775D03*
X153638997Y-81932932D03*
X153921839Y-81650090D03*
X154204682Y-81367247D03*
D21*
X155389086Y-81367247D03*
X155671929Y-81650090D03*
X155954771Y-81932932D03*
X156237614Y-82215775D03*
X156520457Y-82498618D03*
X156803299Y-82781460D03*
X157086142Y-83064303D03*
X157368985Y-83347146D03*
X157651828Y-83629989D03*
X157934670Y-83912831D03*
X158217513Y-84195674D03*
X158500356Y-84478517D03*
X158783198Y-84761359D03*
X159066041Y-85044202D03*
D22*
X159066041Y-86228606D03*
X158783198Y-86511449D03*
X158500356Y-86794291D03*
X158217513Y-87077134D03*
X157934670Y-87359977D03*
X157651828Y-87642819D03*
X157368985Y-87925662D03*
X157086142Y-88208505D03*
X156803299Y-88491348D03*
X156520457Y-88774190D03*
X156237614Y-89057033D03*
X155954771Y-89339876D03*
X155671929Y-89622718D03*
X155389086Y-89905561D03*
D23*
X154796884Y-85636404D03*
%TD*%
D24*
%TO.C,SW2*%
X134559645Y-75173494D03*
X142509645Y-75173494D03*
X142509645Y-79673494D03*
X134559645Y-79673494D03*
%TD*%
%TO.C,SW1*%
X123509645Y-75173494D03*
X131459645Y-75173494D03*
X131459645Y-79673494D03*
X123509645Y-79673494D03*
%TD*%
D25*
%TO.C,R8*%
X144388228Y-78362212D03*
X144388228Y-80012212D03*
%TD*%
D26*
%TO.C,R7*%
X166439126Y-85242752D03*
X166439126Y-83592752D03*
%TD*%
D25*
%TO.C,R6*%
X166447916Y-80567090D03*
X166447916Y-82217090D03*
%TD*%
D27*
%TO.C,R5*%
X169937743Y-88316774D03*
X168287743Y-88316774D03*
%TD*%
%TO.C,R4*%
X169945529Y-86807591D03*
X168295529Y-86807591D03*
%TD*%
D28*
%TO.C,R3*%
X153122097Y-79706412D03*
X151955371Y-80873138D03*
%TD*%
D29*
%TO.C,R2*%
X160701837Y-96522003D03*
X162351837Y-96522003D03*
%TD*%
D25*
%TO.C,R1*%
X123318505Y-81433393D03*
X123318505Y-83083393D03*
%TD*%
D30*
%TO.C,LED5*%
X167238342Y-98376575D03*
D31*
X167238342Y-99876575D03*
X172688342Y-98376575D03*
X172688342Y-99876575D03*
%TD*%
D30*
%TO.C,LED3*%
X148163012Y-98376575D03*
D31*
X148163012Y-99876575D03*
X153613012Y-98376575D03*
X153613012Y-99876575D03*
%TD*%
%TO.C,LED1*%
X134588342Y-99876575D03*
X134588342Y-98376575D03*
X129138342Y-99876575D03*
D30*
X129138342Y-98376575D03*
%TD*%
D32*
%TO.C,J2*%
X176284217Y-84409247D03*
D33*
X169084217Y-84409247D03*
D34*
X169934217Y-85069247D03*
X170434217Y-85069247D03*
X170934217Y-85069247D03*
X171434217Y-85069247D03*
X171934217Y-85069247D03*
X172434217Y-85069247D03*
X172934217Y-85069247D03*
X173434217Y-85069247D03*
X173934217Y-85069247D03*
X174434217Y-85069247D03*
X174934217Y-85069247D03*
X175434217Y-85069247D03*
X175184217Y-83369247D03*
X174684217Y-83369247D03*
X174184217Y-83369247D03*
X173684217Y-83369247D03*
X173184217Y-83369247D03*
X172684217Y-83369247D03*
X172184217Y-83369247D03*
X171684217Y-83369247D03*
X171184217Y-83369247D03*
X170684217Y-83369247D03*
X170184217Y-83369247D03*
X169684217Y-83369247D03*
D35*
X177174217Y-77209247D03*
X168194217Y-77209247D03*
X168554217Y-83159247D03*
X176814217Y-83159247D03*
%TD*%
D36*
%TO.C,IC1*%
X160050406Y-94156466D03*
D37*
X161450406Y-94906466D03*
X161450406Y-94406466D03*
X161450406Y-93906466D03*
X161450406Y-93406466D03*
X158650406Y-93406466D03*
X158650406Y-93906466D03*
X158650406Y-94406466D03*
X158650406Y-94906466D03*
%TD*%
D38*
%TO.C,C16*%
X163391799Y-85065596D03*
X163391799Y-86025596D03*
%TD*%
%TO.C,C15*%
X164374234Y-85073922D03*
X164374234Y-86033922D03*
%TD*%
D39*
%TO.C,C14*%
X163396822Y-84150628D03*
X163396822Y-83190628D03*
%TD*%
D38*
%TO.C,C13*%
X162409364Y-85068488D03*
X162409364Y-86028488D03*
%TD*%
D39*
%TO.C,C12*%
X161422972Y-84141648D03*
X161422972Y-83181648D03*
%TD*%
%TO.C,C11*%
X178906924Y-92035436D03*
X178906924Y-92995436D03*
%TD*%
%TO.C,C10*%
X162414387Y-84141648D03*
X162414387Y-83181648D03*
%TD*%
D38*
%TO.C,C9*%
X164354373Y-86954344D03*
X164354373Y-87914344D03*
%TD*%
D39*
%TO.C,C8*%
X164379258Y-84142303D03*
X164379258Y-83182303D03*
%TD*%
D38*
%TO.C,C7*%
X163380518Y-86949524D03*
X163380518Y-87909524D03*
%TD*%
%TO.C,C6*%
X178907374Y-96156257D03*
X178907374Y-95196257D03*
%TD*%
%TO.C,C5*%
X162398004Y-86949784D03*
X162398004Y-87909784D03*
%TD*%
%TO.C,C4*%
X161437287Y-85068232D03*
X161437287Y-86028232D03*
%TD*%
D40*
%TO.C,C3*%
X146441633Y-82393254D03*
X147120455Y-83072076D03*
%TD*%
%TO.C,C2*%
X151571406Y-77280163D03*
X152250228Y-77958985D03*
%TD*%
D38*
%TO.C,C1*%
X163565221Y-95869696D03*
X163565221Y-96829696D03*
%TD*%
M02*
