%TF.GenerationSoftware,KiCad,Pcbnew,6.0.9*%
%TF.CreationDate,2023-01-02T19:50:32+01:00*%
%TF.ProjectId,macropad,6d616372-6f70-4616-942e-6b696361645f,rev?*%
%TF.SameCoordinates,Original*%
%TF.FileFunction,Copper,L1,Top*%
%TF.FilePolarity,Positive*%
%FSLAX46Y46*%
G04 Gerber Fmt 4.6, Leading zero omitted, Abs format (unit mm)*
G04 Created by KiCad (PCBNEW 6.0.9) date 2023-01-02 19:50:32*
%MOMM*%
%LPD*%
G01*
G04 APERTURE LIST*
%TA.AperFunction,ComponentPad*%
%ADD10R,1.700000X1.700000*%
%TD*%
%TA.AperFunction,ComponentPad*%
%ADD11O,1.700000X1.700000*%
%TD*%
%TA.AperFunction,ComponentPad*%
%ADD12O,0.800000X1.400000*%
%TD*%
%TA.AperFunction,ViaPad*%
%ADD13C,0.800000*%
%TD*%
%TA.AperFunction,Conductor*%
%ADD14C,0.200000*%
%TD*%
%TA.AperFunction,Conductor*%
%ADD15C,0.250000*%
%TD*%
G04 APERTURE END LIST*
D10*
%TO.P,J1,1,Pin_1*%
%TO.N,+3.3V*%
X164258551Y-76090737D03*
D11*
%TO.P,J1,2,Pin_2*%
%TO.N,Net-(U1-Pad25)*%
X161718551Y-76090737D03*
%TO.P,J1,3,Pin_3*%
%TO.N,Net-(U1-Pad24)*%
X159178551Y-76090737D03*
%TO.P,J1,4,Pin_4*%
%TO.N,GND*%
X156638551Y-76090737D03*
%TD*%
D12*
%TO.P,J2,S1,SHIELD*%
%TO.N,GND*%
X177174217Y-77209247D03*
X168194217Y-77209247D03*
X168554217Y-83159247D03*
X176814217Y-83159247D03*
%TD*%
D13*
%TO.N,GND*%
X161482892Y-86979018D03*
X175675649Y-82266096D03*
X167906095Y-84774388D03*
X177720866Y-85977514D03*
X169860832Y-81680963D03*
X149610387Y-83889316D03*
X155610898Y-84799319D03*
X153998016Y-84819649D03*
X154011569Y-86391871D03*
X155610898Y-86398648D03*
X154811234Y-87205089D03*
X154743465Y-83999655D03*
X154770573Y-84819649D03*
X154804457Y-86398648D03*
X153157690Y-85585430D03*
X153991239Y-85619314D03*
X156464777Y-85592206D03*
X155624452Y-85592206D03*
X154797680Y-85626090D03*
X163881611Y-116639903D03*
X146472993Y-74559784D03*
X172656195Y-77228457D03*
X161427630Y-80753118D03*
X148386381Y-88859841D03*
X143502207Y-85637293D03*
X146573698Y-86845748D03*
X154800290Y-93726526D03*
X159433402Y-92153016D03*
X164445322Y-93522552D03*
X177562805Y-110544937D03*
X177562805Y-130864937D03*
X164862805Y-130864937D03*
X149622805Y-130864937D03*
X131842805Y-130864937D03*
X131842805Y-110544937D03*
X149622805Y-110544937D03*
X164862805Y-110544937D03*
%TO.N,/QSPI_SS*%
X123558677Y-84734163D03*
X154879002Y-91370218D03*
%TO.N,Net-(U1-Pad26)*%
X145694050Y-79377131D03*
X154755004Y-82359826D03*
%TO.N,Net-(U1-Pad23)*%
X158485221Y-88907222D03*
X151030694Y-81953948D03*
%TO.N,Net-(U1-Pad47)*%
X166866173Y-87705549D03*
%TO.N,Net-(U1-Pad46)*%
X166885693Y-86696784D03*
X159952224Y-87954624D03*
%TO.N,Net-(U1-Pad47)*%
X159502665Y-88847317D03*
%TO.N,/LED*%
X129117660Y-99886895D03*
X130688899Y-86807392D03*
%TO.N,/MUX1 S0*%
X128124250Y-92262248D03*
%TO.N,/MUX1 S1*%
X126854250Y-92262248D03*
X128152686Y-87252413D03*
%TO.N,/MUX1 S0*%
X129381445Y-87183603D03*
%TO.N,Net-(LED5-Pad2)*%
X172992396Y-117418697D03*
X173090435Y-98354726D03*
%TO.N,+5V*%
X157462948Y-115845080D03*
X157242805Y-101668871D03*
%TO.N,+3.3V*%
X136922805Y-125784937D03*
X138137868Y-106680000D03*
%TO.N,Net-(U8-Pad2)*%
X155222887Y-95599531D03*
%TO.N,Net-(U7-Pad2)*%
X156189112Y-95080811D03*
%TO.N,Net-(U4-Pad2)*%
X137056801Y-96685069D03*
%TO.N,Net-(U6-Pad7)*%
X136057576Y-96661487D03*
%TO.N,Net-(U3-Pad2)*%
X125083500Y-96028539D03*
%TO.N,Net-(U2-Pad2)*%
X126093813Y-96089977D03*
%TO.N,Net-(U4-Pad2)*%
X141872532Y-105334664D03*
%TO.N,Net-(U7-Pad2)*%
X161305982Y-105334664D03*
%TO.N,Net-(U6-Pad7)*%
X143130894Y-124373026D03*
%TO.N,Net-(U8-Pad2)*%
X159900214Y-124367910D03*
%TO.N,Net-(U3-Pad2)*%
X124222805Y-123244937D03*
%TO.N,Net-(U2-Pad2)*%
X126844862Y-105334664D03*
%TD*%
D14*
%TO.N,Net-(U1-Pad23)*%
X157812638Y-89579805D02*
X158485221Y-88907222D01*
X151909861Y-86118037D02*
X155371629Y-89579805D01*
X155371629Y-89579805D02*
X157812638Y-89579805D01*
X151909861Y-85232736D02*
X151909861Y-86118037D01*
X152654639Y-84487958D02*
X151909861Y-85232736D01*
X152654639Y-83577893D02*
X152654639Y-84487958D01*
X151030694Y-81953948D02*
X152654639Y-83577893D01*
%TO.N,/QSPI_SS*%
X132126780Y-91832486D02*
X134166515Y-93872221D01*
X123558677Y-84734163D02*
X123984153Y-85159639D01*
X130815521Y-85159639D02*
X132126780Y-86470898D01*
X123984153Y-85159639D02*
X130815521Y-85159639D01*
X132126780Y-86470898D02*
X132126780Y-91832486D01*
X134166515Y-93872221D02*
X152376999Y-93872221D01*
X152376999Y-93872221D02*
X154879002Y-91370218D01*
%TO.N,Net-(U1-Pad26)*%
X149031497Y-75559560D02*
X151701453Y-75559560D01*
X145694050Y-78897007D02*
X149031497Y-75559560D01*
X145694050Y-78897007D02*
X145694050Y-79377131D01*
X151701453Y-75559560D02*
X154755004Y-78613111D01*
X154755004Y-82359826D02*
X154755004Y-78613111D01*
%TO.N,Net-(U1-Pad47)*%
X159502665Y-88847317D02*
X160339093Y-89683745D01*
X160339093Y-89683745D02*
X164464419Y-89683745D01*
X164464419Y-89683745D02*
X166442615Y-87705549D01*
X166442615Y-87705549D02*
X166866173Y-87705549D01*
%TO.N,Net-(U1-Pad46)*%
X166885693Y-86696784D02*
X164298733Y-89283745D01*
X164298733Y-89283745D02*
X161294691Y-89283745D01*
X159965570Y-87954624D02*
X159952224Y-87954624D01*
X161294691Y-89283745D02*
X159965570Y-87954624D01*
%TO.N,/LED*%
X128565603Y-99886895D02*
X129117660Y-99886895D01*
X127150073Y-98471365D02*
X128565603Y-99886895D01*
X127150073Y-95243955D02*
X130688899Y-91705129D01*
X130688899Y-86807392D02*
X130688899Y-91705129D01*
X127150073Y-95243955D02*
X127150073Y-98471365D01*
%TO.N,/MUX1 S1*%
X126854250Y-92262248D02*
X126854250Y-92255713D01*
X126854250Y-92255713D02*
X128152686Y-90957277D01*
X128152686Y-90957277D02*
X128152686Y-87252413D01*
%TO.N,/MUX1 S0*%
X128124250Y-92262248D02*
X129381445Y-91005053D01*
X129381445Y-91005053D02*
X129381445Y-87183603D01*
D15*
%TO.N,+5V*%
X157462948Y-115845080D02*
X158843597Y-114464431D01*
X158843597Y-114464431D02*
X158843597Y-103269663D01*
X158843597Y-103269663D02*
X157242805Y-101668871D01*
%TO.N,Net-(LED5-Pad2)*%
X173090435Y-98354726D02*
X174235798Y-99500089D01*
X174235798Y-99500089D02*
X174235798Y-116175295D01*
X174235798Y-116175295D02*
X172992396Y-117418697D01*
%TO.N,+3.3V*%
X136922805Y-125784937D02*
X136934439Y-125784937D01*
X136934439Y-125784937D02*
X139760207Y-122959169D01*
X139760207Y-122959169D02*
X139760207Y-107989423D01*
X139760207Y-107989423D02*
X138450784Y-106680000D01*
X138450784Y-106680000D02*
X138137868Y-106680000D01*
%TO.N,Net-(U3-Pad2)*%
X125083500Y-96028539D02*
X124222805Y-96889234D01*
X124222805Y-96889234D02*
X124222805Y-123244937D01*
%TO.N,Net-(U2-Pad2)*%
X126640487Y-105334664D02*
X126069194Y-104763371D01*
X126844862Y-105334664D02*
X126640487Y-105334664D01*
X126069194Y-104763371D02*
X126069194Y-96114596D01*
X126069194Y-96114596D02*
X126093813Y-96089977D01*
%TO.N,Net-(U6-Pad7)*%
X136057576Y-96661487D02*
X136057576Y-96711149D01*
X136057576Y-96711149D02*
X137195418Y-97848991D01*
X137195418Y-97848991D02*
X139490754Y-97848991D01*
X139490754Y-97848991D02*
X139494808Y-97844937D01*
X139494808Y-97844937D02*
X140243580Y-98593709D01*
X140243580Y-98593709D02*
X140243580Y-121485712D01*
X140243580Y-121485712D02*
X143130894Y-124373026D01*
%TO.N,Net-(U4-Pad2)*%
X141872532Y-105334664D02*
X140693580Y-104155712D01*
X140693580Y-104155712D02*
X140693580Y-98347983D01*
X140693580Y-98347983D02*
X139030666Y-96685069D01*
X139030666Y-96685069D02*
X137056801Y-96685069D01*
%TO.N,Net-(U8-Pad2)*%
X159900214Y-124367910D02*
X159293597Y-123761293D01*
X159293597Y-96981493D02*
X158117915Y-95805811D01*
X159293597Y-123761293D02*
X159293597Y-96981493D01*
X155429167Y-95805811D02*
X155222887Y-95599531D01*
X158117915Y-95805811D02*
X155429167Y-95805811D01*
%TO.N,Net-(U7-Pad2)*%
X161305982Y-105334664D02*
X159782805Y-103811487D01*
X159782805Y-103811487D02*
X159782805Y-96834305D01*
X159782805Y-96834305D02*
X158029311Y-95080811D01*
X158029311Y-95080811D02*
X156189112Y-95080811D01*
%TD*%
%TA.AperFunction,Conductor*%
%TO.N,GND*%
G36*
X179790426Y-72719439D02*
G01*
X179836919Y-72773095D01*
X179848305Y-72825437D01*
X179848305Y-133024437D01*
X179828303Y-133092558D01*
X179774647Y-133139051D01*
X179722305Y-133150437D01*
X122063305Y-133150437D01*
X121995184Y-133130435D01*
X121948691Y-133076779D01*
X121937305Y-133024437D01*
X121937305Y-123238033D01*
X123563534Y-123238033D01*
X123580918Y-123395490D01*
X123635358Y-123544256D01*
X123639594Y-123550559D01*
X123639594Y-123550560D01*
X123640501Y-123551909D01*
X123723713Y-123675742D01*
X123729332Y-123680855D01*
X123729333Y-123680856D01*
X123773663Y-123721193D01*
X123840881Y-123782356D01*
X123980098Y-123857945D01*
X124133327Y-123898144D01*
X124217282Y-123899463D01*
X124284124Y-123900513D01*
X124284127Y-123900513D01*
X124291721Y-123900632D01*
X124446137Y-123865266D01*
X124492266Y-123842066D01*
X131140437Y-123842066D01*
X131154034Y-123842067D01*
X131154035Y-123842067D01*
X132567024Y-123842155D01*
X132585139Y-123842156D01*
X132584896Y-123422632D01*
X132584456Y-122664324D01*
X132584456Y-122664322D01*
X132584445Y-122646209D01*
X131142508Y-122642977D01*
X131141437Y-123262828D01*
X131140586Y-123755949D01*
X131140437Y-123842066D01*
X124492266Y-123842066D01*
X124523174Y-123826521D01*
X124580877Y-123797500D01*
X124580880Y-123797498D01*
X124587660Y-123794088D01*
X124593431Y-123789159D01*
X124593434Y-123789157D01*
X124702341Y-123696141D01*
X124702341Y-123696140D01*
X124708119Y-123691206D01*
X124800560Y-123562561D01*
X124859647Y-123415578D01*
X124881967Y-123258744D01*
X124882112Y-123244937D01*
X124863081Y-123087670D01*
X124807085Y-122939483D01*
X124717358Y-122808929D01*
X124644486Y-122744002D01*
X124606931Y-122683753D01*
X124602305Y-122649926D01*
X124602305Y-119283363D01*
X129788622Y-119283363D01*
X129789172Y-119290029D01*
X129789172Y-119290037D01*
X129799830Y-119419298D01*
X129801836Y-119443628D01*
X129848532Y-119597508D01*
X129926610Y-119738090D01*
X129931018Y-119743123D01*
X129931019Y-119743124D01*
X130028155Y-119854025D01*
X130028159Y-119854028D01*
X130032564Y-119859058D01*
X130161633Y-119954978D01*
X130201370Y-119973046D01*
X130301924Y-120018769D01*
X130301927Y-120018770D01*
X130308019Y-120021540D01*
X130314555Y-120022963D01*
X130314557Y-120022964D01*
X130400446Y-120041667D01*
X130465145Y-120055756D01*
X130471839Y-120055770D01*
X130471841Y-120055770D01*
X130543564Y-120055917D01*
X130625954Y-120056086D01*
X130783220Y-120022517D01*
X130789322Y-120019773D01*
X130789327Y-120019771D01*
X130916204Y-119962707D01*
X130916206Y-119962706D01*
X130921584Y-119960287D01*
X130930290Y-119957281D01*
X130939580Y-119949048D01*
X130947811Y-119944239D01*
X130978454Y-119931407D01*
X130997033Y-119926378D01*
X131029961Y-119922001D01*
X131039449Y-119922002D01*
X131051619Y-119924423D01*
X131063790Y-119922003D01*
X131064530Y-119921856D01*
X131089101Y-119919437D01*
X132603050Y-119919437D01*
X132627641Y-119921860D01*
X132640521Y-119924423D01*
X132652691Y-119922003D01*
X132662234Y-119922004D01*
X132695164Y-119926386D01*
X132713225Y-119931278D01*
X132743506Y-119943905D01*
X132753020Y-119949424D01*
X132761862Y-119957262D01*
X132761873Y-119957266D01*
X132761881Y-119957273D01*
X132771601Y-119960630D01*
X132772703Y-119961126D01*
X132773792Y-119961774D01*
X132776780Y-119962959D01*
X132886989Y-120012529D01*
X132900893Y-120018783D01*
X132908992Y-120022426D01*
X133066241Y-120055995D01*
X133147077Y-120055830D01*
X133220336Y-120055681D01*
X133220339Y-120055681D01*
X133227033Y-120055667D01*
X133233575Y-120054243D01*
X133233580Y-120054242D01*
X133334934Y-120032173D01*
X133384144Y-120021458D01*
X133390230Y-120018691D01*
X133390235Y-120018689D01*
X133452336Y-119990451D01*
X133530516Y-119954903D01*
X133543051Y-119945588D01*
X133571530Y-119924423D01*
X133659572Y-119858994D01*
X133721888Y-119787849D01*
X133761107Y-119743073D01*
X133761108Y-119743071D01*
X133765516Y-119738039D01*
X133843586Y-119597471D01*
X133845530Y-119591065D01*
X133845532Y-119591060D01*
X133888333Y-119450011D01*
X133888333Y-119450008D01*
X133890276Y-119443607D01*
X133893011Y-119410436D01*
X133902938Y-119290032D01*
X133902938Y-119290029D01*
X133903488Y-119283358D01*
X133882629Y-119123925D01*
X133880375Y-119117601D01*
X133834154Y-118987948D01*
X133834153Y-118987946D01*
X133831675Y-118980995D01*
X133831553Y-118980521D01*
X133829386Y-118972114D01*
X133829385Y-118972113D01*
X133829384Y-118972109D01*
X133821783Y-118962005D01*
X133817643Y-118953324D01*
X133808531Y-118927118D01*
X133806311Y-118917388D01*
X133803154Y-118889352D01*
X133803155Y-118879965D01*
X133805577Y-118867790D01*
X133803011Y-118854886D01*
X133800591Y-118830311D01*
X133800591Y-117499574D01*
X133803012Y-117474991D01*
X133803156Y-117474267D01*
X133803156Y-117474266D01*
X133805577Y-117462097D01*
X133803156Y-117449926D01*
X133803156Y-117440483D01*
X133806315Y-117412448D01*
X133808479Y-117402966D01*
X133817750Y-117376432D01*
X133821999Y-117367589D01*
X133829369Y-117357795D01*
X133829372Y-117357783D01*
X133829381Y-117357771D01*
X133831669Y-117348897D01*
X133882642Y-117205968D01*
X133889246Y-117155538D01*
X133902652Y-117053154D01*
X133902652Y-117053150D01*
X133903521Y-117046516D01*
X133893157Y-116920667D01*
X133890872Y-116892921D01*
X133890871Y-116892916D01*
X133890322Y-116886246D01*
X133888376Y-116879830D01*
X133845581Y-116738766D01*
X133845580Y-116738764D01*
X133843637Y-116732359D01*
X133840383Y-116726498D01*
X133768818Y-116597629D01*
X133765564Y-116591769D01*
X133659612Y-116470795D01*
X133576314Y-116408889D01*
X133535917Y-116378866D01*
X133535915Y-116378865D01*
X133530541Y-116374871D01*
X133384151Y-116308307D01*
X133377570Y-116306874D01*
X133328929Y-116296284D01*
X133227019Y-116274096D01*
X133147778Y-116273937D01*
X133072905Y-116273786D01*
X133072901Y-116273786D01*
X133066207Y-116273773D01*
X133059656Y-116275172D01*
X133059654Y-116275172D01*
X133012809Y-116285175D01*
X132908939Y-116307354D01*
X132900628Y-116311093D01*
X132775761Y-116367267D01*
X132773034Y-116368349D01*
X132772081Y-116368923D01*
X132770576Y-116369600D01*
X132761879Y-116372603D01*
X132761872Y-116372609D01*
X132761864Y-116372612D01*
X132753688Y-116379860D01*
X132747868Y-116383197D01*
X132747795Y-116383280D01*
X132747477Y-116383421D01*
X132742547Y-116386247D01*
X132742251Y-116385731D01*
X132712929Y-116398699D01*
X132695235Y-116403490D01*
X132662311Y-116407871D01*
X132652692Y-116407872D01*
X132640522Y-116405452D01*
X132627642Y-116408015D01*
X132603051Y-116410438D01*
X131089106Y-116410438D01*
X131064535Y-116408019D01*
X131063791Y-116407871D01*
X131063790Y-116407871D01*
X131051619Y-116405451D01*
X131039448Y-116407873D01*
X131029896Y-116407874D01*
X130996970Y-116403498D01*
X130978521Y-116398505D01*
X130947742Y-116385595D01*
X130939549Y-116380794D01*
X130930314Y-116372608D01*
X130930291Y-116372600D01*
X130930272Y-116372583D01*
X130921765Y-116369647D01*
X130791596Y-116311093D01*
X130789353Y-116310084D01*
X130789352Y-116310084D01*
X130783246Y-116307337D01*
X130776701Y-116305940D01*
X130776699Y-116305939D01*
X130701120Y-116289803D01*
X130625978Y-116273760D01*
X130544939Y-116273924D01*
X130471863Y-116274071D01*
X130471859Y-116274071D01*
X130465166Y-116274085D01*
X130458623Y-116275510D01*
X130458620Y-116275510D01*
X130314578Y-116306874D01*
X130314575Y-116306875D01*
X130308035Y-116308299D01*
X130161646Y-116374864D01*
X130156276Y-116378855D01*
X130037948Y-116466797D01*
X130037945Y-116466799D01*
X130032576Y-116470790D01*
X129926625Y-116591765D01*
X129923375Y-116597618D01*
X129923374Y-116597619D01*
X129851804Y-116726498D01*
X129848552Y-116732354D01*
X129846610Y-116738755D01*
X129846608Y-116738760D01*
X129805058Y-116875721D01*
X129801867Y-116886241D01*
X129801317Y-116892914D01*
X129801317Y-116892916D01*
X129799861Y-116910594D01*
X129788667Y-117046511D01*
X129789536Y-117053148D01*
X129789536Y-117053150D01*
X129802940Y-117155524D01*
X129809544Y-117205963D01*
X129821378Y-117239146D01*
X129858604Y-117343530D01*
X129859055Y-117345001D01*
X129859324Y-117345550D01*
X129860513Y-117348884D01*
X129862805Y-117357774D01*
X129862810Y-117357781D01*
X129862813Y-117357792D01*
X129868982Y-117365989D01*
X129872824Y-117374230D01*
X129873991Y-117375480D01*
X129874108Y-117375720D01*
X129883691Y-117402897D01*
X129885869Y-117412440D01*
X129889028Y-117440476D01*
X129889028Y-117449926D01*
X129886607Y-117462098D01*
X129889028Y-117474267D01*
X129889028Y-117474268D01*
X129889172Y-117474992D01*
X129891593Y-117499575D01*
X129891593Y-118830273D01*
X129889168Y-118854873D01*
X129889165Y-118854887D01*
X129886607Y-118867739D01*
X129889026Y-118879908D01*
X129889024Y-118889400D01*
X129885868Y-118917402D01*
X129883952Y-118925801D01*
X129874975Y-118951724D01*
X129869598Y-118963074D01*
X129862798Y-118972113D01*
X129862792Y-118972135D01*
X129862781Y-118972150D01*
X129860692Y-118980259D01*
X129859028Y-118984928D01*
X129858936Y-118985115D01*
X129858780Y-118985622D01*
X129809482Y-119123913D01*
X129788622Y-119283363D01*
X124602305Y-119283363D01*
X124602305Y-97098618D01*
X124622307Y-97030497D01*
X124639210Y-97009523D01*
X124929678Y-96719055D01*
X124991990Y-96685029D01*
X125020752Y-96682166D01*
X125144818Y-96684115D01*
X125144821Y-96684115D01*
X125152416Y-96684234D01*
X125306832Y-96648868D01*
X125448355Y-96577690D01*
X125471649Y-96557795D01*
X125536437Y-96528766D01*
X125606637Y-96539371D01*
X125638273Y-96560411D01*
X125648491Y-96569708D01*
X125685415Y-96630346D01*
X125689694Y-96662904D01*
X125689694Y-104709451D01*
X125687145Y-104733399D01*
X125687066Y-104735064D01*
X125684874Y-104745247D01*
X125686098Y-104755588D01*
X125688821Y-104778594D01*
X125689171Y-104784525D01*
X125689266Y-104784517D01*
X125689694Y-104789695D01*
X125689694Y-104794895D01*
X125690548Y-104800024D01*
X125690548Y-104800027D01*
X125692863Y-104813936D01*
X125693700Y-104819814D01*
X125698217Y-104857975D01*
X125699724Y-104870712D01*
X125703687Y-104878964D01*
X125705190Y-104887997D01*
X125710137Y-104897166D01*
X125710138Y-104897168D01*
X125729528Y-104933103D01*
X125732225Y-104938396D01*
X125750979Y-104977453D01*
X125750982Y-104977457D01*
X125754413Y-104984603D01*
X125758008Y-104988879D01*
X125759931Y-104990802D01*
X125761703Y-104992734D01*
X125761746Y-104992813D01*
X125761622Y-104992926D01*
X125762098Y-104993466D01*
X125765184Y-104999185D01*
X125772829Y-105006252D01*
X125804780Y-105035787D01*
X125808346Y-105039217D01*
X126165311Y-105396182D01*
X126199337Y-105458494D01*
X126201455Y-105471449D01*
X126202975Y-105485217D01*
X126257415Y-105633983D01*
X126345770Y-105765469D01*
X126351389Y-105770582D01*
X126351390Y-105770583D01*
X126362765Y-105780933D01*
X126462938Y-105872083D01*
X126602155Y-105947672D01*
X126755384Y-105987871D01*
X126839339Y-105989190D01*
X126906181Y-105990240D01*
X126906184Y-105990240D01*
X126913778Y-105990359D01*
X127068194Y-105954993D01*
X127138604Y-105919581D01*
X127202934Y-105887227D01*
X127202937Y-105887225D01*
X127209717Y-105883815D01*
X127215488Y-105878886D01*
X127215491Y-105878884D01*
X127324398Y-105785868D01*
X127324398Y-105785867D01*
X127330176Y-105780933D01*
X127422617Y-105652288D01*
X127481704Y-105505305D01*
X127504024Y-105348471D01*
X127504169Y-105334664D01*
X127502423Y-105320231D01*
X127486050Y-105184937D01*
X127485138Y-105177397D01*
X127429142Y-105029210D01*
X127409849Y-105001139D01*
X127343717Y-104904915D01*
X127343716Y-104904913D01*
X127339415Y-104898656D01*
X127232841Y-104803703D01*
X131157687Y-104803703D01*
X131171284Y-104803704D01*
X131171285Y-104803704D01*
X132584274Y-104803792D01*
X132602389Y-104803793D01*
X132601907Y-103973111D01*
X132601706Y-103625961D01*
X132601706Y-103625959D01*
X132601695Y-103607846D01*
X131159758Y-103604614D01*
X131159168Y-103946328D01*
X131157827Y-104722860D01*
X131157687Y-104803703D01*
X127232841Y-104803703D01*
X127221137Y-104793275D01*
X127081136Y-104719148D01*
X126927495Y-104680556D01*
X126919896Y-104680516D01*
X126919895Y-104680516D01*
X126854043Y-104680171D01*
X126769083Y-104679726D01*
X126761703Y-104681498D01*
X126761701Y-104681498D01*
X126734840Y-104687947D01*
X126638643Y-104711042D01*
X126567736Y-104707495D01*
X126520135Y-104677618D01*
X126485599Y-104643082D01*
X126451573Y-104580770D01*
X126448694Y-104553987D01*
X126448694Y-96705734D01*
X126468696Y-96637613D01*
X126492863Y-96609923D01*
X126549103Y-96561889D01*
X126579127Y-96536246D01*
X126579417Y-96535843D01*
X126637656Y-96500797D01*
X126708622Y-96502891D01*
X126767190Y-96543020D01*
X126794765Y-96608443D01*
X126795573Y-96622688D01*
X126795573Y-98420108D01*
X126793467Y-98439902D01*
X126793262Y-98444255D01*
X126791070Y-98454435D01*
X126792294Y-98464773D01*
X126794700Y-98485102D01*
X126795015Y-98490448D01*
X126795145Y-98490437D01*
X126795573Y-98495617D01*
X126795573Y-98500816D01*
X126796426Y-98505940D01*
X126796427Y-98505953D01*
X126798500Y-98518406D01*
X126799337Y-98524281D01*
X126804942Y-98571635D01*
X126808643Y-98579343D01*
X126810048Y-98587782D01*
X126832702Y-98629766D01*
X126835383Y-98635029D01*
X126856028Y-98678023D01*
X126859384Y-98682015D01*
X126861331Y-98683962D01*
X126862821Y-98685587D01*
X126863054Y-98686019D01*
X126863018Y-98686052D01*
X126863157Y-98686210D01*
X126866090Y-98691645D01*
X126873737Y-98698714D01*
X126902954Y-98725722D01*
X126906520Y-98729151D01*
X128278687Y-100101318D01*
X128291195Y-100116804D01*
X128294129Y-100120029D01*
X128299778Y-100128777D01*
X128324033Y-100147898D01*
X128328036Y-100151456D01*
X128328121Y-100151356D01*
X128332078Y-100154709D01*
X128335759Y-100158390D01*
X128339991Y-100161414D01*
X128339993Y-100161416D01*
X128350268Y-100168759D01*
X128355012Y-100172321D01*
X128384278Y-100195392D01*
X128384282Y-100195394D01*
X128392460Y-100201841D01*
X128400528Y-100204674D01*
X128407488Y-100209648D01*
X128417466Y-100212632D01*
X128453189Y-100223315D01*
X128458838Y-100225151D01*
X128503811Y-100240945D01*
X128509007Y-100241395D01*
X128510621Y-100241395D01*
X128519459Y-100243298D01*
X128518930Y-100245757D01*
X128572531Y-100264048D01*
X128604472Y-100296724D01*
X128614329Y-100311393D01*
X128614333Y-100311398D01*
X128618568Y-100317700D01*
X128624187Y-100322813D01*
X128624188Y-100322814D01*
X128721849Y-100411678D01*
X128735736Y-100424314D01*
X128874953Y-100499903D01*
X129028182Y-100540102D01*
X129112137Y-100541421D01*
X129178979Y-100542471D01*
X129178982Y-100542471D01*
X129186576Y-100542590D01*
X129340992Y-100507224D01*
X129425954Y-100464493D01*
X129475732Y-100439458D01*
X129475735Y-100439456D01*
X129482515Y-100436046D01*
X129488286Y-100431117D01*
X129488289Y-100431115D01*
X129566815Y-100364046D01*
X129602974Y-100333164D01*
X129603759Y-100332071D01*
X129662309Y-100296841D01*
X129733275Y-100298936D01*
X129791842Y-100339066D01*
X129817996Y-100395139D01*
X129818653Y-100398587D01*
X129819204Y-100405271D01*
X129865887Y-100559141D01*
X129869136Y-100564991D01*
X129869137Y-100564994D01*
X129869147Y-100565012D01*
X129943951Y-100699714D01*
X130049890Y-100820677D01*
X130178944Y-100916595D01*
X130241155Y-100944886D01*
X130319218Y-100980386D01*
X130319223Y-100980388D01*
X130325315Y-100983158D01*
X130388725Y-100996968D01*
X130475887Y-101015952D01*
X130475890Y-101015952D01*
X130482427Y-101017376D01*
X130489119Y-101017390D01*
X130567907Y-101017555D01*
X130643221Y-101017712D01*
X130649766Y-101016315D01*
X130649768Y-101016315D01*
X130793927Y-100985549D01*
X130793932Y-100985547D01*
X130800475Y-100984151D01*
X130806584Y-100981404D01*
X130806586Y-100981403D01*
X130931101Y-100925406D01*
X130931104Y-100925404D01*
X130938869Y-100921912D01*
X130947542Y-100918917D01*
X130947543Y-100918916D01*
X130947544Y-100918916D01*
X130952156Y-100914829D01*
X130952565Y-100914645D01*
X130953444Y-100913979D01*
X130996590Y-100892799D01*
X131014244Y-100888019D01*
X131047174Y-100883640D01*
X131056723Y-100883640D01*
X131068895Y-100886061D01*
X131081065Y-100883640D01*
X131081066Y-100883640D01*
X131081790Y-100883496D01*
X131106373Y-100881075D01*
X132620317Y-100881075D01*
X132644897Y-100883496D01*
X132645626Y-100883641D01*
X132657798Y-100886062D01*
X132669970Y-100883641D01*
X132679518Y-100883641D01*
X132712443Y-100888019D01*
X132731507Y-100893180D01*
X132757331Y-100903336D01*
X132767761Y-100908833D01*
X132779137Y-100918915D01*
X132779141Y-100918916D01*
X132779145Y-100918920D01*
X132787299Y-100921735D01*
X132795895Y-100925601D01*
X132920088Y-100981457D01*
X132920091Y-100981458D01*
X132926190Y-100984201D01*
X133083458Y-101017769D01*
X133161040Y-101017608D01*
X133237574Y-101017450D01*
X133237575Y-101017450D01*
X133244267Y-101017436D01*
X133401395Y-100983217D01*
X133547780Y-100916649D01*
X133553176Y-100912639D01*
X133671473Y-100824717D01*
X133676846Y-100820724D01*
X133725045Y-100765691D01*
X133778387Y-100704785D01*
X133778390Y-100704781D01*
X133782796Y-100699750D01*
X133860867Y-100559163D01*
X133907554Y-100405280D01*
X133909560Y-100380930D01*
X133920209Y-100251692D01*
X133920209Y-100251689D01*
X133920759Y-100245013D01*
X133899888Y-100085563D01*
X133888057Y-100052381D01*
X133850898Y-99948168D01*
X133850897Y-99948166D01*
X133848916Y-99942610D01*
X133846627Y-99933734D01*
X133846624Y-99933730D01*
X133846623Y-99933726D01*
X133839252Y-99923929D01*
X133834988Y-99915056D01*
X133825716Y-99888522D01*
X133823566Y-99879102D01*
X133820407Y-99851070D01*
X133820407Y-99841579D01*
X133822827Y-99829409D01*
X133820263Y-99816520D01*
X133817841Y-99791936D01*
X133817841Y-98461237D01*
X133820265Y-98436639D01*
X133820405Y-98435936D01*
X133822827Y-98423768D01*
X133820409Y-98411600D01*
X133820410Y-98402106D01*
X133823564Y-98374111D01*
X133824836Y-98368533D01*
X133825476Y-98365727D01*
X133834455Y-98339795D01*
X133839837Y-98328435D01*
X133846636Y-98319398D01*
X133846641Y-98319380D01*
X133846652Y-98319365D01*
X133848916Y-98310577D01*
X133849914Y-98307779D01*
X133850252Y-98307092D01*
X133850825Y-98305222D01*
X133899892Y-98167579D01*
X133920750Y-98008138D01*
X133913894Y-97924977D01*
X133909543Y-97872211D01*
X133907537Y-97847882D01*
X133904343Y-97837354D01*
X133873283Y-97734997D01*
X133860846Y-97694011D01*
X133786039Y-97559314D01*
X133786024Y-97559287D01*
X133786022Y-97559284D01*
X133782774Y-97553436D01*
X133778354Y-97548389D01*
X133681237Y-97437506D01*
X133681233Y-97437502D01*
X133676828Y-97432473D01*
X133616347Y-97387523D01*
X133553141Y-97340548D01*
X133553138Y-97340546D01*
X133547769Y-97336556D01*
X133401393Y-97269993D01*
X133394853Y-97268569D01*
X133394851Y-97268568D01*
X133250817Y-97237199D01*
X133250812Y-97237198D01*
X133244276Y-97235775D01*
X133237584Y-97235761D01*
X133153285Y-97235585D01*
X133083477Y-97235439D01*
X132926219Y-97269000D01*
X132914000Y-97274495D01*
X132795101Y-97327963D01*
X132795098Y-97327965D01*
X132787815Y-97331240D01*
X132779147Y-97334233D01*
X132779146Y-97334234D01*
X132779134Y-97334238D01*
X132769593Y-97342694D01*
X132761081Y-97347607D01*
X132731023Y-97360101D01*
X132712441Y-97365132D01*
X132679513Y-97369511D01*
X132669969Y-97369511D01*
X132657797Y-97367090D01*
X132645625Y-97369511D01*
X132644901Y-97369655D01*
X132620321Y-97372076D01*
X131106373Y-97372076D01*
X131081790Y-97369655D01*
X131081066Y-97369511D01*
X131081065Y-97369511D01*
X131068895Y-97367090D01*
X131056723Y-97369511D01*
X131047183Y-97369511D01*
X131014252Y-97365131D01*
X130995635Y-97360090D01*
X130965583Y-97347597D01*
X130957099Y-97342700D01*
X130947556Y-97334242D01*
X130947541Y-97334237D01*
X130947530Y-97334227D01*
X130938974Y-97331273D01*
X130932824Y-97328508D01*
X130932818Y-97328504D01*
X130806576Y-97271738D01*
X130806573Y-97271737D01*
X130800464Y-97268990D01*
X130643206Y-97235433D01*
X130636518Y-97235447D01*
X130636517Y-97235447D01*
X130565024Y-97235598D01*
X130482409Y-97235772D01*
X130475871Y-97237196D01*
X130331835Y-97268568D01*
X130331830Y-97268570D01*
X130325295Y-97269993D01*
X130311160Y-97276421D01*
X130196630Y-97328504D01*
X130178921Y-97336557D01*
X130173552Y-97340548D01*
X130173551Y-97340548D01*
X130099166Y-97395833D01*
X130049864Y-97432475D01*
X130045458Y-97437506D01*
X129948330Y-97548402D01*
X129948327Y-97548407D01*
X129943921Y-97553437D01*
X129940673Y-97559285D01*
X129940671Y-97559288D01*
X129940657Y-97559314D01*
X129865850Y-97694011D01*
X129819159Y-97847880D01*
X129805946Y-98008134D01*
X129806814Y-98014769D01*
X129825934Y-98160935D01*
X129825935Y-98160940D01*
X129826803Y-98167574D01*
X129829052Y-98173883D01*
X129870996Y-98291549D01*
X129877758Y-98310520D01*
X129880046Y-98319396D01*
X129880051Y-98319402D01*
X129880052Y-98319407D01*
X129888565Y-98330722D01*
X129892969Y-98340552D01*
X129900826Y-98364047D01*
X129903124Y-98374121D01*
X129906280Y-98402154D01*
X129906279Y-98411545D01*
X129903857Y-98423716D01*
X129906277Y-98435886D01*
X129906424Y-98436625D01*
X129908843Y-98461198D01*
X129908843Y-99476700D01*
X129888841Y-99544821D01*
X129835185Y-99591314D01*
X129764911Y-99601418D01*
X129700331Y-99571924D01*
X129679003Y-99548067D01*
X129616515Y-99457146D01*
X129616514Y-99457144D01*
X129612213Y-99450887D01*
X129493935Y-99345506D01*
X129486549Y-99341595D01*
X129360648Y-99274934D01*
X129360649Y-99274934D01*
X129353934Y-99271379D01*
X129200293Y-99232787D01*
X129192694Y-99232747D01*
X129192693Y-99232747D01*
X129126841Y-99232402D01*
X129041881Y-99231957D01*
X129034501Y-99233729D01*
X129034499Y-99233729D01*
X128895223Y-99267166D01*
X128895220Y-99267167D01*
X128887844Y-99268938D01*
X128747074Y-99341595D01*
X128741357Y-99346582D01*
X128741350Y-99346587D01*
X128715369Y-99369252D01*
X128650887Y-99398960D01*
X128580580Y-99389090D01*
X128543445Y-99363398D01*
X127541478Y-98361432D01*
X127507453Y-98299120D01*
X127504573Y-98272337D01*
X127504573Y-96654583D01*
X135398305Y-96654583D01*
X135404388Y-96709679D01*
X135414667Y-96802781D01*
X135415689Y-96812040D01*
X135418299Y-96819171D01*
X135418299Y-96819173D01*
X135446000Y-96894869D01*
X135470129Y-96960806D01*
X135474365Y-96967109D01*
X135474365Y-96967110D01*
X135553296Y-97084571D01*
X135558484Y-97092292D01*
X135675652Y-97198906D01*
X135814869Y-97274495D01*
X135968098Y-97314694D01*
X136075894Y-97316387D01*
X136143691Y-97337456D01*
X136163009Y-97353276D01*
X136888940Y-98079207D01*
X136904082Y-98097955D01*
X136905197Y-98099180D01*
X136910847Y-98107931D01*
X136919025Y-98114378D01*
X136919027Y-98114380D01*
X136937218Y-98128720D01*
X136941659Y-98132666D01*
X136941721Y-98132593D01*
X136945685Y-98135952D01*
X136949362Y-98139629D01*
X136965110Y-98150883D01*
X136969780Y-98154389D01*
X137010065Y-98186147D01*
X137018699Y-98189179D01*
X137026152Y-98194505D01*
X137061242Y-98204999D01*
X137075276Y-98209196D01*
X137080924Y-98211031D01*
X137117193Y-98223768D01*
X137129269Y-98228009D01*
X137134834Y-98228491D01*
X137137541Y-98228491D01*
X137140173Y-98228605D01*
X137140274Y-98228635D01*
X137140267Y-98228798D01*
X137140967Y-98228842D01*
X137147196Y-98230705D01*
X137197977Y-98228709D01*
X137201068Y-98228588D01*
X137206016Y-98228491D01*
X139289478Y-98228491D01*
X139357599Y-98248493D01*
X139378573Y-98265396D01*
X139827175Y-98713998D01*
X139861201Y-98776310D01*
X139864080Y-98803093D01*
X139864080Y-107252411D01*
X139844078Y-107320532D01*
X139790422Y-107367025D01*
X139720148Y-107377129D01*
X139655568Y-107347635D01*
X139648997Y-107341518D01*
X138765700Y-106458222D01*
X138736931Y-106413667D01*
X138724834Y-106381653D01*
X138724832Y-106381650D01*
X138722148Y-106374546D01*
X138632421Y-106243992D01*
X138514143Y-106138611D01*
X138506757Y-106134700D01*
X138380856Y-106068039D01*
X138380857Y-106068039D01*
X138374142Y-106064484D01*
X138220501Y-106025892D01*
X138212902Y-106025852D01*
X138212901Y-106025852D01*
X138147049Y-106025507D01*
X138062089Y-106025062D01*
X138054709Y-106026834D01*
X138054707Y-106026834D01*
X137915431Y-106060271D01*
X137915428Y-106060272D01*
X137908052Y-106062043D01*
X137767282Y-106134700D01*
X137647907Y-106238838D01*
X137556818Y-106368444D01*
X137499274Y-106516037D01*
X137478597Y-106673096D01*
X137495981Y-106830553D01*
X137550421Y-106979319D01*
X137638776Y-107110805D01*
X137755944Y-107217419D01*
X137895161Y-107293008D01*
X138048390Y-107333207D01*
X138132345Y-107334526D01*
X138199187Y-107335576D01*
X138199190Y-107335576D01*
X138206784Y-107335695D01*
X138361200Y-107300329D01*
X138395120Y-107283269D01*
X138464964Y-107270531D01*
X138530608Y-107297575D01*
X138540829Y-107306739D01*
X139343802Y-108109712D01*
X139377828Y-108172024D01*
X139380707Y-108198807D01*
X139380707Y-122749785D01*
X139360705Y-122817906D01*
X139343802Y-122838880D01*
X137088790Y-125093892D01*
X137026478Y-125127918D01*
X136999035Y-125130795D01*
X136900650Y-125130280D01*
X136847026Y-125129999D01*
X136839646Y-125131771D01*
X136839644Y-125131771D01*
X136700368Y-125165208D01*
X136700365Y-125165209D01*
X136692989Y-125166980D01*
X136552219Y-125239637D01*
X136432844Y-125343775D01*
X136341755Y-125473381D01*
X136284211Y-125620974D01*
X136283219Y-125628507D01*
X136283219Y-125628508D01*
X136276864Y-125676783D01*
X136263534Y-125778033D01*
X136280918Y-125935490D01*
X136335358Y-126084256D01*
X136423713Y-126215742D01*
X136429332Y-126220855D01*
X136429333Y-126220856D01*
X136440708Y-126231206D01*
X136540881Y-126322356D01*
X136680098Y-126397945D01*
X136833327Y-126438144D01*
X136917282Y-126439463D01*
X136984124Y-126440513D01*
X136984127Y-126440513D01*
X136991721Y-126440632D01*
X137146137Y-126405266D01*
X137216547Y-126369854D01*
X137280877Y-126337500D01*
X137280880Y-126337498D01*
X137287660Y-126334088D01*
X137293431Y-126329159D01*
X137293434Y-126329157D01*
X137402341Y-126236141D01*
X137402341Y-126236140D01*
X137408119Y-126231206D01*
X137500560Y-126102561D01*
X137559647Y-125955578D01*
X137581967Y-125798744D01*
X137582112Y-125784937D01*
X137577498Y-125746811D01*
X137589170Y-125676783D01*
X137613490Y-125642580D01*
X139990423Y-123265647D01*
X140009171Y-123250505D01*
X140010396Y-123249390D01*
X140019147Y-123243740D01*
X140025594Y-123235562D01*
X140025596Y-123235560D01*
X140039936Y-123217369D01*
X140043885Y-123212925D01*
X140043811Y-123212863D01*
X140047164Y-123208906D01*
X140050845Y-123205225D01*
X140062072Y-123189515D01*
X140065628Y-123184778D01*
X140090915Y-123152701D01*
X140097363Y-123144522D01*
X140100396Y-123135885D01*
X140105720Y-123128435D01*
X140120409Y-123079320D01*
X140122241Y-123073683D01*
X140136597Y-123032802D01*
X140136597Y-123032801D01*
X140139225Y-123025318D01*
X140139707Y-123019753D01*
X140139707Y-123017045D01*
X140139821Y-123014411D01*
X140139850Y-123014313D01*
X140140014Y-123014320D01*
X140140058Y-123013616D01*
X140141920Y-123007391D01*
X140139804Y-122953534D01*
X140139707Y-122948587D01*
X140139707Y-122222723D01*
X140159709Y-122154602D01*
X140213365Y-122108109D01*
X140283639Y-122098005D01*
X140348219Y-122127499D01*
X140354802Y-122133628D01*
X142441143Y-124219969D01*
X142475169Y-124282281D01*
X142476970Y-124325508D01*
X142471623Y-124366122D01*
X142480315Y-124444850D01*
X142487609Y-124510913D01*
X142489007Y-124523579D01*
X142543447Y-124672345D01*
X142631802Y-124803831D01*
X142637421Y-124808944D01*
X142637422Y-124808945D01*
X142743354Y-124905335D01*
X142748970Y-124910445D01*
X142888187Y-124986034D01*
X143041416Y-125026233D01*
X143125371Y-125027552D01*
X143192213Y-125028602D01*
X143192216Y-125028602D01*
X143199810Y-125028721D01*
X143354226Y-124993355D01*
X143424636Y-124957943D01*
X143488966Y-124925589D01*
X143488969Y-124925587D01*
X143495749Y-124922177D01*
X143501520Y-124917248D01*
X143501523Y-124917246D01*
X143610430Y-124824230D01*
X143610430Y-124824229D01*
X143616208Y-124819295D01*
X143708649Y-124690650D01*
X143767736Y-124543667D01*
X143790056Y-124386833D01*
X143790201Y-124373026D01*
X143788747Y-124361006D01*
X143772082Y-124223299D01*
X143771170Y-124215759D01*
X143715174Y-124067572D01*
X143625447Y-123937018D01*
X143518873Y-123842065D01*
X150182357Y-123842065D01*
X150195954Y-123842066D01*
X150195955Y-123842066D01*
X151608944Y-123842154D01*
X151627059Y-123842155D01*
X151626816Y-123422632D01*
X151626376Y-122664323D01*
X151626376Y-122664321D01*
X151626365Y-122646208D01*
X150184428Y-122642976D01*
X150183357Y-123262828D01*
X150182506Y-123755949D01*
X150182357Y-123842065D01*
X143518873Y-123842065D01*
X143507169Y-123831637D01*
X143367168Y-123757510D01*
X143213527Y-123718918D01*
X143205928Y-123718878D01*
X143205927Y-123718878D01*
X143145520Y-123718562D01*
X143064229Y-123718136D01*
X142996215Y-123697778D01*
X142975795Y-123681233D01*
X140659985Y-121365423D01*
X140625959Y-121303111D01*
X140623080Y-121276328D01*
X140623080Y-119283355D01*
X148830512Y-119283355D01*
X148831062Y-119290027D01*
X148831062Y-119290029D01*
X148843175Y-119436943D01*
X148843726Y-119443626D01*
X148845668Y-119450026D01*
X148845669Y-119450031D01*
X148863624Y-119509199D01*
X148890422Y-119597511D01*
X148893675Y-119603368D01*
X148965252Y-119732242D01*
X148968504Y-119738098D01*
X149074462Y-119859069D01*
X149203536Y-119954991D01*
X149209632Y-119957763D01*
X149209634Y-119957764D01*
X149222232Y-119963492D01*
X149349928Y-120021554D01*
X149356471Y-120022979D01*
X149356472Y-120022979D01*
X149360358Y-120023825D01*
X149507061Y-120055767D01*
X149513755Y-120055781D01*
X149513759Y-120055781D01*
X149586883Y-120055929D01*
X149667875Y-120056094D01*
X149674422Y-120054696D01*
X149674425Y-120054696D01*
X149818593Y-120023918D01*
X149818595Y-120023917D01*
X149825145Y-120022519D01*
X149958396Y-119962584D01*
X149962179Y-119961083D01*
X149962409Y-119960882D01*
X149963064Y-119960484D01*
X149963566Y-119960258D01*
X149972225Y-119957268D01*
X149972227Y-119957267D01*
X149972240Y-119957262D01*
X149980703Y-119949759D01*
X149988058Y-119945288D01*
X150020579Y-119931332D01*
X150020779Y-119931278D01*
X150023559Y-119930525D01*
X150038846Y-119926385D01*
X150071768Y-119922004D01*
X150081412Y-119922003D01*
X150093581Y-119924422D01*
X150106461Y-119921859D01*
X150131052Y-119919436D01*
X151645001Y-119919436D01*
X151669572Y-119921855D01*
X151682483Y-119924422D01*
X151694654Y-119922000D01*
X151704196Y-119921999D01*
X151737129Y-119926376D01*
X151756160Y-119931528D01*
X151781983Y-119941686D01*
X151792434Y-119947195D01*
X151803808Y-119957276D01*
X151803812Y-119957277D01*
X151803814Y-119957279D01*
X151813223Y-119960528D01*
X151950908Y-120022451D01*
X152108159Y-120056016D01*
X152190932Y-120055846D01*
X152262255Y-120055699D01*
X152262257Y-120055699D01*
X152268951Y-120055685D01*
X152426063Y-120021472D01*
X152432154Y-120018702D01*
X152432158Y-120018701D01*
X152566337Y-119957688D01*
X152566341Y-119957685D01*
X152572434Y-119954915D01*
X152584985Y-119945588D01*
X152696114Y-119862998D01*
X152701490Y-119859003D01*
X152807433Y-119738047D01*
X152885504Y-119597478D01*
X152932194Y-119443613D01*
X152934200Y-119419282D01*
X152944857Y-119290037D01*
X152944857Y-119290029D01*
X152945407Y-119283364D01*
X152924549Y-119123929D01*
X152922299Y-119117617D01*
X152875595Y-118986604D01*
X152875593Y-118986599D01*
X152873597Y-118981001D01*
X152871306Y-118972111D01*
X152863844Y-118962193D01*
X152859747Y-118953681D01*
X152850434Y-118927051D01*
X152850225Y-118926132D01*
X152848233Y-118917402D01*
X152848230Y-118917388D01*
X152845075Y-118889364D01*
X152845075Y-118879961D01*
X152847497Y-118867789D01*
X152844931Y-118854886D01*
X152842511Y-118830310D01*
X152842511Y-117499574D01*
X152844932Y-117474991D01*
X152845076Y-117474267D01*
X152845076Y-117474266D01*
X152847497Y-117462097D01*
X152845076Y-117449926D01*
X152845076Y-117440482D01*
X152848234Y-117412451D01*
X152850381Y-117403042D01*
X152860785Y-117374207D01*
X152862805Y-117370213D01*
X152864706Y-117368188D01*
X152866518Y-117364133D01*
X152871291Y-117357790D01*
X152871294Y-117357780D01*
X152871298Y-117357774D01*
X152873587Y-117348897D01*
X152874234Y-117347618D01*
X152875561Y-117343290D01*
X152912700Y-117239146D01*
X152924536Y-117205955D01*
X152934135Y-117132638D01*
X152944543Y-117053148D01*
X152944543Y-117053145D01*
X152945412Y-117046508D01*
X152932212Y-116886243D01*
X152885528Y-116732362D01*
X152807458Y-116591777D01*
X152803052Y-116586746D01*
X152803049Y-116586742D01*
X152727758Y-116500775D01*
X152701510Y-116470805D01*
X152696141Y-116466815D01*
X152696138Y-116466812D01*
X152577815Y-116378874D01*
X152572445Y-116374883D01*
X152477739Y-116331819D01*
X152432159Y-116311093D01*
X152432157Y-116311092D01*
X152426060Y-116308320D01*
X152419517Y-116306895D01*
X152419513Y-116306894D01*
X152275480Y-116275532D01*
X152275479Y-116275532D01*
X152268935Y-116274107D01*
X152262243Y-116274093D01*
X152262239Y-116274093D01*
X152188919Y-116273944D01*
X152108128Y-116273780D01*
X151950864Y-116307355D01*
X151899786Y-116330332D01*
X151817738Y-116367239D01*
X151817363Y-116367388D01*
X151817217Y-116367474D01*
X151812539Y-116369578D01*
X151803830Y-116372584D01*
X151803812Y-116372600D01*
X151803792Y-116372607D01*
X151794601Y-116380753D01*
X151786529Y-116385493D01*
X151755652Y-116398461D01*
X151737045Y-116403498D01*
X151704117Y-116407874D01*
X151694654Y-116407873D01*
X151682483Y-116405451D01*
X151669572Y-116408018D01*
X151645001Y-116410437D01*
X150131056Y-116410437D01*
X150106465Y-116408014D01*
X150105751Y-116407872D01*
X150093580Y-116405450D01*
X150081410Y-116407870D01*
X150071857Y-116407869D01*
X150038936Y-116403489D01*
X150020894Y-116398603D01*
X149990606Y-116385973D01*
X149981081Y-116380447D01*
X149972241Y-116372611D01*
X149972232Y-116372608D01*
X149972224Y-116372601D01*
X149963416Y-116369559D01*
X149958499Y-116367347D01*
X149958425Y-116367304D01*
X149958246Y-116367233D01*
X149825162Y-116307362D01*
X149818615Y-116305964D01*
X149818612Y-116305963D01*
X149674449Y-116275180D01*
X149674445Y-116275180D01*
X149667895Y-116273781D01*
X149661200Y-116273794D01*
X149661196Y-116273794D01*
X149586216Y-116273945D01*
X149507084Y-116274103D01*
X149475410Y-116280999D01*
X149356493Y-116306889D01*
X149356492Y-116306889D01*
X149349953Y-116308313D01*
X149343867Y-116311080D01*
X149343862Y-116311082D01*
X149209655Y-116372106D01*
X149209652Y-116372108D01*
X149203564Y-116374876D01*
X149198192Y-116378868D01*
X149198191Y-116378869D01*
X149192256Y-116383280D01*
X149074494Y-116470799D01*
X148968542Y-116591773D01*
X148890470Y-116732361D01*
X148888529Y-116738760D01*
X148888526Y-116738768D01*
X148863658Y-116820741D01*
X148843785Y-116886247D01*
X148843236Y-116892916D01*
X148843235Y-116892922D01*
X148840950Y-116920667D01*
X148830586Y-117046516D01*
X148831456Y-117053160D01*
X148831456Y-117053162D01*
X148840482Y-117122088D01*
X148851465Y-117205967D01*
X148900540Y-117343575D01*
X148902238Y-117349116D01*
X148903068Y-117351335D01*
X148904733Y-117357790D01*
X148904735Y-117357794D01*
X148908174Y-117362364D01*
X148910108Y-117365488D01*
X148925820Y-117403780D01*
X148927788Y-117412403D01*
X148930947Y-117440436D01*
X148930947Y-117449928D01*
X148928527Y-117462097D01*
X148930948Y-117474266D01*
X148931092Y-117474991D01*
X148933513Y-117499574D01*
X148933513Y-118830272D01*
X148931088Y-118854872D01*
X148928527Y-118867738D01*
X148930946Y-118879907D01*
X148930944Y-118889390D01*
X148927788Y-118917391D01*
X148925794Y-118926132D01*
X148912579Y-118949764D01*
X148916781Y-118951745D01*
X148911313Y-118963346D01*
X148904721Y-118972108D01*
X148904717Y-118972122D01*
X148904709Y-118972133D01*
X148902702Y-118979922D01*
X148901464Y-118983394D01*
X148901217Y-118983891D01*
X148900792Y-118985279D01*
X148851374Y-119123900D01*
X148850506Y-119130538D01*
X148850505Y-119130540D01*
X148841783Y-119197204D01*
X148830512Y-119283355D01*
X140623080Y-119283355D01*
X140623080Y-104926096D01*
X140643082Y-104857975D01*
X140696738Y-104811482D01*
X140767012Y-104801378D01*
X140831592Y-104830872D01*
X140838175Y-104837001D01*
X141182781Y-105181607D01*
X141216807Y-105243919D01*
X141218608Y-105287146D01*
X141213261Y-105327760D01*
X141220815Y-105396182D01*
X141229811Y-105477667D01*
X141229812Y-105477671D01*
X141230645Y-105485217D01*
X141285085Y-105633983D01*
X141373440Y-105765469D01*
X141379059Y-105770582D01*
X141379060Y-105770583D01*
X141390435Y-105780933D01*
X141490608Y-105872083D01*
X141629825Y-105947672D01*
X141783054Y-105987871D01*
X141867009Y-105989190D01*
X141933851Y-105990240D01*
X141933854Y-105990240D01*
X141941448Y-105990359D01*
X142095864Y-105954993D01*
X142166274Y-105919581D01*
X142230604Y-105887227D01*
X142230607Y-105887225D01*
X142237387Y-105883815D01*
X142243158Y-105878886D01*
X142243161Y-105878884D01*
X142352068Y-105785868D01*
X142352068Y-105785867D01*
X142357846Y-105780933D01*
X142450287Y-105652288D01*
X142509374Y-105505305D01*
X142531694Y-105348471D01*
X142531839Y-105334664D01*
X142530093Y-105320231D01*
X142513720Y-105184937D01*
X142512808Y-105177397D01*
X142456812Y-105029210D01*
X142437519Y-105001139D01*
X142371387Y-104904915D01*
X142371386Y-104904913D01*
X142367085Y-104898656D01*
X142260511Y-104803703D01*
X150182357Y-104803703D01*
X150195954Y-104803704D01*
X150195955Y-104803704D01*
X151608944Y-104803792D01*
X151627059Y-104803793D01*
X151626577Y-103973111D01*
X151626376Y-103625961D01*
X151626376Y-103625959D01*
X151626365Y-103607846D01*
X150184428Y-103604614D01*
X150183838Y-103946328D01*
X150182497Y-104722860D01*
X150182357Y-104803703D01*
X142260511Y-104803703D01*
X142248807Y-104793275D01*
X142108806Y-104719148D01*
X141955165Y-104680556D01*
X141947566Y-104680516D01*
X141947565Y-104680516D01*
X141887158Y-104680200D01*
X141805867Y-104679774D01*
X141737853Y-104659416D01*
X141717433Y-104642871D01*
X141109985Y-104035423D01*
X141075959Y-103973111D01*
X141073080Y-103946328D01*
X141073080Y-100244996D01*
X148830564Y-100244996D01*
X148843767Y-100405267D01*
X148890454Y-100559155D01*
X148893704Y-100565007D01*
X148893706Y-100565012D01*
X148965259Y-100693856D01*
X148968529Y-100699744D01*
X149074483Y-100820719D01*
X149160816Y-100884880D01*
X149192694Y-100908571D01*
X149203555Y-100916643D01*
X149209643Y-100919411D01*
X149209646Y-100919413D01*
X149306935Y-100963650D01*
X149349947Y-100983207D01*
X149356489Y-100984631D01*
X149356491Y-100984632D01*
X149400471Y-100994207D01*
X149507080Y-101017418D01*
X149586322Y-101017577D01*
X149661195Y-101017728D01*
X149661199Y-101017728D01*
X149667893Y-101017741D01*
X149674444Y-101016342D01*
X149674446Y-101016342D01*
X149818607Y-100985560D01*
X149818610Y-100985559D01*
X149825162Y-100984160D01*
X149958358Y-100924241D01*
X149961068Y-100923166D01*
X149962014Y-100922596D01*
X149963553Y-100921904D01*
X149972226Y-100918909D01*
X149972231Y-100918905D01*
X149972239Y-100918902D01*
X149978506Y-100913347D01*
X149983347Y-100910679D01*
X149985305Y-100908571D01*
X149988453Y-100906675D01*
X150020525Y-100892991D01*
X150038870Y-100888023D01*
X150071795Y-100883642D01*
X150081410Y-100883641D01*
X150093580Y-100886061D01*
X150106460Y-100883498D01*
X150131051Y-100881075D01*
X151644996Y-100881075D01*
X151669567Y-100883494D01*
X151682483Y-100886062D01*
X151694655Y-100883640D01*
X151704204Y-100883639D01*
X151737132Y-100888015D01*
X151754630Y-100892751D01*
X151784661Y-100905229D01*
X151795259Y-100911342D01*
X151803795Y-100918908D01*
X151803812Y-100918914D01*
X151803827Y-100918927D01*
X151812454Y-100921905D01*
X151816853Y-100923884D01*
X151817069Y-100924011D01*
X151817634Y-100924235D01*
X151950866Y-100984164D01*
X152108131Y-101017738D01*
X152188923Y-101017574D01*
X152262244Y-101017425D01*
X152262248Y-101017425D01*
X152268940Y-101017411D01*
X152275484Y-101015986D01*
X152275485Y-101015986D01*
X152419520Y-100984623D01*
X152419524Y-100984622D01*
X152426067Y-100983197D01*
X152432163Y-100980425D01*
X152432166Y-100980424D01*
X152566358Y-100919405D01*
X152566362Y-100919403D01*
X152572453Y-100916633D01*
X152577823Y-100912642D01*
X152577828Y-100912639D01*
X152696128Y-100824717D01*
X152701520Y-100820710D01*
X152807470Y-100699738D01*
X152810721Y-100693884D01*
X152882291Y-100565007D01*
X152882293Y-100565003D01*
X152885542Y-100559152D01*
X152932228Y-100405270D01*
X152945431Y-100245003D01*
X152941194Y-100212632D01*
X152925427Y-100092198D01*
X152925426Y-100092195D01*
X152924557Y-100085555D01*
X152873586Y-99942615D01*
X152873585Y-99942610D01*
X152871296Y-99933733D01*
X152871295Y-99933732D01*
X152871294Y-99933728D01*
X152863689Y-99923622D01*
X152859551Y-99914945D01*
X152850435Y-99888730D01*
X152848234Y-99879083D01*
X152845077Y-99851061D01*
X152845077Y-99841578D01*
X152847497Y-99829409D01*
X152844933Y-99816520D01*
X152842511Y-99791936D01*
X152842511Y-98461237D01*
X152844935Y-98436639D01*
X152845075Y-98435936D01*
X152847497Y-98423768D01*
X152845079Y-98411600D01*
X152845080Y-98402104D01*
X152848236Y-98374101D01*
X152850448Y-98364404D01*
X152859561Y-98338193D01*
X152863704Y-98329504D01*
X152871303Y-98319404D01*
X152871309Y-98319380D01*
X152871325Y-98319359D01*
X152873477Y-98311006D01*
X152924603Y-98167597D01*
X152945465Y-98008149D01*
X152938609Y-97924977D01*
X152932803Y-97854556D01*
X152932802Y-97854550D01*
X152932253Y-97847885D01*
X152929062Y-97837368D01*
X152887504Y-97700411D01*
X152887503Y-97700410D01*
X152885560Y-97694005D01*
X152882309Y-97688152D01*
X152810732Y-97559273D01*
X152810729Y-97559269D01*
X152807483Y-97553424D01*
X152701531Y-97432455D01*
X152618223Y-97370542D01*
X152577840Y-97340530D01*
X152577838Y-97340529D01*
X152572464Y-97336535D01*
X152503988Y-97305398D01*
X152432172Y-97272742D01*
X152432167Y-97272740D01*
X152426079Y-97269972D01*
X152415545Y-97267678D01*
X152275497Y-97237182D01*
X152268953Y-97235757D01*
X152262259Y-97235743D01*
X152262257Y-97235743D01*
X152190536Y-97235596D01*
X152108146Y-97235427D01*
X151950881Y-97268996D01*
X151812519Y-97331226D01*
X151803816Y-97334231D01*
X151803806Y-97334240D01*
X151803805Y-97334240D01*
X151801216Y-97336535D01*
X151799205Y-97338317D01*
X151798820Y-97338484D01*
X151797925Y-97339162D01*
X151754779Y-97360341D01*
X151737075Y-97365134D01*
X151704143Y-97369512D01*
X151694654Y-97369511D01*
X151682483Y-97367090D01*
X151669572Y-97369657D01*
X151645001Y-97372076D01*
X150131052Y-97372076D01*
X150106461Y-97369653D01*
X150105752Y-97369512D01*
X150093581Y-97367090D01*
X150081411Y-97369510D01*
X150071866Y-97369509D01*
X150038942Y-97365128D01*
X150019762Y-97359934D01*
X149993944Y-97349778D01*
X149983612Y-97344332D01*
X149972237Y-97334249D01*
X149972233Y-97334248D01*
X149972228Y-97334243D01*
X149962629Y-97330928D01*
X149956342Y-97328100D01*
X149956337Y-97328097D01*
X149831234Y-97271825D01*
X149831225Y-97271822D01*
X149825120Y-97269076D01*
X149682103Y-97238543D01*
X149674417Y-97236902D01*
X149674416Y-97236902D01*
X149667868Y-97235504D01*
X149587989Y-97235666D01*
X149513764Y-97235816D01*
X149513760Y-97235816D01*
X149507073Y-97235830D01*
X149500538Y-97237253D01*
X149500537Y-97237253D01*
X149356501Y-97268614D01*
X149356498Y-97268615D01*
X149349958Y-97270039D01*
X149343863Y-97272810D01*
X149343861Y-97272811D01*
X149209681Y-97333822D01*
X149209679Y-97333823D01*
X149203583Y-97336595D01*
X149074524Y-97432506D01*
X148968580Y-97553465D01*
X148965334Y-97559310D01*
X148965331Y-97559314D01*
X148920606Y-97639845D01*
X148890509Y-97694036D01*
X148843820Y-97847904D01*
X148843271Y-97854569D01*
X148843270Y-97854572D01*
X148831161Y-98001475D01*
X148830610Y-98008156D01*
X148851473Y-98167592D01*
X148853720Y-98173894D01*
X148853722Y-98173903D01*
X148900511Y-98305137D01*
X148900968Y-98306627D01*
X148901243Y-98307189D01*
X148902422Y-98310495D01*
X148904715Y-98319393D01*
X148904720Y-98319400D01*
X148904723Y-98319411D01*
X148910895Y-98327614D01*
X148914667Y-98335706D01*
X148915820Y-98336939D01*
X148915934Y-98337172D01*
X148925599Y-98364523D01*
X148927794Y-98374145D01*
X148930950Y-98402180D01*
X148930949Y-98411545D01*
X148928527Y-98423716D01*
X148930947Y-98435886D01*
X148931094Y-98436625D01*
X148933513Y-98461198D01*
X148933513Y-99791936D01*
X148931091Y-99816520D01*
X148928527Y-99829409D01*
X148930947Y-99841579D01*
X148930947Y-99851027D01*
X148927790Y-99879050D01*
X148925622Y-99888552D01*
X148915477Y-99916873D01*
X148915336Y-99917155D01*
X148914269Y-99918302D01*
X148910900Y-99925528D01*
X148904733Y-99933723D01*
X148904731Y-99933730D01*
X148904726Y-99933737D01*
X148902507Y-99942343D01*
X148901757Y-99944445D01*
X148901332Y-99945300D01*
X148900600Y-99947689D01*
X148867002Y-100041905D01*
X148851441Y-100085542D01*
X148847348Y-100116804D01*
X148833292Y-100224163D01*
X148830564Y-100244996D01*
X141073080Y-100244996D01*
X141073080Y-98401908D01*
X141075630Y-98377950D01*
X141075708Y-98376291D01*
X141077901Y-98366107D01*
X141076677Y-98355765D01*
X141076677Y-98355762D01*
X141073954Y-98332762D01*
X141073604Y-98326831D01*
X141073508Y-98326839D01*
X141073080Y-98321663D01*
X141073080Y-98316459D01*
X141069907Y-98297395D01*
X141069076Y-98291549D01*
X141064274Y-98250984D01*
X141063050Y-98240642D01*
X141059087Y-98232390D01*
X141057584Y-98223357D01*
X141050934Y-98211031D01*
X141033239Y-98178238D01*
X141030562Y-98172985D01*
X141008361Y-98126752D01*
X141004767Y-98122476D01*
X141002827Y-98120536D01*
X141001073Y-98118624D01*
X141001025Y-98118535D01*
X141001148Y-98118423D01*
X141000675Y-98117887D01*
X140997590Y-98112169D01*
X140978275Y-98094314D01*
X140957994Y-98075567D01*
X140954428Y-98072137D01*
X139337144Y-96454853D01*
X139322002Y-96436105D01*
X139320887Y-96434880D01*
X139315237Y-96426129D01*
X139307059Y-96419682D01*
X139307057Y-96419680D01*
X139288866Y-96405340D01*
X139284425Y-96401394D01*
X139284363Y-96401467D01*
X139280399Y-96398108D01*
X139276722Y-96394431D01*
X139260974Y-96383177D01*
X139256304Y-96379671D01*
X139216019Y-96347913D01*
X139207385Y-96344881D01*
X139199932Y-96339555D01*
X139150816Y-96324866D01*
X139145174Y-96323033D01*
X139104299Y-96308679D01*
X139104298Y-96308679D01*
X139096815Y-96306051D01*
X139091250Y-96305569D01*
X139088542Y-96305569D01*
X139085908Y-96305455D01*
X139085810Y-96305426D01*
X139085817Y-96305262D01*
X139085113Y-96305218D01*
X139078888Y-96303356D01*
X139025031Y-96305472D01*
X139020084Y-96305569D01*
X137656483Y-96305569D01*
X137588362Y-96285567D01*
X137561915Y-96259929D01*
X137560679Y-96261018D01*
X137555656Y-96255320D01*
X137551354Y-96249061D01*
X137433076Y-96143680D01*
X137425690Y-96139769D01*
X137381151Y-96116187D01*
X137293075Y-96069553D01*
X137139434Y-96030961D01*
X137131835Y-96030921D01*
X137131834Y-96030921D01*
X137065982Y-96030576D01*
X136981022Y-96030131D01*
X136973642Y-96031903D01*
X136973640Y-96031903D01*
X136834364Y-96065340D01*
X136834361Y-96065341D01*
X136826985Y-96067112D01*
X136686215Y-96139769D01*
X136654567Y-96167378D01*
X136653567Y-96168250D01*
X136589085Y-96197958D01*
X136518778Y-96188089D01*
X136486919Y-96167378D01*
X136439527Y-96125154D01*
X136439521Y-96125150D01*
X136433851Y-96120098D01*
X136426465Y-96116187D01*
X136333778Y-96067112D01*
X136293850Y-96045971D01*
X136140209Y-96007379D01*
X136132610Y-96007339D01*
X136132609Y-96007339D01*
X136066757Y-96006994D01*
X135981797Y-96006549D01*
X135974417Y-96008321D01*
X135974415Y-96008321D01*
X135835139Y-96041758D01*
X135835136Y-96041759D01*
X135827760Y-96043530D01*
X135686990Y-96116187D01*
X135567615Y-96220325D01*
X135476526Y-96349931D01*
X135449332Y-96419680D01*
X135426784Y-96477514D01*
X135418982Y-96497524D01*
X135417990Y-96505057D01*
X135417990Y-96505058D01*
X135399507Y-96645455D01*
X135398305Y-96654583D01*
X127504573Y-96654583D01*
X127504573Y-95592627D01*
X154563616Y-95592627D01*
X154581000Y-95750084D01*
X154583610Y-95757215D01*
X154583610Y-95757217D01*
X154625655Y-95872110D01*
X154635440Y-95898850D01*
X154639676Y-95905153D01*
X154639676Y-95905154D01*
X154712888Y-96014104D01*
X154723795Y-96030336D01*
X154729414Y-96035449D01*
X154729415Y-96035450D01*
X154818535Y-96116542D01*
X154840963Y-96136950D01*
X154980180Y-96212539D01*
X155133409Y-96252738D01*
X155217364Y-96254057D01*
X155284206Y-96255107D01*
X155284209Y-96255107D01*
X155291803Y-96255226D01*
X155446219Y-96219860D01*
X155488200Y-96198746D01*
X155544814Y-96185311D01*
X157908531Y-96185311D01*
X157976652Y-96205313D01*
X157997626Y-96222216D01*
X158877192Y-97101782D01*
X158911218Y-97164094D01*
X158914097Y-97190877D01*
X158914097Y-102499279D01*
X158894095Y-102567400D01*
X158840439Y-102613893D01*
X158770165Y-102623997D01*
X158705585Y-102594503D01*
X158699002Y-102588374D01*
X157932948Y-101822320D01*
X157898922Y-101760008D01*
X157897300Y-101715472D01*
X157901386Y-101686763D01*
X157901386Y-101686757D01*
X157901967Y-101682678D01*
X157902112Y-101668871D01*
X157883081Y-101511604D01*
X157827085Y-101363417D01*
X157737358Y-101232863D01*
X157619080Y-101127482D01*
X157611694Y-101123571D01*
X157485793Y-101056910D01*
X157485794Y-101056910D01*
X157479079Y-101053355D01*
X157325438Y-101014763D01*
X157317839Y-101014723D01*
X157317838Y-101014723D01*
X157251986Y-101014378D01*
X157167026Y-101013933D01*
X157159646Y-101015705D01*
X157159644Y-101015705D01*
X157020368Y-101049142D01*
X157020365Y-101049143D01*
X157012989Y-101050914D01*
X156872219Y-101123571D01*
X156752844Y-101227709D01*
X156661755Y-101357315D01*
X156604211Y-101504908D01*
X156583534Y-101661967D01*
X156585821Y-101682678D01*
X156596323Y-101777801D01*
X156600918Y-101819424D01*
X156655358Y-101968190D01*
X156743713Y-102099676D01*
X156860881Y-102206290D01*
X157000098Y-102281879D01*
X157153327Y-102322078D01*
X157249943Y-102323596D01*
X157311577Y-102324564D01*
X157379375Y-102345633D01*
X157398693Y-102361453D01*
X158427192Y-103389952D01*
X158461218Y-103452264D01*
X158464097Y-103479047D01*
X158464097Y-114255047D01*
X158444095Y-114323168D01*
X158427192Y-114344142D01*
X157617359Y-115153975D01*
X157555047Y-115188001D01*
X157527606Y-115190878D01*
X157387169Y-115190142D01*
X157379789Y-115191914D01*
X157379787Y-115191914D01*
X157240511Y-115225351D01*
X157240508Y-115225352D01*
X157233132Y-115227123D01*
X157092362Y-115299780D01*
X156972987Y-115403918D01*
X156881898Y-115533524D01*
X156824354Y-115681117D01*
X156823362Y-115688650D01*
X156823362Y-115688651D01*
X156817168Y-115735703D01*
X156803677Y-115838176D01*
X156812369Y-115916905D01*
X156817780Y-115965911D01*
X156821061Y-115995633D01*
X156875501Y-116144399D01*
X156879737Y-116150702D01*
X156879737Y-116150703D01*
X156945742Y-116248928D01*
X156963856Y-116275885D01*
X156969475Y-116280998D01*
X156969476Y-116280999D01*
X157066803Y-116369559D01*
X157081024Y-116382499D01*
X157220241Y-116458088D01*
X157373470Y-116498287D01*
X157457425Y-116499606D01*
X157524267Y-116500656D01*
X157524270Y-116500656D01*
X157531864Y-116500775D01*
X157686280Y-116465409D01*
X157761334Y-116427661D01*
X157821020Y-116397643D01*
X157821023Y-116397641D01*
X157827803Y-116394231D01*
X157833574Y-116389302D01*
X157833577Y-116389300D01*
X157942484Y-116296284D01*
X157942484Y-116296283D01*
X157948262Y-116291349D01*
X158040703Y-116162704D01*
X158099790Y-116015721D01*
X158122110Y-115858887D01*
X158122255Y-115845080D01*
X158116385Y-115796576D01*
X158128057Y-115726548D01*
X158152377Y-115692345D01*
X158699002Y-115145720D01*
X158761314Y-115111694D01*
X158832129Y-115116759D01*
X158888965Y-115159306D01*
X158913776Y-115225826D01*
X158914097Y-115234815D01*
X158914097Y-123707373D01*
X158911548Y-123731321D01*
X158911469Y-123732986D01*
X158909277Y-123743169D01*
X158910501Y-123753510D01*
X158913224Y-123776516D01*
X158913574Y-123782447D01*
X158913669Y-123782439D01*
X158914097Y-123787617D01*
X158914097Y-123792817D01*
X158914951Y-123797946D01*
X158914951Y-123797949D01*
X158917266Y-123811858D01*
X158918103Y-123817736D01*
X158920983Y-123842066D01*
X158924127Y-123868634D01*
X158928090Y-123876886D01*
X158929593Y-123885919D01*
X158934540Y-123895088D01*
X158934541Y-123895090D01*
X158953931Y-123931025D01*
X158956628Y-123936318D01*
X158975382Y-123975375D01*
X158975385Y-123975379D01*
X158978816Y-123982525D01*
X158982411Y-123986801D01*
X158984334Y-123988724D01*
X158986106Y-123990656D01*
X158986149Y-123990735D01*
X158986025Y-123990848D01*
X158986501Y-123991388D01*
X158989587Y-123997107D01*
X158997232Y-124004174D01*
X159029183Y-124033709D01*
X159032749Y-124037139D01*
X159210463Y-124214853D01*
X159244489Y-124277165D01*
X159246290Y-124320392D01*
X159240943Y-124361006D01*
X159258327Y-124518463D01*
X159260937Y-124525594D01*
X159260937Y-124525596D01*
X159270132Y-124550721D01*
X159312767Y-124667229D01*
X159401122Y-124798715D01*
X159406741Y-124803828D01*
X159406742Y-124803829D01*
X159416954Y-124813121D01*
X159518290Y-124905329D01*
X159657507Y-124980918D01*
X159810736Y-125021117D01*
X159894691Y-125022436D01*
X159961533Y-125023486D01*
X159961536Y-125023486D01*
X159969130Y-125023605D01*
X160123546Y-124988239D01*
X160193956Y-124952827D01*
X160258286Y-124920473D01*
X160258289Y-124920471D01*
X160265069Y-124917061D01*
X160270840Y-124912132D01*
X160270843Y-124912130D01*
X160379750Y-124819114D01*
X160379750Y-124819113D01*
X160385528Y-124814179D01*
X160477969Y-124685534D01*
X160537056Y-124538551D01*
X160559376Y-124381717D01*
X160559445Y-124375175D01*
X160559478Y-124372044D01*
X160559478Y-124372038D01*
X160559521Y-124367910D01*
X160557775Y-124353477D01*
X160546316Y-124258790D01*
X160540490Y-124210643D01*
X160484494Y-124062456D01*
X160439581Y-123997107D01*
X160399069Y-123938161D01*
X160399068Y-123938159D01*
X160394767Y-123931902D01*
X160293936Y-123842066D01*
X169240437Y-123842066D01*
X169254034Y-123842067D01*
X169254035Y-123842067D01*
X170667024Y-123842155D01*
X170685139Y-123842156D01*
X170684896Y-123422632D01*
X170684456Y-122664324D01*
X170684456Y-122664322D01*
X170684445Y-122646209D01*
X169242508Y-122642977D01*
X169241437Y-123262828D01*
X169240586Y-123755949D01*
X169240437Y-123842066D01*
X160293936Y-123842066D01*
X160276489Y-123826521D01*
X160136488Y-123752394D01*
X159982847Y-123713802D01*
X159975248Y-123713762D01*
X159975247Y-123713762D01*
X159914840Y-123713446D01*
X159833549Y-123713020D01*
X159765535Y-123692662D01*
X159745115Y-123676117D01*
X159710002Y-123641004D01*
X159675976Y-123578692D01*
X159673097Y-123551909D01*
X159673097Y-119283363D01*
X167888622Y-119283363D01*
X167889172Y-119290029D01*
X167889172Y-119290037D01*
X167899830Y-119419298D01*
X167901836Y-119443628D01*
X167948532Y-119597508D01*
X168026610Y-119738090D01*
X168031018Y-119743123D01*
X168031019Y-119743124D01*
X168128155Y-119854025D01*
X168128159Y-119854028D01*
X168132564Y-119859058D01*
X168261633Y-119954978D01*
X168301370Y-119973046D01*
X168401924Y-120018769D01*
X168401927Y-120018770D01*
X168408019Y-120021540D01*
X168414555Y-120022963D01*
X168414557Y-120022964D01*
X168500446Y-120041667D01*
X168565145Y-120055756D01*
X168571839Y-120055770D01*
X168571841Y-120055770D01*
X168643564Y-120055917D01*
X168725954Y-120056086D01*
X168883220Y-120022517D01*
X168889322Y-120019773D01*
X168889327Y-120019771D01*
X169016204Y-119962707D01*
X169016206Y-119962706D01*
X169021584Y-119960287D01*
X169030290Y-119957281D01*
X169039580Y-119949048D01*
X169047811Y-119944239D01*
X169078454Y-119931407D01*
X169097033Y-119926378D01*
X169129961Y-119922001D01*
X169139449Y-119922002D01*
X169151619Y-119924423D01*
X169163790Y-119922003D01*
X169164530Y-119921856D01*
X169189101Y-119919437D01*
X170703050Y-119919437D01*
X170727641Y-119921860D01*
X170740521Y-119924423D01*
X170752691Y-119922003D01*
X170762234Y-119922004D01*
X170795164Y-119926386D01*
X170813225Y-119931278D01*
X170843506Y-119943905D01*
X170853020Y-119949424D01*
X170861862Y-119957262D01*
X170861873Y-119957266D01*
X170861881Y-119957273D01*
X170871601Y-119960630D01*
X170872703Y-119961126D01*
X170873792Y-119961774D01*
X170876780Y-119962959D01*
X170986989Y-120012529D01*
X171000893Y-120018783D01*
X171008992Y-120022426D01*
X171166241Y-120055995D01*
X171247077Y-120055830D01*
X171320336Y-120055681D01*
X171320339Y-120055681D01*
X171327033Y-120055667D01*
X171333575Y-120054243D01*
X171333580Y-120054242D01*
X171434934Y-120032173D01*
X171484144Y-120021458D01*
X171490230Y-120018691D01*
X171490235Y-120018689D01*
X171552336Y-119990451D01*
X171630516Y-119954903D01*
X171643051Y-119945588D01*
X171671530Y-119924423D01*
X171759572Y-119858994D01*
X171821888Y-119787849D01*
X171861107Y-119743073D01*
X171861108Y-119743071D01*
X171865516Y-119738039D01*
X171943586Y-119597471D01*
X171945530Y-119591065D01*
X171945532Y-119591060D01*
X171988333Y-119450011D01*
X171988333Y-119450008D01*
X171990276Y-119443607D01*
X171993011Y-119410436D01*
X172002938Y-119290032D01*
X172002938Y-119290029D01*
X172003488Y-119283358D01*
X171982629Y-119123925D01*
X171980375Y-119117601D01*
X171934154Y-118987948D01*
X171934153Y-118987946D01*
X171931675Y-118980995D01*
X171931553Y-118980521D01*
X171929386Y-118972114D01*
X171929385Y-118972113D01*
X171929384Y-118972109D01*
X171921783Y-118962005D01*
X171917643Y-118953324D01*
X171908531Y-118927118D01*
X171906311Y-118917388D01*
X171903154Y-118889352D01*
X171903155Y-118879965D01*
X171905577Y-118867790D01*
X171903011Y-118854886D01*
X171900591Y-118830311D01*
X171900591Y-117499574D01*
X171903012Y-117474991D01*
X171903156Y-117474267D01*
X171903156Y-117474266D01*
X171905577Y-117462097D01*
X171903156Y-117449926D01*
X171903156Y-117440483D01*
X171906315Y-117412448D01*
X171906464Y-117411793D01*
X172333125Y-117411793D01*
X172341446Y-117487157D01*
X172342817Y-117499575D01*
X172350509Y-117569250D01*
X172404949Y-117718016D01*
X172493304Y-117849502D01*
X172498923Y-117854615D01*
X172498924Y-117854616D01*
X172510299Y-117864966D01*
X172610472Y-117956116D01*
X172749689Y-118031705D01*
X172902918Y-118071904D01*
X172986873Y-118073223D01*
X173053715Y-118074273D01*
X173053718Y-118074273D01*
X173061312Y-118074392D01*
X173215728Y-118039026D01*
X173286138Y-118003614D01*
X173350468Y-117971260D01*
X173350471Y-117971258D01*
X173357251Y-117967848D01*
X173363022Y-117962919D01*
X173363025Y-117962917D01*
X173471932Y-117869901D01*
X173471932Y-117869900D01*
X173477710Y-117864966D01*
X173570151Y-117736321D01*
X173629238Y-117589338D01*
X173645511Y-117474992D01*
X173650977Y-117436588D01*
X173650977Y-117436585D01*
X173651558Y-117432504D01*
X173651703Y-117418697D01*
X173645833Y-117370193D01*
X173657505Y-117300165D01*
X173681825Y-117265962D01*
X174466014Y-116481773D01*
X174484762Y-116466631D01*
X174485987Y-116465516D01*
X174494738Y-116459866D01*
X174501185Y-116451688D01*
X174501187Y-116451686D01*
X174515527Y-116433495D01*
X174519473Y-116429054D01*
X174519400Y-116428992D01*
X174522759Y-116425028D01*
X174526436Y-116421351D01*
X174537690Y-116405603D01*
X174541196Y-116400933D01*
X174572954Y-116360648D01*
X174575986Y-116352014D01*
X174581312Y-116344561D01*
X174596001Y-116295445D01*
X174597834Y-116289803D01*
X174612188Y-116248928D01*
X174612188Y-116248927D01*
X174614816Y-116241444D01*
X174615298Y-116235879D01*
X174615298Y-116233171D01*
X174615412Y-116230537D01*
X174615441Y-116230439D01*
X174615605Y-116230446D01*
X174615649Y-116229742D01*
X174617511Y-116223517D01*
X174615395Y-116169660D01*
X174615298Y-116164713D01*
X174615298Y-99554009D01*
X174617847Y-99530061D01*
X174617926Y-99528396D01*
X174620118Y-99518213D01*
X174616171Y-99484866D01*
X174615821Y-99478935D01*
X174615726Y-99478943D01*
X174615298Y-99473765D01*
X174615298Y-99468565D01*
X174614444Y-99463433D01*
X174612129Y-99449524D01*
X174611292Y-99443646D01*
X174606492Y-99403088D01*
X174606492Y-99403087D01*
X174605268Y-99392748D01*
X174601305Y-99384496D01*
X174599802Y-99375463D01*
X174586365Y-99350559D01*
X174575464Y-99330357D01*
X174572767Y-99325064D01*
X174554013Y-99286007D01*
X174554010Y-99286003D01*
X174550579Y-99278857D01*
X174546984Y-99274581D01*
X174545061Y-99272658D01*
X174543289Y-99270726D01*
X174543246Y-99270647D01*
X174543370Y-99270534D01*
X174542894Y-99269994D01*
X174539808Y-99264275D01*
X174500211Y-99227672D01*
X174496646Y-99224243D01*
X173780578Y-98508175D01*
X173746552Y-98445863D01*
X173744930Y-98401327D01*
X173749016Y-98372618D01*
X173749016Y-98372612D01*
X173749597Y-98368533D01*
X173749742Y-98354726D01*
X173730711Y-98197459D01*
X173674715Y-98049272D01*
X173648235Y-98010743D01*
X173589290Y-97924977D01*
X173589289Y-97924975D01*
X173584988Y-97918718D01*
X173466710Y-97813337D01*
X173459324Y-97809426D01*
X173408292Y-97782406D01*
X173326709Y-97739210D01*
X173173068Y-97700618D01*
X173165469Y-97700578D01*
X173165468Y-97700578D01*
X173099616Y-97700233D01*
X173014656Y-97699788D01*
X173007276Y-97701560D01*
X173007274Y-97701560D01*
X172867998Y-97734997D01*
X172867995Y-97734998D01*
X172860619Y-97736769D01*
X172719849Y-97809426D01*
X172600474Y-97913564D01*
X172509385Y-98043170D01*
X172491637Y-98088691D01*
X172458416Y-98173900D01*
X172451841Y-98190763D01*
X172450849Y-98198296D01*
X172450849Y-98198297D01*
X172432221Y-98339795D01*
X172431164Y-98347822D01*
X172437537Y-98405546D01*
X172447135Y-98492479D01*
X172448548Y-98505279D01*
X172451158Y-98512410D01*
X172451158Y-98512412D01*
X172494093Y-98629737D01*
X172502988Y-98654045D01*
X172507224Y-98660348D01*
X172507224Y-98660349D01*
X172552279Y-98727397D01*
X172591343Y-98785531D01*
X172596962Y-98790644D01*
X172596963Y-98790645D01*
X172702895Y-98887035D01*
X172708511Y-98892145D01*
X172847728Y-98967734D01*
X173000957Y-99007933D01*
X173097573Y-99009451D01*
X173159207Y-99010419D01*
X173227005Y-99031488D01*
X173246323Y-99047308D01*
X173819393Y-99620378D01*
X173853419Y-99682690D01*
X173856298Y-99709473D01*
X173856298Y-115965911D01*
X173836296Y-116034032D01*
X173819393Y-116055006D01*
X173146807Y-116727592D01*
X173084495Y-116761618D01*
X173057054Y-116764495D01*
X172916617Y-116763759D01*
X172909237Y-116765531D01*
X172909235Y-116765531D01*
X172769959Y-116798968D01*
X172769956Y-116798969D01*
X172762580Y-116800740D01*
X172621810Y-116873397D01*
X172502435Y-116977535D01*
X172411346Y-117107141D01*
X172392482Y-117155524D01*
X172359886Y-117239130D01*
X172353802Y-117254734D01*
X172352810Y-117262267D01*
X172352810Y-117262268D01*
X172334180Y-117403780D01*
X172333125Y-117411793D01*
X171906464Y-117411793D01*
X171908479Y-117402966D01*
X171917750Y-117376432D01*
X171921999Y-117367589D01*
X171929369Y-117357795D01*
X171929372Y-117357783D01*
X171929381Y-117357771D01*
X171931669Y-117348897D01*
X171982642Y-117205968D01*
X171989246Y-117155538D01*
X172002652Y-117053154D01*
X172002652Y-117053150D01*
X172003521Y-117046516D01*
X171993157Y-116920667D01*
X171990872Y-116892921D01*
X171990871Y-116892916D01*
X171990322Y-116886246D01*
X171988376Y-116879830D01*
X171945581Y-116738766D01*
X171945580Y-116738764D01*
X171943637Y-116732359D01*
X171940383Y-116726498D01*
X171868818Y-116597629D01*
X171865564Y-116591769D01*
X171759612Y-116470795D01*
X171676314Y-116408889D01*
X171635917Y-116378866D01*
X171635915Y-116378865D01*
X171630541Y-116374871D01*
X171484151Y-116308307D01*
X171477570Y-116306874D01*
X171428929Y-116296284D01*
X171327019Y-116274096D01*
X171247778Y-116273937D01*
X171172905Y-116273786D01*
X171172901Y-116273786D01*
X171166207Y-116273773D01*
X171159656Y-116275172D01*
X171159654Y-116275172D01*
X171112809Y-116285175D01*
X171008939Y-116307354D01*
X171000628Y-116311093D01*
X170875761Y-116367267D01*
X170873034Y-116368349D01*
X170872081Y-116368923D01*
X170870576Y-116369600D01*
X170861879Y-116372603D01*
X170861872Y-116372609D01*
X170861864Y-116372612D01*
X170853688Y-116379860D01*
X170847868Y-116383197D01*
X170847795Y-116383280D01*
X170847477Y-116383421D01*
X170842547Y-116386247D01*
X170842251Y-116385731D01*
X170812929Y-116398699D01*
X170795235Y-116403490D01*
X170762311Y-116407871D01*
X170752692Y-116407872D01*
X170740522Y-116405452D01*
X170727642Y-116408015D01*
X170703051Y-116410438D01*
X169189106Y-116410438D01*
X169164535Y-116408019D01*
X169163791Y-116407871D01*
X169163790Y-116407871D01*
X169151619Y-116405451D01*
X169139448Y-116407873D01*
X169129896Y-116407874D01*
X169096970Y-116403498D01*
X169078521Y-116398505D01*
X169047742Y-116385595D01*
X169039549Y-116380794D01*
X169030314Y-116372608D01*
X169030291Y-116372600D01*
X169030272Y-116372583D01*
X169021765Y-116369647D01*
X168891596Y-116311093D01*
X168889353Y-116310084D01*
X168889352Y-116310084D01*
X168883246Y-116307337D01*
X168876701Y-116305940D01*
X168876699Y-116305939D01*
X168801120Y-116289803D01*
X168725978Y-116273760D01*
X168644939Y-116273924D01*
X168571863Y-116274071D01*
X168571859Y-116274071D01*
X168565166Y-116274085D01*
X168558623Y-116275510D01*
X168558620Y-116275510D01*
X168414578Y-116306874D01*
X168414575Y-116306875D01*
X168408035Y-116308299D01*
X168261646Y-116374864D01*
X168256276Y-116378855D01*
X168137948Y-116466797D01*
X168137945Y-116466799D01*
X168132576Y-116470790D01*
X168026625Y-116591765D01*
X168023375Y-116597618D01*
X168023374Y-116597619D01*
X167951804Y-116726498D01*
X167948552Y-116732354D01*
X167946610Y-116738755D01*
X167946608Y-116738760D01*
X167905058Y-116875721D01*
X167901867Y-116886241D01*
X167901317Y-116892914D01*
X167901317Y-116892916D01*
X167899861Y-116910594D01*
X167888667Y-117046511D01*
X167889536Y-117053148D01*
X167889536Y-117053150D01*
X167902940Y-117155524D01*
X167909544Y-117205963D01*
X167921378Y-117239146D01*
X167958604Y-117343530D01*
X167959055Y-117345001D01*
X167959324Y-117345550D01*
X167960513Y-117348884D01*
X167962805Y-117357774D01*
X167962810Y-117357781D01*
X167962813Y-117357792D01*
X167968982Y-117365989D01*
X167972824Y-117374230D01*
X167973991Y-117375480D01*
X167974108Y-117375720D01*
X167983691Y-117402897D01*
X167985869Y-117412440D01*
X167989028Y-117440476D01*
X167989028Y-117449926D01*
X167986607Y-117462098D01*
X167989028Y-117474267D01*
X167989028Y-117474268D01*
X167989172Y-117474992D01*
X167991593Y-117499575D01*
X167991593Y-118830273D01*
X167989168Y-118854873D01*
X167989165Y-118854887D01*
X167986607Y-118867739D01*
X167989026Y-118879908D01*
X167989024Y-118889400D01*
X167985868Y-118917402D01*
X167983952Y-118925801D01*
X167974975Y-118951724D01*
X167969598Y-118963074D01*
X167962798Y-118972113D01*
X167962792Y-118972135D01*
X167962781Y-118972150D01*
X167960692Y-118980259D01*
X167959028Y-118984928D01*
X167958936Y-118985115D01*
X167958780Y-118985622D01*
X167909482Y-119123913D01*
X167888622Y-119283363D01*
X159673097Y-119283363D01*
X159673097Y-104542663D01*
X159693099Y-104474542D01*
X159746755Y-104428049D01*
X159817029Y-104417945D01*
X159881609Y-104447439D01*
X159888192Y-104453568D01*
X160616231Y-105181607D01*
X160650257Y-105243919D01*
X160652058Y-105287146D01*
X160646711Y-105327760D01*
X160654265Y-105396182D01*
X160663261Y-105477667D01*
X160663262Y-105477671D01*
X160664095Y-105485217D01*
X160718535Y-105633983D01*
X160806890Y-105765469D01*
X160812509Y-105770582D01*
X160812510Y-105770583D01*
X160823885Y-105780933D01*
X160924058Y-105872083D01*
X161063275Y-105947672D01*
X161216504Y-105987871D01*
X161300459Y-105989190D01*
X161367301Y-105990240D01*
X161367304Y-105990240D01*
X161374898Y-105990359D01*
X161529314Y-105954993D01*
X161599724Y-105919581D01*
X161664054Y-105887227D01*
X161664057Y-105887225D01*
X161670837Y-105883815D01*
X161676608Y-105878886D01*
X161676611Y-105878884D01*
X161785518Y-105785868D01*
X161785518Y-105785867D01*
X161791296Y-105780933D01*
X161883737Y-105652288D01*
X161942824Y-105505305D01*
X161965144Y-105348471D01*
X161965289Y-105334664D01*
X161963543Y-105320231D01*
X161947170Y-105184937D01*
X161946258Y-105177397D01*
X161890262Y-105029210D01*
X161870969Y-105001139D01*
X161804837Y-104904915D01*
X161804836Y-104904913D01*
X161800535Y-104898656D01*
X161693961Y-104803703D01*
X169257687Y-104803703D01*
X169271284Y-104803704D01*
X169271285Y-104803704D01*
X170684274Y-104803792D01*
X170702389Y-104803793D01*
X170701907Y-103973111D01*
X170701706Y-103625961D01*
X170701706Y-103625959D01*
X170701695Y-103607846D01*
X169259758Y-103604614D01*
X169259168Y-103946328D01*
X169257827Y-104722860D01*
X169257687Y-104803703D01*
X161693961Y-104803703D01*
X161682257Y-104793275D01*
X161542256Y-104719148D01*
X161388615Y-104680556D01*
X161381016Y-104680516D01*
X161381015Y-104680516D01*
X161320608Y-104680200D01*
X161239317Y-104679774D01*
X161171303Y-104659416D01*
X161150883Y-104642871D01*
X160199210Y-103691198D01*
X160165184Y-103628886D01*
X160162305Y-103602103D01*
X160162305Y-98008134D01*
X167905946Y-98008134D01*
X167906814Y-98014769D01*
X167925934Y-98160935D01*
X167925935Y-98160940D01*
X167926803Y-98167574D01*
X167929052Y-98173883D01*
X167970996Y-98291549D01*
X167977758Y-98310520D01*
X167980046Y-98319396D01*
X167980051Y-98319402D01*
X167980052Y-98319407D01*
X167988565Y-98330722D01*
X167992969Y-98340552D01*
X168000826Y-98364047D01*
X168003124Y-98374121D01*
X168006280Y-98402154D01*
X168006279Y-98411545D01*
X168003857Y-98423716D01*
X168006277Y-98435886D01*
X168006424Y-98436625D01*
X168008843Y-98461198D01*
X168008843Y-99791936D01*
X168006421Y-99816520D01*
X168003857Y-99829409D01*
X168006277Y-99841579D01*
X168006277Y-99851020D01*
X168003120Y-99879044D01*
X168000951Y-99888552D01*
X168000857Y-99888962D01*
X167992443Y-99913679D01*
X167988171Y-99922947D01*
X167980062Y-99933723D01*
X167980060Y-99933732D01*
X167980056Y-99933737D01*
X167977565Y-99943398D01*
X167926868Y-100085584D01*
X167925999Y-100092224D01*
X167925998Y-100092228D01*
X167920371Y-100135223D01*
X167906000Y-100245020D01*
X167906550Y-100251692D01*
X167906550Y-100251699D01*
X167916370Y-100370873D01*
X167919204Y-100405271D01*
X167965887Y-100559141D01*
X167969136Y-100564991D01*
X167969137Y-100564994D01*
X167969147Y-100565012D01*
X168043951Y-100699714D01*
X168149890Y-100820677D01*
X168278944Y-100916595D01*
X168341155Y-100944886D01*
X168419218Y-100980386D01*
X168419223Y-100980388D01*
X168425315Y-100983158D01*
X168488725Y-100996968D01*
X168575887Y-101015952D01*
X168575890Y-101015952D01*
X168582427Y-101017376D01*
X168589119Y-101017390D01*
X168667907Y-101017555D01*
X168743221Y-101017712D01*
X168749766Y-101016315D01*
X168749768Y-101016315D01*
X168893927Y-100985549D01*
X168893932Y-100985547D01*
X168900475Y-100984151D01*
X168906584Y-100981404D01*
X168906586Y-100981403D01*
X169031101Y-100925406D01*
X169031104Y-100925404D01*
X169038869Y-100921912D01*
X169047542Y-100918917D01*
X169047543Y-100918916D01*
X169047544Y-100918916D01*
X169052156Y-100914829D01*
X169052565Y-100914645D01*
X169053444Y-100913979D01*
X169096590Y-100892799D01*
X169114244Y-100888019D01*
X169147174Y-100883640D01*
X169156723Y-100883640D01*
X169168895Y-100886061D01*
X169181065Y-100883640D01*
X169181066Y-100883640D01*
X169181790Y-100883496D01*
X169206373Y-100881075D01*
X170720317Y-100881075D01*
X170744897Y-100883496D01*
X170745626Y-100883641D01*
X170757798Y-100886062D01*
X170769970Y-100883641D01*
X170779518Y-100883641D01*
X170812443Y-100888019D01*
X170831507Y-100893180D01*
X170857331Y-100903336D01*
X170867761Y-100908833D01*
X170879137Y-100918915D01*
X170879141Y-100918916D01*
X170879145Y-100918920D01*
X170887299Y-100921735D01*
X170895895Y-100925601D01*
X171020088Y-100981457D01*
X171020091Y-100981458D01*
X171026190Y-100984201D01*
X171183458Y-101017769D01*
X171261040Y-101017608D01*
X171337574Y-101017450D01*
X171337575Y-101017450D01*
X171344267Y-101017436D01*
X171501395Y-100983217D01*
X171647780Y-100916649D01*
X171653176Y-100912639D01*
X171771473Y-100824717D01*
X171776846Y-100820724D01*
X171825045Y-100765691D01*
X171878387Y-100704785D01*
X171878390Y-100704781D01*
X171882796Y-100699750D01*
X171960867Y-100559163D01*
X172007554Y-100405280D01*
X172009560Y-100380930D01*
X172020209Y-100251692D01*
X172020209Y-100251689D01*
X172020759Y-100245013D01*
X171999888Y-100085563D01*
X171988057Y-100052381D01*
X171950898Y-99948168D01*
X171950897Y-99948166D01*
X171948916Y-99942610D01*
X171946627Y-99933734D01*
X171946624Y-99933730D01*
X171946623Y-99933726D01*
X171939252Y-99923929D01*
X171934988Y-99915056D01*
X171925716Y-99888522D01*
X171923566Y-99879102D01*
X171920407Y-99851070D01*
X171920407Y-99841579D01*
X171922827Y-99829409D01*
X171920263Y-99816520D01*
X171917841Y-99791936D01*
X171917841Y-98461237D01*
X171920265Y-98436639D01*
X171920405Y-98435936D01*
X171922827Y-98423768D01*
X171920409Y-98411600D01*
X171920410Y-98402106D01*
X171923564Y-98374111D01*
X171924836Y-98368533D01*
X171925476Y-98365727D01*
X171934455Y-98339795D01*
X171939837Y-98328435D01*
X171946636Y-98319398D01*
X171946641Y-98319380D01*
X171946652Y-98319365D01*
X171948916Y-98310577D01*
X171949914Y-98307779D01*
X171950252Y-98307092D01*
X171950825Y-98305222D01*
X171999892Y-98167579D01*
X172020750Y-98008138D01*
X172013894Y-97924977D01*
X172009543Y-97872211D01*
X172007537Y-97847882D01*
X172004343Y-97837354D01*
X171973283Y-97734997D01*
X171960846Y-97694011D01*
X171886039Y-97559314D01*
X171886024Y-97559287D01*
X171886022Y-97559284D01*
X171882774Y-97553436D01*
X171878354Y-97548389D01*
X171781237Y-97437506D01*
X171781233Y-97437502D01*
X171776828Y-97432473D01*
X171716347Y-97387523D01*
X171653141Y-97340548D01*
X171653138Y-97340546D01*
X171647769Y-97336556D01*
X171501393Y-97269993D01*
X171494853Y-97268569D01*
X171494851Y-97268568D01*
X171350817Y-97237199D01*
X171350812Y-97237198D01*
X171344276Y-97235775D01*
X171337584Y-97235761D01*
X171253285Y-97235585D01*
X171183477Y-97235439D01*
X171026219Y-97269000D01*
X171014000Y-97274495D01*
X170895101Y-97327963D01*
X170895098Y-97327965D01*
X170887815Y-97331240D01*
X170879147Y-97334233D01*
X170879146Y-97334234D01*
X170879134Y-97334238D01*
X170869593Y-97342694D01*
X170861081Y-97347607D01*
X170831023Y-97360101D01*
X170812441Y-97365132D01*
X170779513Y-97369511D01*
X170769969Y-97369511D01*
X170757797Y-97367090D01*
X170745625Y-97369511D01*
X170744901Y-97369655D01*
X170720321Y-97372076D01*
X169206373Y-97372076D01*
X169181790Y-97369655D01*
X169181066Y-97369511D01*
X169181065Y-97369511D01*
X169168895Y-97367090D01*
X169156723Y-97369511D01*
X169147183Y-97369511D01*
X169114252Y-97365131D01*
X169095635Y-97360090D01*
X169065583Y-97347597D01*
X169057099Y-97342700D01*
X169047556Y-97334242D01*
X169047541Y-97334237D01*
X169047530Y-97334227D01*
X169038974Y-97331273D01*
X169032824Y-97328508D01*
X169032818Y-97328504D01*
X168906576Y-97271738D01*
X168906573Y-97271737D01*
X168900464Y-97268990D01*
X168743206Y-97235433D01*
X168736518Y-97235447D01*
X168736517Y-97235447D01*
X168665024Y-97235598D01*
X168582409Y-97235772D01*
X168575871Y-97237196D01*
X168431835Y-97268568D01*
X168431830Y-97268570D01*
X168425295Y-97269993D01*
X168411160Y-97276421D01*
X168296630Y-97328504D01*
X168278921Y-97336557D01*
X168273552Y-97340548D01*
X168273551Y-97340548D01*
X168199166Y-97395833D01*
X168149864Y-97432475D01*
X168145458Y-97437506D01*
X168048330Y-97548402D01*
X168048327Y-97548407D01*
X168043921Y-97553437D01*
X168040673Y-97559285D01*
X168040671Y-97559288D01*
X168040657Y-97559314D01*
X167965850Y-97694011D01*
X167919159Y-97847880D01*
X167905946Y-98008134D01*
X160162305Y-98008134D01*
X160162305Y-96888225D01*
X160164854Y-96864277D01*
X160164933Y-96862612D01*
X160167125Y-96852429D01*
X160163178Y-96819082D01*
X160162828Y-96813151D01*
X160162733Y-96813159D01*
X160162305Y-96807981D01*
X160162305Y-96802781D01*
X160161451Y-96797649D01*
X160159136Y-96783740D01*
X160158299Y-96777862D01*
X160153499Y-96737304D01*
X160153499Y-96737303D01*
X160152275Y-96726964D01*
X160148312Y-96718712D01*
X160146809Y-96709679D01*
X160139268Y-96695702D01*
X160122471Y-96664573D01*
X160119774Y-96659280D01*
X160101020Y-96620223D01*
X160101017Y-96620219D01*
X160097586Y-96613073D01*
X160093991Y-96608797D01*
X160092068Y-96606874D01*
X160090296Y-96604942D01*
X160090253Y-96604863D01*
X160090377Y-96604750D01*
X160089901Y-96604210D01*
X160086815Y-96598491D01*
X160047218Y-96561888D01*
X160043653Y-96558459D01*
X158335789Y-94850595D01*
X158320647Y-94831847D01*
X158319532Y-94830622D01*
X158313882Y-94821871D01*
X158305704Y-94815424D01*
X158305702Y-94815422D01*
X158287511Y-94801082D01*
X158283070Y-94797136D01*
X158283008Y-94797209D01*
X158279044Y-94793850D01*
X158275367Y-94790173D01*
X158259619Y-94778919D01*
X158254949Y-94775413D01*
X158214664Y-94743655D01*
X158206030Y-94740623D01*
X158198577Y-94735297D01*
X158149461Y-94720608D01*
X158143819Y-94718775D01*
X158102944Y-94704421D01*
X158102943Y-94704421D01*
X158095460Y-94701793D01*
X158089895Y-94701311D01*
X158087187Y-94701311D01*
X158084553Y-94701197D01*
X158084455Y-94701168D01*
X158084462Y-94701004D01*
X158083758Y-94700960D01*
X158077533Y-94699098D01*
X158023676Y-94701214D01*
X158018729Y-94701311D01*
X156788794Y-94701311D01*
X156720673Y-94681309D01*
X156694226Y-94655671D01*
X156692990Y-94656760D01*
X156687967Y-94651062D01*
X156683665Y-94644803D01*
X156565387Y-94539422D01*
X156558001Y-94535511D01*
X156432100Y-94468850D01*
X156432101Y-94468850D01*
X156425386Y-94465295D01*
X156271745Y-94426703D01*
X156264146Y-94426663D01*
X156264145Y-94426663D01*
X156198293Y-94426318D01*
X156113333Y-94425873D01*
X156105953Y-94427645D01*
X156105951Y-94427645D01*
X155966675Y-94461082D01*
X155966672Y-94461083D01*
X155959296Y-94462854D01*
X155818526Y-94535511D01*
X155699151Y-94639649D01*
X155608062Y-94769255D01*
X155580047Y-94841111D01*
X155558869Y-94895429D01*
X155515489Y-94951630D01*
X155448609Y-94975457D01*
X155410783Y-94971863D01*
X155305520Y-94945423D01*
X155297921Y-94945383D01*
X155297920Y-94945383D01*
X155232068Y-94945038D01*
X155147108Y-94944593D01*
X155139728Y-94946365D01*
X155139726Y-94946365D01*
X155000450Y-94979802D01*
X155000447Y-94979803D01*
X154993071Y-94981574D01*
X154852301Y-95054231D01*
X154732926Y-95158369D01*
X154641837Y-95287975D01*
X154639077Y-95295055D01*
X154594035Y-95410582D01*
X154584293Y-95435568D01*
X154583301Y-95443101D01*
X154583301Y-95443102D01*
X154568749Y-95553641D01*
X154563616Y-95592627D01*
X127504573Y-95592627D01*
X127504573Y-95442984D01*
X127524575Y-95374863D01*
X127541478Y-95353889D01*
X130903322Y-91992045D01*
X130918808Y-91979537D01*
X130922033Y-91976603D01*
X130930781Y-91970954D01*
X130949902Y-91946699D01*
X130953460Y-91942696D01*
X130953360Y-91942611D01*
X130956713Y-91938654D01*
X130960394Y-91934973D01*
X130969107Y-91922781D01*
X130970763Y-91920464D01*
X130974325Y-91915720D01*
X130997396Y-91886454D01*
X130997398Y-91886450D01*
X131003845Y-91878272D01*
X131006678Y-91870204D01*
X131011652Y-91863244D01*
X131025319Y-91817543D01*
X131027155Y-91811894D01*
X131040323Y-91774398D01*
X131042949Y-91766921D01*
X131043399Y-91761725D01*
X131043399Y-91759020D01*
X131043496Y-91756764D01*
X131043639Y-91756288D01*
X131043685Y-91756290D01*
X131043698Y-91756091D01*
X131045467Y-91750174D01*
X131043496Y-91700005D01*
X131043399Y-91695059D01*
X131043399Y-87423474D01*
X131063401Y-87355353D01*
X131087568Y-87327663D01*
X131168435Y-87258596D01*
X131168435Y-87258595D01*
X131174213Y-87253661D01*
X131266654Y-87125016D01*
X131325741Y-86978033D01*
X131339956Y-86878149D01*
X131347480Y-86825283D01*
X131347480Y-86825280D01*
X131348061Y-86821199D01*
X131348206Y-86807392D01*
X131329175Y-86650125D01*
X131273179Y-86501938D01*
X131219516Y-86423857D01*
X131207456Y-86406310D01*
X131185356Y-86338841D01*
X131200910Y-86279093D01*
X131155641Y-86295978D01*
X131086267Y-86280887D01*
X131074746Y-86273766D01*
X131070841Y-86271052D01*
X131065174Y-86266003D01*
X131057788Y-86262092D01*
X130958895Y-86209731D01*
X130925173Y-86191876D01*
X130771532Y-86153284D01*
X130763933Y-86153244D01*
X130763932Y-86153244D01*
X130698080Y-86152899D01*
X130613120Y-86152454D01*
X130605740Y-86154226D01*
X130605738Y-86154226D01*
X130466462Y-86187663D01*
X130466459Y-86187664D01*
X130459083Y-86189435D01*
X130318313Y-86262092D01*
X130198938Y-86366230D01*
X130107849Y-86495836D01*
X130050305Y-86643429D01*
X130049313Y-86650965D01*
X130048291Y-86654945D01*
X130011976Y-86715951D01*
X129948444Y-86747640D01*
X129877865Y-86739950D01*
X129842431Y-86717687D01*
X129763396Y-86647270D01*
X129763390Y-86647266D01*
X129757720Y-86642214D01*
X129750334Y-86638303D01*
X129711491Y-86617737D01*
X129617719Y-86568087D01*
X129464078Y-86529495D01*
X129456479Y-86529455D01*
X129456478Y-86529455D01*
X129390626Y-86529110D01*
X129305666Y-86528665D01*
X129298286Y-86530437D01*
X129298284Y-86530437D01*
X129159008Y-86563874D01*
X129159005Y-86563875D01*
X129151629Y-86565646D01*
X129010859Y-86638303D01*
X128891484Y-86742441D01*
X128887117Y-86748654D01*
X128887112Y-86748660D01*
X128845581Y-86807752D01*
X128790047Y-86851984D01*
X128719415Y-86859169D01*
X128656110Y-86827027D01*
X128650689Y-86821424D01*
X128647239Y-86816405D01*
X128528961Y-86711024D01*
X128521575Y-86707113D01*
X128428184Y-86657665D01*
X128388960Y-86636897D01*
X128235319Y-86598305D01*
X128227720Y-86598265D01*
X128227719Y-86598265D01*
X128161867Y-86597920D01*
X128076907Y-86597475D01*
X128069527Y-86599247D01*
X128069525Y-86599247D01*
X127930249Y-86632684D01*
X127930246Y-86632685D01*
X127922870Y-86634456D01*
X127782100Y-86707113D01*
X127662725Y-86811251D01*
X127571636Y-86940857D01*
X127514092Y-87088450D01*
X127513100Y-87095983D01*
X127513100Y-87095984D01*
X127506120Y-87149006D01*
X127493415Y-87245509D01*
X127502107Y-87324238D01*
X127506249Y-87361751D01*
X127510799Y-87402966D01*
X127513409Y-87410097D01*
X127513409Y-87410099D01*
X127561378Y-87541180D01*
X127565239Y-87551732D01*
X127569475Y-87558035D01*
X127569475Y-87558036D01*
X127630715Y-87649170D01*
X127653594Y-87683218D01*
X127659213Y-87688331D01*
X127659214Y-87688332D01*
X127756985Y-87777296D01*
X127793908Y-87837936D01*
X127798186Y-87870490D01*
X127798186Y-90758248D01*
X127778184Y-90826369D01*
X127761281Y-90847343D01*
X127036181Y-91572443D01*
X126973869Y-91606469D01*
X126936883Y-91608106D01*
X126936883Y-91608140D01*
X126936203Y-91608136D01*
X126936194Y-91608136D01*
X126929280Y-91608100D01*
X126929279Y-91608100D01*
X126867811Y-91607778D01*
X126778471Y-91607310D01*
X126771091Y-91609082D01*
X126771089Y-91609082D01*
X126631813Y-91642519D01*
X126631810Y-91642520D01*
X126624434Y-91644291D01*
X126483664Y-91716948D01*
X126364289Y-91821086D01*
X126273200Y-91950692D01*
X126256517Y-91993482D01*
X126236808Y-92044034D01*
X126215656Y-92098285D01*
X126194979Y-92255344D01*
X126212363Y-92412801D01*
X126214973Y-92419932D01*
X126214973Y-92419934D01*
X126220371Y-92434683D01*
X126266803Y-92561567D01*
X126271039Y-92567870D01*
X126271039Y-92567871D01*
X126292116Y-92599236D01*
X126355158Y-92693053D01*
X126360777Y-92698166D01*
X126360778Y-92698167D01*
X126365373Y-92702348D01*
X126472326Y-92799667D01*
X126611543Y-92875256D01*
X126764772Y-92915455D01*
X126848727Y-92916774D01*
X126915569Y-92917824D01*
X126915572Y-92917824D01*
X126923166Y-92917943D01*
X127077582Y-92882577D01*
X127147992Y-92847165D01*
X127212322Y-92814811D01*
X127212325Y-92814809D01*
X127219105Y-92811399D01*
X127224876Y-92806470D01*
X127224879Y-92806468D01*
X127333786Y-92713452D01*
X127333786Y-92713451D01*
X127339564Y-92708517D01*
X127386728Y-92642882D01*
X127442720Y-92599236D01*
X127513423Y-92592790D01*
X127576388Y-92625593D01*
X127593630Y-92646135D01*
X127620918Y-92686745D01*
X127620921Y-92686748D01*
X127625158Y-92693053D01*
X127630777Y-92698166D01*
X127630778Y-92698167D01*
X127635373Y-92702348D01*
X127742326Y-92799667D01*
X127881543Y-92875256D01*
X128034772Y-92915455D01*
X128118727Y-92916774D01*
X128185569Y-92917824D01*
X128185572Y-92917824D01*
X128193166Y-92917943D01*
X128347582Y-92882577D01*
X128417992Y-92847165D01*
X128482322Y-92814811D01*
X128482325Y-92814809D01*
X128489105Y-92811399D01*
X128494876Y-92806470D01*
X128494879Y-92806468D01*
X128603786Y-92713452D01*
X128603786Y-92713451D01*
X128609564Y-92708517D01*
X128702005Y-92579872D01*
X128761092Y-92432889D01*
X128783412Y-92276055D01*
X128783557Y-92262248D01*
X128783062Y-92258154D01*
X128783061Y-92258143D01*
X128773872Y-92182205D01*
X128785545Y-92112175D01*
X128809864Y-92077973D01*
X129595868Y-91291969D01*
X129611354Y-91279461D01*
X129614579Y-91276527D01*
X129623327Y-91270878D01*
X129642448Y-91246623D01*
X129646004Y-91242622D01*
X129645904Y-91242537D01*
X129649257Y-91238580D01*
X129652939Y-91234898D01*
X129663327Y-91220362D01*
X129666846Y-91215675D01*
X129696391Y-91178196D01*
X129699224Y-91170128D01*
X129704198Y-91163168D01*
X129717865Y-91117467D01*
X129719701Y-91111818D01*
X129732869Y-91074322D01*
X129735495Y-91066845D01*
X129735945Y-91061649D01*
X129735945Y-91058944D01*
X129736042Y-91056688D01*
X129736185Y-91056212D01*
X129736231Y-91056214D01*
X129736244Y-91056015D01*
X129738013Y-91050098D01*
X129736042Y-90999929D01*
X129735945Y-90994983D01*
X129735945Y-87799685D01*
X129755947Y-87731564D01*
X129780114Y-87703874D01*
X129860981Y-87634807D01*
X129860981Y-87634806D01*
X129866759Y-87629872D01*
X129959200Y-87501227D01*
X130018287Y-87354244D01*
X130019358Y-87346717D01*
X130021323Y-87339385D01*
X130023161Y-87339877D01*
X130048443Y-87284303D01*
X130108113Y-87245833D01*
X130179109Y-87245729D01*
X130228586Y-87273483D01*
X130293198Y-87332275D01*
X130330121Y-87392915D01*
X130334399Y-87425469D01*
X130334399Y-91506100D01*
X130314397Y-91574221D01*
X130297494Y-91595195D01*
X126935653Y-94957037D01*
X126920171Y-94969542D01*
X126916944Y-94972478D01*
X126908191Y-94978130D01*
X126889064Y-95002393D01*
X126885514Y-95006388D01*
X126885613Y-95006472D01*
X126882255Y-95010435D01*
X126878579Y-95014111D01*
X126875556Y-95018340D01*
X126875556Y-95018341D01*
X126868219Y-95028607D01*
X126864658Y-95033350D01*
X126841576Y-95062630D01*
X126841574Y-95062634D01*
X126835127Y-95070812D01*
X126832294Y-95078880D01*
X126827320Y-95085840D01*
X126824336Y-95095818D01*
X126813653Y-95131541D01*
X126811817Y-95137190D01*
X126796023Y-95182163D01*
X126795573Y-95187359D01*
X126795573Y-95190064D01*
X126795476Y-95192320D01*
X126795333Y-95192796D01*
X126795287Y-95192794D01*
X126795274Y-95192993D01*
X126793505Y-95198910D01*
X126793914Y-95209314D01*
X126795476Y-95249079D01*
X126795573Y-95254025D01*
X126795573Y-95557565D01*
X126775571Y-95625686D01*
X126721915Y-95672179D01*
X126651641Y-95682283D01*
X126585754Y-95651642D01*
X126574694Y-95641788D01*
X126470088Y-95548588D01*
X126462702Y-95544677D01*
X126336801Y-95478016D01*
X126336802Y-95478016D01*
X126330087Y-95474461D01*
X126176446Y-95435869D01*
X126168847Y-95435829D01*
X126168846Y-95435829D01*
X126102994Y-95435484D01*
X126018034Y-95435039D01*
X126010654Y-95436811D01*
X126010652Y-95436811D01*
X125871376Y-95470248D01*
X125871373Y-95470249D01*
X125863997Y-95472020D01*
X125723227Y-95544677D01*
X125717505Y-95549669D01*
X125717503Y-95549670D01*
X125706445Y-95559317D01*
X125641963Y-95589026D01*
X125571656Y-95579157D01*
X125539796Y-95558445D01*
X125465451Y-95492206D01*
X125465445Y-95492202D01*
X125459775Y-95487150D01*
X125452389Y-95483239D01*
X125366418Y-95437720D01*
X125319774Y-95413023D01*
X125166133Y-95374431D01*
X125158534Y-95374391D01*
X125158533Y-95374391D01*
X125092681Y-95374046D01*
X125007721Y-95373601D01*
X125000341Y-95375373D01*
X125000339Y-95375373D01*
X124861063Y-95408810D01*
X124861060Y-95408811D01*
X124853684Y-95410582D01*
X124712914Y-95483239D01*
X124593539Y-95587377D01*
X124502450Y-95716983D01*
X124444906Y-95864576D01*
X124443914Y-95872109D01*
X124443914Y-95872110D01*
X124425982Y-96008321D01*
X124424229Y-96021635D01*
X124425259Y-96030961D01*
X124430463Y-96078105D01*
X124418057Y-96148009D01*
X124394319Y-96181026D01*
X123992589Y-96582756D01*
X123973841Y-96597898D01*
X123972616Y-96599013D01*
X123963865Y-96604663D01*
X123957418Y-96612841D01*
X123957416Y-96612843D01*
X123943076Y-96631034D01*
X123939130Y-96635475D01*
X123939203Y-96635537D01*
X123935844Y-96639501D01*
X123932167Y-96643178D01*
X123920913Y-96658926D01*
X123917407Y-96663596D01*
X123885649Y-96703881D01*
X123882617Y-96712515D01*
X123877291Y-96719968D01*
X123874306Y-96729949D01*
X123862604Y-96769078D01*
X123860769Y-96774726D01*
X123847273Y-96813159D01*
X123843787Y-96823085D01*
X123843305Y-96828650D01*
X123843305Y-96831358D01*
X123843191Y-96833992D01*
X123843162Y-96834090D01*
X123842998Y-96834083D01*
X123842954Y-96834787D01*
X123841092Y-96841012D01*
X123841501Y-96851417D01*
X123843208Y-96894869D01*
X123843305Y-96899816D01*
X123843305Y-122650124D01*
X123823303Y-122718245D01*
X123800135Y-122745072D01*
X123732844Y-122803775D01*
X123641755Y-122933381D01*
X123614457Y-123003398D01*
X123587054Y-123073683D01*
X123584211Y-123080974D01*
X123583219Y-123088507D01*
X123583219Y-123088508D01*
X123566848Y-123212863D01*
X123563534Y-123238033D01*
X121937305Y-123238033D01*
X121937305Y-84727259D01*
X122899406Y-84727259D01*
X122903283Y-84762372D01*
X122915834Y-84876054D01*
X122916790Y-84884716D01*
X122919400Y-84891847D01*
X122919400Y-84891849D01*
X122961584Y-85007122D01*
X122971230Y-85033482D01*
X123059585Y-85164968D01*
X123065204Y-85170081D01*
X123065205Y-85170082D01*
X123084557Y-85187691D01*
X123176753Y-85271582D01*
X123315970Y-85347171D01*
X123469199Y-85387370D01*
X123553154Y-85388689D01*
X123619996Y-85389739D01*
X123619999Y-85389739D01*
X123627593Y-85389858D01*
X123634996Y-85388162D01*
X123642555Y-85387368D01*
X123642908Y-85390732D01*
X123698724Y-85394204D01*
X123733794Y-85413713D01*
X123742586Y-85420644D01*
X123746586Y-85424199D01*
X123746670Y-85424099D01*
X123750633Y-85427457D01*
X123754309Y-85431133D01*
X123758538Y-85434156D01*
X123758539Y-85434156D01*
X123768805Y-85441493D01*
X123773548Y-85445054D01*
X123802828Y-85468136D01*
X123802832Y-85468138D01*
X123811010Y-85474585D01*
X123819078Y-85477418D01*
X123826038Y-85482392D01*
X123836016Y-85485376D01*
X123871739Y-85496059D01*
X123877388Y-85497895D01*
X123922361Y-85513689D01*
X123927557Y-85514139D01*
X123930262Y-85514139D01*
X123932518Y-85514236D01*
X123932994Y-85514379D01*
X123932992Y-85514425D01*
X123933191Y-85514438D01*
X123939108Y-85516207D01*
X123989277Y-85514236D01*
X123994223Y-85514139D01*
X130616492Y-85514139D01*
X130684613Y-85534141D01*
X130705587Y-85551044D01*
X131235747Y-86081204D01*
X131269773Y-86143516D01*
X131264708Y-86214331D01*
X131259499Y-86221289D01*
X131325361Y-86209731D01*
X131390823Y-86237212D01*
X131400391Y-86245848D01*
X131735375Y-86580832D01*
X131769401Y-86643144D01*
X131772280Y-86669927D01*
X131772280Y-91781229D01*
X131770174Y-91801023D01*
X131769969Y-91805376D01*
X131767777Y-91815556D01*
X131769001Y-91825894D01*
X131771407Y-91846223D01*
X131771722Y-91851569D01*
X131771852Y-91851558D01*
X131772280Y-91856738D01*
X131772280Y-91861937D01*
X131773133Y-91867061D01*
X131773134Y-91867074D01*
X131775207Y-91879527D01*
X131776044Y-91885402D01*
X131780194Y-91920464D01*
X131781649Y-91932756D01*
X131785350Y-91940464D01*
X131786755Y-91948903D01*
X131809409Y-91990887D01*
X131812090Y-91996150D01*
X131832735Y-92039144D01*
X131836091Y-92043136D01*
X131838038Y-92045083D01*
X131839528Y-92046708D01*
X131839761Y-92047140D01*
X131839725Y-92047173D01*
X131839864Y-92047331D01*
X131842797Y-92052766D01*
X131850444Y-92059835D01*
X131879661Y-92086843D01*
X131883227Y-92090272D01*
X133879597Y-94086641D01*
X133892102Y-94102123D01*
X133895038Y-94105350D01*
X133900690Y-94114103D01*
X133924953Y-94133230D01*
X133928948Y-94136780D01*
X133929032Y-94136681D01*
X133932995Y-94140039D01*
X133936671Y-94143715D01*
X133940900Y-94146738D01*
X133940901Y-94146738D01*
X133951167Y-94154075D01*
X133955910Y-94157636D01*
X133985190Y-94180718D01*
X133985194Y-94180720D01*
X133993372Y-94187167D01*
X134001440Y-94190000D01*
X134008400Y-94194974D01*
X134018378Y-94197958D01*
X134054101Y-94208641D01*
X134059750Y-94210477D01*
X134104723Y-94226271D01*
X134109919Y-94226721D01*
X134112624Y-94226721D01*
X134114880Y-94226818D01*
X134115356Y-94226961D01*
X134115354Y-94227007D01*
X134115553Y-94227020D01*
X134121470Y-94228789D01*
X134171639Y-94226818D01*
X134176585Y-94226721D01*
X152325742Y-94226721D01*
X152345536Y-94228827D01*
X152349889Y-94229032D01*
X152360069Y-94231224D01*
X152390739Y-94227594D01*
X152396082Y-94227279D01*
X152396071Y-94227149D01*
X152401251Y-94226721D01*
X152406450Y-94226721D01*
X152411574Y-94225868D01*
X152411587Y-94225867D01*
X152424040Y-94223794D01*
X152429915Y-94222957D01*
X152466928Y-94218576D01*
X152477269Y-94217352D01*
X152484977Y-94213651D01*
X152493416Y-94212246D01*
X152535400Y-94189592D01*
X152540663Y-94186911D01*
X152553560Y-94180718D01*
X152583657Y-94166266D01*
X152587649Y-94162910D01*
X152589596Y-94160963D01*
X152591221Y-94159473D01*
X152591653Y-94159240D01*
X152591686Y-94159276D01*
X152591844Y-94159137D01*
X152597279Y-94156204D01*
X152615235Y-94136780D01*
X152631356Y-94119340D01*
X152634785Y-94115774D01*
X154691233Y-92059326D01*
X154753545Y-92025300D01*
X154789517Y-92023894D01*
X154789524Y-92023425D01*
X154940321Y-92025794D01*
X154940324Y-92025794D01*
X154947918Y-92025913D01*
X155102334Y-91990547D01*
X155189517Y-91946699D01*
X155237074Y-91922781D01*
X155237077Y-91922779D01*
X155243857Y-91919369D01*
X155249628Y-91914440D01*
X155249631Y-91914438D01*
X155358538Y-91821422D01*
X155358538Y-91821421D01*
X155364316Y-91816487D01*
X155456757Y-91687842D01*
X155515844Y-91540859D01*
X155538164Y-91384025D01*
X155538309Y-91370218D01*
X155519278Y-91212951D01*
X155463282Y-91064764D01*
X155428306Y-91013873D01*
X155377857Y-90940469D01*
X155377856Y-90940467D01*
X155373555Y-90934210D01*
X155255277Y-90828829D01*
X155247891Y-90824918D01*
X155121990Y-90758257D01*
X155121991Y-90758257D01*
X155115276Y-90754702D01*
X154961635Y-90716110D01*
X154954036Y-90716070D01*
X154954035Y-90716070D01*
X154888183Y-90715725D01*
X154803223Y-90715280D01*
X154795843Y-90717052D01*
X154795841Y-90717052D01*
X154656565Y-90750489D01*
X154656562Y-90750490D01*
X154649186Y-90752261D01*
X154508416Y-90824918D01*
X154389041Y-90929056D01*
X154297952Y-91058662D01*
X154281268Y-91101454D01*
X154245571Y-91193013D01*
X154240408Y-91206255D01*
X154239416Y-91213788D01*
X154239416Y-91213789D01*
X154229124Y-91291969D01*
X154219731Y-91363314D01*
X154229481Y-91451623D01*
X154217075Y-91521526D01*
X154193337Y-91554544D01*
X152267066Y-93480816D01*
X152204754Y-93514841D01*
X152177971Y-93517721D01*
X134365544Y-93517721D01*
X134297423Y-93497719D01*
X134276449Y-93480816D01*
X132518185Y-91722553D01*
X132484160Y-91660241D01*
X132481280Y-91633458D01*
X132481280Y-86522155D01*
X132483386Y-86502361D01*
X132483591Y-86498008D01*
X132485783Y-86487828D01*
X132482153Y-86457158D01*
X132481838Y-86451815D01*
X132481708Y-86451826D01*
X132481280Y-86446646D01*
X132481280Y-86441447D01*
X132480427Y-86436323D01*
X132480426Y-86436310D01*
X132478353Y-86423857D01*
X132477516Y-86417982D01*
X132473135Y-86380969D01*
X132471911Y-86370628D01*
X132468210Y-86362920D01*
X132466805Y-86354481D01*
X132444151Y-86312497D01*
X132441470Y-86307234D01*
X132429209Y-86281701D01*
X132420825Y-86264240D01*
X132417469Y-86260248D01*
X132415522Y-86258301D01*
X132414032Y-86256676D01*
X132413799Y-86256244D01*
X132413835Y-86256211D01*
X132413696Y-86256053D01*
X132410763Y-86250618D01*
X132387146Y-86228786D01*
X132373899Y-86216541D01*
X132370333Y-86213112D01*
X131102439Y-84945219D01*
X131089934Y-84929737D01*
X131086998Y-84926510D01*
X131081346Y-84917757D01*
X131057083Y-84898630D01*
X131053088Y-84895080D01*
X131053004Y-84895179D01*
X131049041Y-84891821D01*
X131045365Y-84888145D01*
X131040567Y-84884716D01*
X131030869Y-84877785D01*
X131026126Y-84874224D01*
X130996846Y-84851142D01*
X130996842Y-84851140D01*
X130988664Y-84844693D01*
X130980596Y-84841860D01*
X130973636Y-84836886D01*
X130963658Y-84833902D01*
X130927935Y-84823219D01*
X130922286Y-84821383D01*
X130884790Y-84808215D01*
X130884791Y-84808215D01*
X130877313Y-84805589D01*
X130872117Y-84805139D01*
X130869412Y-84805139D01*
X130867156Y-84805042D01*
X130866680Y-84804899D01*
X130866682Y-84804853D01*
X130866483Y-84804840D01*
X130860566Y-84803071D01*
X130810932Y-84805021D01*
X130810397Y-84805042D01*
X130805451Y-84805139D01*
X124338244Y-84805139D01*
X124270123Y-84785137D01*
X124223630Y-84731481D01*
X124213157Y-84694276D01*
X124209211Y-84661666D01*
X124198953Y-84576896D01*
X124142957Y-84428709D01*
X124074385Y-84328936D01*
X124057532Y-84304414D01*
X124057531Y-84304412D01*
X124053230Y-84298155D01*
X123934952Y-84192774D01*
X123927566Y-84188863D01*
X123801665Y-84122202D01*
X123801666Y-84122202D01*
X123794951Y-84118647D01*
X123641310Y-84080055D01*
X123633711Y-84080015D01*
X123633710Y-84080015D01*
X123567858Y-84079670D01*
X123482898Y-84079225D01*
X123475518Y-84080997D01*
X123475516Y-84080997D01*
X123336240Y-84114434D01*
X123336237Y-84114435D01*
X123328861Y-84116206D01*
X123188091Y-84188863D01*
X123068716Y-84293001D01*
X122977627Y-84422607D01*
X122974867Y-84429687D01*
X122927047Y-84552339D01*
X122920083Y-84570200D01*
X122919091Y-84577733D01*
X122919091Y-84577734D01*
X122901208Y-84713572D01*
X122899406Y-84727259D01*
X121937305Y-84727259D01*
X121937305Y-81947044D01*
X150371423Y-81947044D01*
X150376565Y-81993614D01*
X150387629Y-82093829D01*
X150388807Y-82104501D01*
X150391417Y-82111632D01*
X150391417Y-82111634D01*
X150424691Y-82202559D01*
X150443247Y-82253267D01*
X150447483Y-82259570D01*
X150447483Y-82259571D01*
X150524130Y-82373633D01*
X150531602Y-82384753D01*
X150648770Y-82491367D01*
X150787987Y-82566956D01*
X150941216Y-82607155D01*
X151025171Y-82608474D01*
X151092013Y-82609524D01*
X151092016Y-82609524D01*
X151099610Y-82609643D01*
X151107013Y-82607947D01*
X151114572Y-82607153D01*
X151114883Y-82610114D01*
X151172031Y-82613561D01*
X151218411Y-82643004D01*
X151895515Y-83320107D01*
X152263234Y-83687826D01*
X152297260Y-83750138D01*
X152300139Y-83776921D01*
X152300139Y-84288928D01*
X152280137Y-84357049D01*
X152263235Y-84378023D01*
X151695439Y-84945820D01*
X151679959Y-84958322D01*
X151676729Y-84961261D01*
X151667979Y-84966911D01*
X151648852Y-84991174D01*
X151645302Y-84995169D01*
X151645401Y-84995253D01*
X151642043Y-84999216D01*
X151638367Y-85002892D01*
X151635344Y-85007121D01*
X151635344Y-85007122D01*
X151628007Y-85017388D01*
X151624446Y-85022131D01*
X151601364Y-85051411D01*
X151601362Y-85051415D01*
X151594915Y-85059593D01*
X151592082Y-85067661D01*
X151587108Y-85074621D01*
X151584124Y-85084599D01*
X151573441Y-85120322D01*
X151571605Y-85125971D01*
X151555811Y-85170944D01*
X151555361Y-85176140D01*
X151555361Y-85178845D01*
X151555264Y-85181101D01*
X151555121Y-85181577D01*
X151555075Y-85181575D01*
X151555062Y-85181774D01*
X151553293Y-85187691D01*
X151553702Y-85198095D01*
X151555264Y-85237860D01*
X151555361Y-85242806D01*
X151555361Y-86066780D01*
X151553255Y-86086574D01*
X151553050Y-86090927D01*
X151550858Y-86101107D01*
X151552082Y-86111445D01*
X151554488Y-86131774D01*
X151554803Y-86137120D01*
X151554933Y-86137109D01*
X151555361Y-86142289D01*
X151555361Y-86147488D01*
X151556214Y-86152612D01*
X151556215Y-86152625D01*
X151558288Y-86165078D01*
X151559125Y-86170953D01*
X151564730Y-86218307D01*
X151568431Y-86226015D01*
X151569836Y-86234454D01*
X151592490Y-86276438D01*
X151595171Y-86281701D01*
X151615816Y-86324695D01*
X151619172Y-86328687D01*
X151621119Y-86330634D01*
X151622609Y-86332259D01*
X151622842Y-86332691D01*
X151622806Y-86332724D01*
X151622945Y-86332882D01*
X151625878Y-86338317D01*
X151633525Y-86345386D01*
X151662742Y-86372394D01*
X151666308Y-86375823D01*
X155084713Y-89794228D01*
X155097221Y-89809714D01*
X155100155Y-89812939D01*
X155105804Y-89821687D01*
X155113981Y-89828133D01*
X155130059Y-89840808D01*
X155134060Y-89844364D01*
X155134145Y-89844264D01*
X155138102Y-89847617D01*
X155141784Y-89851299D01*
X155156320Y-89861687D01*
X155161007Y-89865206D01*
X155198486Y-89894751D01*
X155206554Y-89897584D01*
X155213514Y-89902558D01*
X155223492Y-89905542D01*
X155259215Y-89916225D01*
X155264864Y-89918061D01*
X155309837Y-89933855D01*
X155315033Y-89934305D01*
X155317738Y-89934305D01*
X155319994Y-89934402D01*
X155320470Y-89934545D01*
X155320468Y-89934591D01*
X155320667Y-89934604D01*
X155326584Y-89936373D01*
X155376753Y-89934402D01*
X155381699Y-89934305D01*
X157761381Y-89934305D01*
X157781175Y-89936411D01*
X157785528Y-89936616D01*
X157795708Y-89938808D01*
X157826378Y-89935178D01*
X157831721Y-89934863D01*
X157831710Y-89934733D01*
X157836890Y-89934305D01*
X157842089Y-89934305D01*
X157847213Y-89933452D01*
X157847226Y-89933451D01*
X157859679Y-89931378D01*
X157865554Y-89930541D01*
X157902567Y-89926160D01*
X157912908Y-89924936D01*
X157920616Y-89921235D01*
X157929055Y-89919830D01*
X157971039Y-89897176D01*
X157976302Y-89894495D01*
X157989195Y-89888304D01*
X158019296Y-89873850D01*
X158023288Y-89870494D01*
X158025235Y-89868547D01*
X158026860Y-89867057D01*
X158027292Y-89866824D01*
X158027325Y-89866860D01*
X158027483Y-89866721D01*
X158032918Y-89863788D01*
X158050874Y-89844364D01*
X158066995Y-89826924D01*
X158070424Y-89823358D01*
X158297452Y-89596330D01*
X158359764Y-89562304D01*
X158395736Y-89560898D01*
X158395743Y-89560429D01*
X158546540Y-89562798D01*
X158546543Y-89562798D01*
X158554137Y-89562917D01*
X158708553Y-89527551D01*
X158778963Y-89492139D01*
X158843293Y-89459785D01*
X158843296Y-89459783D01*
X158850076Y-89456373D01*
X158855849Y-89451442D01*
X158855854Y-89451439D01*
X158945835Y-89374588D01*
X159010624Y-89345557D01*
X159080824Y-89356162D01*
X159112462Y-89377203D01*
X159120741Y-89384736D01*
X159259958Y-89460325D01*
X159413187Y-89500524D01*
X159497142Y-89501843D01*
X159563984Y-89502893D01*
X159563987Y-89502893D01*
X159571581Y-89503012D01*
X159578984Y-89501316D01*
X159586543Y-89500522D01*
X159586854Y-89503483D01*
X159644002Y-89506930D01*
X159690385Y-89536375D01*
X160052175Y-89898165D01*
X160064680Y-89913647D01*
X160067616Y-89916874D01*
X160073268Y-89925627D01*
X160097531Y-89944754D01*
X160101526Y-89948304D01*
X160101610Y-89948205D01*
X160105573Y-89951563D01*
X160109249Y-89955239D01*
X160113478Y-89958262D01*
X160113479Y-89958262D01*
X160123745Y-89965599D01*
X160128488Y-89969160D01*
X160157768Y-89992242D01*
X160157772Y-89992244D01*
X160165950Y-89998691D01*
X160174018Y-90001524D01*
X160180978Y-90006498D01*
X160190956Y-90009482D01*
X160226679Y-90020165D01*
X160232328Y-90022001D01*
X160277301Y-90037795D01*
X160282497Y-90038245D01*
X160285202Y-90038245D01*
X160287458Y-90038342D01*
X160287934Y-90038485D01*
X160287932Y-90038531D01*
X160288131Y-90038544D01*
X160294048Y-90040313D01*
X160344217Y-90038342D01*
X160349163Y-90038245D01*
X164413162Y-90038245D01*
X164432956Y-90040351D01*
X164437309Y-90040556D01*
X164447489Y-90042748D01*
X164478159Y-90039118D01*
X164483502Y-90038803D01*
X164483491Y-90038673D01*
X164488671Y-90038245D01*
X164493870Y-90038245D01*
X164498994Y-90037392D01*
X164499007Y-90037391D01*
X164511460Y-90035318D01*
X164517335Y-90034481D01*
X164554348Y-90030100D01*
X164564689Y-90028876D01*
X164572397Y-90025175D01*
X164580836Y-90023770D01*
X164622820Y-90001116D01*
X164628083Y-89998435D01*
X164640980Y-89992242D01*
X164671077Y-89977790D01*
X164675069Y-89974434D01*
X164677016Y-89972487D01*
X164678641Y-89970997D01*
X164679073Y-89970764D01*
X164679106Y-89970800D01*
X164679264Y-89970661D01*
X164684699Y-89967728D01*
X164702655Y-89948304D01*
X164718776Y-89930864D01*
X164722205Y-89927298D01*
X166367351Y-88282152D01*
X166429663Y-88248126D01*
X166500478Y-88253191D01*
X166516568Y-88260516D01*
X166623466Y-88318557D01*
X166776695Y-88358756D01*
X166860650Y-88360075D01*
X166927492Y-88361125D01*
X166927495Y-88361125D01*
X166935089Y-88361244D01*
X167089505Y-88325878D01*
X167165826Y-88287493D01*
X167224245Y-88258112D01*
X167224248Y-88258110D01*
X167231028Y-88254700D01*
X167236799Y-88249771D01*
X167236802Y-88249769D01*
X167345709Y-88156753D01*
X167345709Y-88156752D01*
X167351487Y-88151818D01*
X167443928Y-88023173D01*
X167503015Y-87876190D01*
X167513619Y-87801680D01*
X167524754Y-87723440D01*
X167524754Y-87723437D01*
X167525335Y-87719356D01*
X167525480Y-87705549D01*
X167506449Y-87548282D01*
X167450453Y-87400095D01*
X167371474Y-87285180D01*
X167349375Y-87217713D01*
X167367260Y-87149006D01*
X167372993Y-87140289D01*
X167397121Y-87106711D01*
X167463448Y-87014408D01*
X167522535Y-86867425D01*
X167544855Y-86710591D01*
X167545000Y-86696784D01*
X167525969Y-86539517D01*
X167469973Y-86391330D01*
X167446844Y-86357677D01*
X167384548Y-86267035D01*
X167384547Y-86267033D01*
X167380246Y-86260776D01*
X167261968Y-86155395D01*
X167254582Y-86151484D01*
X167128681Y-86084823D01*
X167128682Y-86084823D01*
X167121967Y-86081268D01*
X166968326Y-86042676D01*
X166960727Y-86042636D01*
X166960726Y-86042636D01*
X166894874Y-86042291D01*
X166809914Y-86041846D01*
X166802534Y-86043618D01*
X166802532Y-86043618D01*
X166663256Y-86077055D01*
X166663253Y-86077056D01*
X166655877Y-86078827D01*
X166515107Y-86151484D01*
X166395732Y-86255622D01*
X166304643Y-86385228D01*
X166289582Y-86423857D01*
X166261580Y-86495680D01*
X166247099Y-86532821D01*
X166246107Y-86540354D01*
X166246107Y-86540355D01*
X166229049Y-86669927D01*
X166226422Y-86689880D01*
X166236172Y-86778189D01*
X166223766Y-86848093D01*
X166200030Y-86881108D01*
X164671600Y-88409540D01*
X164188800Y-88892340D01*
X164126488Y-88926365D01*
X164099705Y-88929245D01*
X161493721Y-88929245D01*
X161425600Y-88909243D01*
X161404626Y-88892341D01*
X160639625Y-88127341D01*
X160605600Y-88065028D01*
X160603977Y-88020492D01*
X160610805Y-87972515D01*
X160610805Y-87972512D01*
X160611386Y-87968431D01*
X160611531Y-87954624D01*
X160592500Y-87797357D01*
X160536504Y-87649170D01*
X160491436Y-87583595D01*
X160451079Y-87524875D01*
X160451078Y-87524873D01*
X160446777Y-87518616D01*
X160434190Y-87507401D01*
X160334170Y-87418288D01*
X160328499Y-87413235D01*
X160321113Y-87409324D01*
X160195212Y-87342663D01*
X160195213Y-87342663D01*
X160188498Y-87339108D01*
X160034857Y-87300516D01*
X160027258Y-87300476D01*
X160027257Y-87300476D01*
X159961405Y-87300131D01*
X159876445Y-87299686D01*
X159869065Y-87301458D01*
X159869063Y-87301458D01*
X159729787Y-87334895D01*
X159729784Y-87334896D01*
X159722408Y-87336667D01*
X159581638Y-87409324D01*
X159462263Y-87513462D01*
X159371174Y-87643068D01*
X159355520Y-87683218D01*
X159318841Y-87777296D01*
X159313630Y-87790661D01*
X159312638Y-87798194D01*
X159312638Y-87798195D01*
X159312195Y-87801564D01*
X159292953Y-87947720D01*
X159310337Y-88105177D01*
X159310499Y-88105621D01*
X159306751Y-88173474D01*
X159265132Y-88230992D01*
X159245789Y-88243327D01*
X159132079Y-88302017D01*
X159126362Y-88307004D01*
X159126355Y-88307009D01*
X159042877Y-88379832D01*
X158978395Y-88409540D01*
X158908088Y-88399670D01*
X158876228Y-88378958D01*
X158867172Y-88370889D01*
X158867166Y-88370885D01*
X158861496Y-88365833D01*
X158854110Y-88361922D01*
X158775845Y-88320483D01*
X158721495Y-88291706D01*
X158567854Y-88253114D01*
X158560255Y-88253074D01*
X158560254Y-88253074D01*
X158494402Y-88252729D01*
X158409442Y-88252284D01*
X158402062Y-88254056D01*
X158402060Y-88254056D01*
X158262784Y-88287493D01*
X158262781Y-88287494D01*
X158255405Y-88289265D01*
X158114635Y-88361922D01*
X157995260Y-88466060D01*
X157904171Y-88595666D01*
X157846627Y-88743259D01*
X157845635Y-88750792D01*
X157845635Y-88750793D01*
X157832928Y-88847317D01*
X157825950Y-88900318D01*
X157828826Y-88926365D01*
X157835699Y-88988627D01*
X157823293Y-89058531D01*
X157799556Y-89091548D01*
X157702705Y-89188400D01*
X157640393Y-89222425D01*
X157613609Y-89225305D01*
X155570658Y-89225305D01*
X155502537Y-89205303D01*
X155481563Y-89188400D01*
X152301266Y-86008104D01*
X152267240Y-85945792D01*
X152264361Y-85919009D01*
X152264361Y-85431766D01*
X152284363Y-85363645D01*
X152301265Y-85342671D01*
X152869061Y-84774874D01*
X152884541Y-84762372D01*
X152887771Y-84759433D01*
X152896521Y-84753783D01*
X152915648Y-84729520D01*
X152919198Y-84725525D01*
X152919099Y-84725441D01*
X152922457Y-84721478D01*
X152926133Y-84717802D01*
X152933104Y-84708048D01*
X152936493Y-84703306D01*
X152940054Y-84698563D01*
X152963136Y-84669283D01*
X152963138Y-84669279D01*
X152969585Y-84661101D01*
X152972418Y-84653033D01*
X152977392Y-84646073D01*
X152991059Y-84600372D01*
X152992895Y-84594723D01*
X153002225Y-84568156D01*
X153008689Y-84549750D01*
X153009139Y-84544554D01*
X153009139Y-84541849D01*
X153009236Y-84539593D01*
X153009379Y-84539117D01*
X153009425Y-84539119D01*
X153009438Y-84538920D01*
X153011207Y-84533003D01*
X153009236Y-84482834D01*
X153009139Y-84477888D01*
X153009139Y-83629150D01*
X153011245Y-83609356D01*
X153011450Y-83605003D01*
X153013642Y-83594823D01*
X153010012Y-83564153D01*
X153009697Y-83558810D01*
X153009567Y-83558821D01*
X153009139Y-83553641D01*
X153009139Y-83548442D01*
X153008286Y-83543318D01*
X153008285Y-83543305D01*
X153006212Y-83530852D01*
X153005375Y-83524977D01*
X153002839Y-83503549D01*
X167646217Y-83503549D01*
X167646561Y-83510109D01*
X167660476Y-83642508D01*
X167663206Y-83655349D01*
X167718106Y-83824313D01*
X167723452Y-83836321D01*
X167812279Y-83990174D01*
X167820003Y-84000805D01*
X167938880Y-84132832D01*
X167948643Y-84141623D01*
X168092374Y-84246049D01*
X168103746Y-84252615D01*
X168266058Y-84324881D01*
X168278537Y-84328936D01*
X168408104Y-84356475D01*
X168470578Y-84390203D01*
X168504899Y-84452352D01*
X168506830Y-84463274D01*
X168519633Y-84560527D01*
X168522793Y-84568156D01*
X168523640Y-84570200D01*
X168578025Y-84701497D01*
X168670913Y-84822551D01*
X168791967Y-84915439D01*
X168932937Y-84973831D01*
X168941125Y-84974909D01*
X168942508Y-84975091D01*
X169046237Y-84988747D01*
X169122197Y-84988747D01*
X169225927Y-84975091D01*
X169227309Y-84974909D01*
X169235497Y-84973831D01*
X169376467Y-84915439D01*
X169497521Y-84822551D01*
X169590409Y-84701497D01*
X169644794Y-84570200D01*
X169645641Y-84568156D01*
X169648801Y-84560527D01*
X169668717Y-84409247D01*
X175549717Y-84409247D01*
X175569633Y-84560527D01*
X175572793Y-84568156D01*
X175573640Y-84570200D01*
X175628025Y-84701497D01*
X175720913Y-84822551D01*
X175841967Y-84915439D01*
X175982937Y-84973831D01*
X175991125Y-84974909D01*
X175992508Y-84975091D01*
X176096237Y-84988747D01*
X176472197Y-84988747D01*
X176575927Y-84975091D01*
X176577309Y-84974909D01*
X176585497Y-84973831D01*
X176726467Y-84915439D01*
X176847521Y-84822551D01*
X176940409Y-84701497D01*
X176994794Y-84570200D01*
X176995641Y-84568156D01*
X176998801Y-84560527D01*
X177016205Y-84428328D01*
X177044927Y-84363401D01*
X177096795Y-84328564D01*
X177096350Y-84327564D01*
X177102091Y-84325008D01*
X177102189Y-84324942D01*
X177102374Y-84324882D01*
X177264688Y-84252615D01*
X177276060Y-84246049D01*
X177419791Y-84141623D01*
X177429554Y-84132832D01*
X177548431Y-84000805D01*
X177556155Y-83990174D01*
X177644982Y-83836321D01*
X177650328Y-83824313D01*
X177705228Y-83655349D01*
X177707958Y-83642508D01*
X177721873Y-83510109D01*
X177722217Y-83503549D01*
X177722217Y-83431362D01*
X177717742Y-83416123D01*
X177716352Y-83414918D01*
X177708669Y-83413247D01*
X175924332Y-83413247D01*
X175909093Y-83417722D01*
X175907888Y-83419112D01*
X175906217Y-83426795D01*
X175906217Y-83503549D01*
X175906561Y-83510109D01*
X175920476Y-83642508D01*
X175923206Y-83655349D01*
X175948514Y-83733240D01*
X175950541Y-83804208D01*
X175913879Y-83865006D01*
X175876901Y-83888584D01*
X175849599Y-83899893D01*
X175849595Y-83899895D01*
X175841967Y-83903055D01*
X175720913Y-83995943D01*
X175628025Y-84116997D01*
X175569633Y-84257967D01*
X175549717Y-84409247D01*
X169668717Y-84409247D01*
X169648801Y-84257967D01*
X169590409Y-84116997D01*
X169497521Y-83995943D01*
X169437729Y-83950063D01*
X169395862Y-83892725D01*
X169391640Y-83821854D01*
X169394600Y-83811163D01*
X169445229Y-83655346D01*
X169447958Y-83642508D01*
X169461873Y-83510109D01*
X169462217Y-83503549D01*
X169462217Y-83431362D01*
X169457742Y-83416123D01*
X169456352Y-83414918D01*
X169448669Y-83413247D01*
X167664332Y-83413247D01*
X167649093Y-83417722D01*
X167647888Y-83419112D01*
X167646217Y-83426795D01*
X167646217Y-83503549D01*
X153002839Y-83503549D01*
X153000994Y-83487964D01*
X152999770Y-83477623D01*
X152996069Y-83469915D01*
X152994664Y-83461476D01*
X152972010Y-83419492D01*
X152969329Y-83414229D01*
X152952114Y-83378379D01*
X152948684Y-83371235D01*
X152945328Y-83367243D01*
X152943381Y-83365296D01*
X152941891Y-83363671D01*
X152941658Y-83363239D01*
X152941694Y-83363206D01*
X152941555Y-83363048D01*
X152938622Y-83357613D01*
X152901758Y-83323536D01*
X152898192Y-83320107D01*
X151716432Y-82138347D01*
X151682406Y-82076035D01*
X151680784Y-82031499D01*
X151685304Y-81999744D01*
X151689856Y-81967755D01*
X151690001Y-81953948D01*
X151670970Y-81796681D01*
X151614974Y-81648494D01*
X151525247Y-81517940D01*
X151406969Y-81412559D01*
X151399583Y-81408648D01*
X151273682Y-81341987D01*
X151273683Y-81341987D01*
X151266968Y-81338432D01*
X151113327Y-81299840D01*
X151105728Y-81299800D01*
X151105727Y-81299800D01*
X151039875Y-81299455D01*
X150954915Y-81299010D01*
X150947535Y-81300782D01*
X150947533Y-81300782D01*
X150808257Y-81334219D01*
X150808254Y-81334220D01*
X150800878Y-81335991D01*
X150660108Y-81408648D01*
X150540733Y-81512786D01*
X150449644Y-81642392D01*
X150446884Y-81649472D01*
X150410598Y-81742541D01*
X150392100Y-81789985D01*
X150391108Y-81797518D01*
X150391108Y-81797519D01*
X150373657Y-81930077D01*
X150371423Y-81947044D01*
X121937305Y-81947044D01*
X121937305Y-79370227D01*
X145034779Y-79370227D01*
X145052163Y-79527684D01*
X145106603Y-79676450D01*
X145194958Y-79807936D01*
X145200577Y-79813049D01*
X145200578Y-79813050D01*
X145211953Y-79823400D01*
X145312126Y-79914550D01*
X145451343Y-79990139D01*
X145604572Y-80030338D01*
X145688527Y-80031657D01*
X145755369Y-80032707D01*
X145755372Y-80032707D01*
X145762966Y-80032826D01*
X145917382Y-79997460D01*
X145987792Y-79962048D01*
X146052122Y-79929694D01*
X146052125Y-79929692D01*
X146058905Y-79926282D01*
X146064676Y-79921353D01*
X146064679Y-79921351D01*
X146173586Y-79828335D01*
X146173586Y-79828334D01*
X146179364Y-79823400D01*
X146271805Y-79694755D01*
X146330892Y-79547772D01*
X146353212Y-79390938D01*
X146353357Y-79377131D01*
X146334326Y-79219864D01*
X146278330Y-79071677D01*
X146232752Y-79005360D01*
X146210652Y-78937892D01*
X146228537Y-78869185D01*
X146247497Y-78844899D01*
X149141430Y-75950965D01*
X149203742Y-75916939D01*
X149230525Y-75914060D01*
X151502424Y-75914060D01*
X151570545Y-75934062D01*
X151591519Y-75950965D01*
X154363599Y-78723045D01*
X154397625Y-78785357D01*
X154400504Y-78812140D01*
X154400504Y-81743204D01*
X154380502Y-81811325D01*
X154357334Y-81838153D01*
X154265043Y-81918664D01*
X154173954Y-82048270D01*
X154145182Y-82122066D01*
X154123815Y-82176871D01*
X154116410Y-82195863D01*
X154115418Y-82203396D01*
X154115418Y-82203397D01*
X154098972Y-82328320D01*
X154095733Y-82352922D01*
X154099812Y-82389867D01*
X154111329Y-82494181D01*
X154113117Y-82510379D01*
X154115727Y-82517510D01*
X154115727Y-82517512D01*
X154150876Y-82613561D01*
X154167557Y-82659145D01*
X154255912Y-82790631D01*
X154261531Y-82795744D01*
X154261532Y-82795745D01*
X154278330Y-82811030D01*
X154373080Y-82897245D01*
X154512297Y-82972834D01*
X154665526Y-83013033D01*
X154749481Y-83014352D01*
X154816323Y-83015402D01*
X154816326Y-83015402D01*
X154823920Y-83015521D01*
X154978336Y-82980155D01*
X155048746Y-82944743D01*
X155113076Y-82912389D01*
X155113079Y-82912387D01*
X155119859Y-82908977D01*
X155125630Y-82904048D01*
X155125633Y-82904046D01*
X155145437Y-82887132D01*
X167646217Y-82887132D01*
X167650692Y-82902371D01*
X167652082Y-82903576D01*
X167659765Y-82905247D01*
X168282102Y-82905247D01*
X168297341Y-82900772D01*
X168298546Y-82899382D01*
X168300217Y-82891699D01*
X168300217Y-82887132D01*
X168808217Y-82887132D01*
X168812692Y-82902371D01*
X168814082Y-82903576D01*
X168821765Y-82905247D01*
X169444102Y-82905247D01*
X169459341Y-82900772D01*
X169460546Y-82899382D01*
X169462217Y-82891699D01*
X169462217Y-82887132D01*
X175906217Y-82887132D01*
X175910692Y-82902371D01*
X175912082Y-82903576D01*
X175919765Y-82905247D01*
X176542102Y-82905247D01*
X176557341Y-82900772D01*
X176558546Y-82899382D01*
X176560217Y-82891699D01*
X176560217Y-82887132D01*
X177068217Y-82887132D01*
X177072692Y-82902371D01*
X177074082Y-82903576D01*
X177081765Y-82905247D01*
X177704102Y-82905247D01*
X177719341Y-82900772D01*
X177720546Y-82899382D01*
X177722217Y-82891699D01*
X177722217Y-82814945D01*
X177721873Y-82808385D01*
X177707958Y-82675986D01*
X177705228Y-82663145D01*
X177650328Y-82494181D01*
X177644982Y-82482173D01*
X177556155Y-82328320D01*
X177548431Y-82317689D01*
X177429554Y-82185662D01*
X177419791Y-82176871D01*
X177276060Y-82072445D01*
X177264688Y-82065879D01*
X177102378Y-81993614D01*
X177089892Y-81989557D01*
X177085939Y-81988717D01*
X177071876Y-81989790D01*
X177068217Y-81999744D01*
X177068217Y-82887132D01*
X176560217Y-82887132D01*
X176560217Y-82003065D01*
X176556244Y-81989534D01*
X176545749Y-81988025D01*
X176538542Y-81989557D01*
X176526056Y-81993614D01*
X176363746Y-82065879D01*
X176352374Y-82072445D01*
X176208643Y-82176871D01*
X176198880Y-82185662D01*
X176080003Y-82317689D01*
X176072279Y-82328320D01*
X175983452Y-82482173D01*
X175978106Y-82494181D01*
X175923206Y-82663145D01*
X175920476Y-82675986D01*
X175906561Y-82808385D01*
X175906217Y-82814945D01*
X175906217Y-82887132D01*
X169462217Y-82887132D01*
X169462217Y-82814945D01*
X169461873Y-82808385D01*
X169447958Y-82675986D01*
X169445228Y-82663145D01*
X169390328Y-82494181D01*
X169384982Y-82482173D01*
X169296155Y-82328320D01*
X169288431Y-82317689D01*
X169169554Y-82185662D01*
X169159791Y-82176871D01*
X169016060Y-82072445D01*
X169004688Y-82065879D01*
X168842378Y-81993614D01*
X168829892Y-81989557D01*
X168825939Y-81988717D01*
X168811876Y-81989790D01*
X168808217Y-81999744D01*
X168808217Y-82887132D01*
X168300217Y-82887132D01*
X168300217Y-82003065D01*
X168296244Y-81989534D01*
X168285749Y-81988025D01*
X168278542Y-81989557D01*
X168266056Y-81993614D01*
X168103746Y-82065879D01*
X168092374Y-82072445D01*
X167948643Y-82176871D01*
X167938880Y-82185662D01*
X167820003Y-82317689D01*
X167812279Y-82328320D01*
X167723452Y-82482173D01*
X167718106Y-82494181D01*
X167663206Y-82663145D01*
X167660476Y-82675986D01*
X167646561Y-82808385D01*
X167646217Y-82814945D01*
X167646217Y-82887132D01*
X155145437Y-82887132D01*
X155234540Y-82811030D01*
X155234540Y-82811029D01*
X155240318Y-82806095D01*
X155332759Y-82677450D01*
X155391846Y-82530467D01*
X155411856Y-82389867D01*
X155413585Y-82377717D01*
X155413585Y-82377714D01*
X155414166Y-82373633D01*
X155414311Y-82359826D01*
X155395280Y-82202559D01*
X155339284Y-82054372D01*
X155270265Y-81953948D01*
X155253859Y-81930077D01*
X155253858Y-81930075D01*
X155249557Y-81923818D01*
X155151685Y-81836618D01*
X155114130Y-81776368D01*
X155109504Y-81742541D01*
X155109504Y-78664368D01*
X155111610Y-78644574D01*
X155111815Y-78640221D01*
X155114007Y-78630041D01*
X155110377Y-78599371D01*
X155110062Y-78594028D01*
X155109932Y-78594039D01*
X155109504Y-78588859D01*
X155109504Y-78583660D01*
X155108651Y-78578536D01*
X155108650Y-78578523D01*
X155106577Y-78566070D01*
X155105740Y-78560195D01*
X155101359Y-78523182D01*
X155100135Y-78512841D01*
X155096434Y-78505133D01*
X155095029Y-78496694D01*
X155072375Y-78454710D01*
X155069694Y-78449447D01*
X155052479Y-78413597D01*
X155049049Y-78406453D01*
X155045693Y-78402461D01*
X155043746Y-78400514D01*
X155042256Y-78398889D01*
X155042023Y-78398457D01*
X155042059Y-78398424D01*
X155041920Y-78398266D01*
X155038987Y-78392831D01*
X155002123Y-78358754D01*
X154998557Y-78355325D01*
X154196781Y-77553549D01*
X167286217Y-77553549D01*
X167286561Y-77560109D01*
X167300476Y-77692508D01*
X167303206Y-77705349D01*
X167358106Y-77874313D01*
X167363452Y-77886321D01*
X167452279Y-78040174D01*
X167460003Y-78050805D01*
X167578880Y-78182832D01*
X167588643Y-78191623D01*
X167732374Y-78296049D01*
X167743746Y-78302615D01*
X167906056Y-78374880D01*
X167918542Y-78378937D01*
X167922495Y-78379777D01*
X167936558Y-78378704D01*
X167940217Y-78368750D01*
X167940217Y-78365429D01*
X168448217Y-78365429D01*
X168452190Y-78378960D01*
X168462685Y-78380469D01*
X168469892Y-78378937D01*
X168482378Y-78374880D01*
X168644688Y-78302615D01*
X168656060Y-78296049D01*
X168799791Y-78191623D01*
X168809554Y-78182832D01*
X168928431Y-78050805D01*
X168936155Y-78040174D01*
X169024982Y-77886321D01*
X169030328Y-77874313D01*
X169085228Y-77705349D01*
X169087958Y-77692508D01*
X169101873Y-77560109D01*
X169102217Y-77553549D01*
X176266217Y-77553549D01*
X176266561Y-77560109D01*
X176280476Y-77692508D01*
X176283206Y-77705349D01*
X176338106Y-77874313D01*
X176343452Y-77886321D01*
X176432279Y-78040174D01*
X176440003Y-78050805D01*
X176558880Y-78182832D01*
X176568643Y-78191623D01*
X176712374Y-78296049D01*
X176723746Y-78302615D01*
X176886056Y-78374880D01*
X176898542Y-78378937D01*
X176902495Y-78379777D01*
X176916558Y-78378704D01*
X176920217Y-78368750D01*
X176920217Y-78365429D01*
X177428217Y-78365429D01*
X177432190Y-78378960D01*
X177442685Y-78380469D01*
X177449892Y-78378937D01*
X177462378Y-78374880D01*
X177624688Y-78302615D01*
X177636060Y-78296049D01*
X177779791Y-78191623D01*
X177789554Y-78182832D01*
X177908431Y-78050805D01*
X177916155Y-78040174D01*
X178004982Y-77886321D01*
X178010328Y-77874313D01*
X178065228Y-77705349D01*
X178067958Y-77692508D01*
X178081873Y-77560109D01*
X178082217Y-77553549D01*
X178082217Y-77481362D01*
X178077742Y-77466123D01*
X178076352Y-77464918D01*
X178068669Y-77463247D01*
X177446332Y-77463247D01*
X177431093Y-77467722D01*
X177429888Y-77469112D01*
X177428217Y-77476795D01*
X177428217Y-78365429D01*
X176920217Y-78365429D01*
X176920217Y-77481362D01*
X176915742Y-77466123D01*
X176914352Y-77464918D01*
X176906669Y-77463247D01*
X176284332Y-77463247D01*
X176269093Y-77467722D01*
X176267888Y-77469112D01*
X176266217Y-77476795D01*
X176266217Y-77553549D01*
X169102217Y-77553549D01*
X169102217Y-77481362D01*
X169097742Y-77466123D01*
X169096352Y-77464918D01*
X169088669Y-77463247D01*
X168466332Y-77463247D01*
X168451093Y-77467722D01*
X168449888Y-77469112D01*
X168448217Y-77476795D01*
X168448217Y-78365429D01*
X167940217Y-78365429D01*
X167940217Y-77481362D01*
X167935742Y-77466123D01*
X167934352Y-77464918D01*
X167926669Y-77463247D01*
X167304332Y-77463247D01*
X167289093Y-77467722D01*
X167287888Y-77469112D01*
X167286217Y-77476795D01*
X167286217Y-77553549D01*
X154196781Y-77553549D01*
X153001934Y-76358703D01*
X155306808Y-76358703D01*
X155337116Y-76493183D01*
X155340196Y-76503012D01*
X155420321Y-76700340D01*
X155424964Y-76709531D01*
X155536245Y-76891125D01*
X155542328Y-76899436D01*
X155681764Y-77060404D01*
X155689131Y-77067620D01*
X155852985Y-77203653D01*
X155861432Y-77209568D01*
X156045307Y-77317016D01*
X156054593Y-77321466D01*
X156253552Y-77397440D01*
X156263450Y-77400316D01*
X156366801Y-77421343D01*
X156380850Y-77420147D01*
X156384551Y-77409802D01*
X156384551Y-77409254D01*
X156892551Y-77409254D01*
X156896615Y-77423096D01*
X156910029Y-77425130D01*
X156916735Y-77424271D01*
X156926813Y-77422129D01*
X157130806Y-77360928D01*
X157140393Y-77357170D01*
X157331646Y-77263476D01*
X157340496Y-77258201D01*
X157513879Y-77134529D01*
X157521751Y-77127876D01*
X157672603Y-76977549D01*
X157679281Y-76969702D01*
X157803554Y-76796757D01*
X157808864Y-76787920D01*
X157903221Y-76597004D01*
X157907020Y-76587409D01*
X157923617Y-76532784D01*
X157962558Y-76473420D01*
X158027413Y-76444533D01*
X158097589Y-76455295D01*
X158150807Y-76502288D01*
X158158599Y-76516659D01*
X158217928Y-76645353D01*
X158335084Y-76811126D01*
X158480489Y-76952772D01*
X158649271Y-77065549D01*
X158654574Y-77067827D01*
X158654577Y-77067829D01*
X158830472Y-77143399D01*
X158835779Y-77145679D01*
X158908795Y-77162201D01*
X159028130Y-77189204D01*
X159028135Y-77189205D01*
X159033767Y-77190479D01*
X159039538Y-77190706D01*
X159039540Y-77190706D01*
X159099307Y-77193054D01*
X159236604Y-77198449D01*
X159343899Y-77182892D01*
X159431782Y-77170150D01*
X159431787Y-77170149D01*
X159437496Y-77169321D01*
X159442960Y-77167466D01*
X159442965Y-77167465D01*
X159624244Y-77105929D01*
X159624249Y-77105927D01*
X159629716Y-77104071D01*
X159806827Y-77004884D01*
X159846520Y-76971872D01*
X159934247Y-76898909D01*
X159962896Y-76875082D01*
X160092698Y-76719013D01*
X160191885Y-76541902D01*
X160193741Y-76536435D01*
X160193743Y-76536430D01*
X160255279Y-76355151D01*
X160255280Y-76355146D01*
X160257135Y-76349682D01*
X160257963Y-76343973D01*
X160257964Y-76343968D01*
X160285730Y-76152464D01*
X160286263Y-76148790D01*
X160287783Y-76090737D01*
X160285115Y-76061701D01*
X160609699Y-76061701D01*
X160622975Y-76264259D01*
X160624396Y-76269855D01*
X160624397Y-76269860D01*
X160649243Y-76367689D01*
X160672943Y-76461006D01*
X160675360Y-76466249D01*
X160711287Y-76544181D01*
X160757928Y-76645353D01*
X160875084Y-76811126D01*
X161020489Y-76952772D01*
X161189271Y-77065549D01*
X161194574Y-77067827D01*
X161194577Y-77067829D01*
X161370472Y-77143399D01*
X161375779Y-77145679D01*
X161448795Y-77162201D01*
X161568130Y-77189204D01*
X161568135Y-77189205D01*
X161573767Y-77190479D01*
X161579538Y-77190706D01*
X161579540Y-77190706D01*
X161639307Y-77193054D01*
X161776604Y-77198449D01*
X161883899Y-77182892D01*
X161971782Y-77170150D01*
X161971787Y-77170149D01*
X161977496Y-77169321D01*
X161982960Y-77167466D01*
X161982965Y-77167465D01*
X162164244Y-77105929D01*
X162164249Y-77105927D01*
X162169716Y-77104071D01*
X162346827Y-77004884D01*
X162386520Y-76971872D01*
X162474247Y-76898909D01*
X162502896Y-76875082D01*
X162632698Y-76719013D01*
X162731885Y-76541902D01*
X162733741Y-76536435D01*
X162733743Y-76536430D01*
X162795279Y-76355151D01*
X162795280Y-76355146D01*
X162797135Y-76349682D01*
X162797963Y-76343973D01*
X162797964Y-76343968D01*
X162825730Y-76152464D01*
X162826263Y-76148790D01*
X162827783Y-76090737D01*
X162813387Y-75934062D01*
X162809738Y-75894350D01*
X162809737Y-75894347D01*
X162809209Y-75888596D01*
X162807641Y-75883036D01*
X162755676Y-75698783D01*
X162755675Y-75698781D01*
X162754108Y-75693224D01*
X162743529Y-75671770D01*
X162666882Y-75516346D01*
X162664327Y-75511165D01*
X162542871Y-75348516D01*
X162405853Y-75221857D01*
X162399160Y-75215670D01*
X163154051Y-75215670D01*
X163154052Y-76965803D01*
X163168817Y-77040038D01*
X163175712Y-77050357D01*
X163175713Y-77050359D01*
X163216067Y-77110752D01*
X163225067Y-77124221D01*
X163309250Y-77180471D01*
X163383484Y-77195237D01*
X164258409Y-77195237D01*
X165133617Y-77195236D01*
X165169369Y-77188125D01*
X165195677Y-77182893D01*
X165195679Y-77182892D01*
X165207852Y-77180471D01*
X165218172Y-77173576D01*
X165218173Y-77173575D01*
X165281719Y-77131114D01*
X165292035Y-77124221D01*
X165348285Y-77040038D01*
X165363051Y-76965804D01*
X165363051Y-76937132D01*
X167286217Y-76937132D01*
X167290692Y-76952371D01*
X167292082Y-76953576D01*
X167299765Y-76955247D01*
X167922102Y-76955247D01*
X167937341Y-76950772D01*
X167938546Y-76949382D01*
X167940217Y-76941699D01*
X167940217Y-76937132D01*
X168448217Y-76937132D01*
X168452692Y-76952371D01*
X168454082Y-76953576D01*
X168461765Y-76955247D01*
X169084102Y-76955247D01*
X169099341Y-76950772D01*
X169100546Y-76949382D01*
X169102217Y-76941699D01*
X169102217Y-76937132D01*
X176266217Y-76937132D01*
X176270692Y-76952371D01*
X176272082Y-76953576D01*
X176279765Y-76955247D01*
X176902102Y-76955247D01*
X176917341Y-76950772D01*
X176918546Y-76949382D01*
X176920217Y-76941699D01*
X176920217Y-76937132D01*
X177428217Y-76937132D01*
X177432692Y-76952371D01*
X177434082Y-76953576D01*
X177441765Y-76955247D01*
X178064102Y-76955247D01*
X178079341Y-76950772D01*
X178080546Y-76949382D01*
X178082217Y-76941699D01*
X178082217Y-76864945D01*
X178081873Y-76858385D01*
X178067958Y-76725986D01*
X178065228Y-76713145D01*
X178010328Y-76544181D01*
X178004982Y-76532173D01*
X177916155Y-76378320D01*
X177908431Y-76367689D01*
X177789554Y-76235662D01*
X177779791Y-76226871D01*
X177636060Y-76122445D01*
X177624688Y-76115879D01*
X177462378Y-76043614D01*
X177449892Y-76039557D01*
X177445939Y-76038717D01*
X177431876Y-76039790D01*
X177428217Y-76049744D01*
X177428217Y-76937132D01*
X176920217Y-76937132D01*
X176920217Y-76053065D01*
X176916244Y-76039534D01*
X176905749Y-76038025D01*
X176898542Y-76039557D01*
X176886056Y-76043614D01*
X176723746Y-76115879D01*
X176712374Y-76122445D01*
X176568643Y-76226871D01*
X176558880Y-76235662D01*
X176440003Y-76367689D01*
X176432279Y-76378320D01*
X176343452Y-76532173D01*
X176338106Y-76544181D01*
X176283206Y-76713145D01*
X176280476Y-76725986D01*
X176266561Y-76858385D01*
X176266217Y-76864945D01*
X176266217Y-76937132D01*
X169102217Y-76937132D01*
X169102217Y-76864945D01*
X169101873Y-76858385D01*
X169087958Y-76725986D01*
X169085228Y-76713145D01*
X169030328Y-76544181D01*
X169024982Y-76532173D01*
X168936155Y-76378320D01*
X168928431Y-76367689D01*
X168809554Y-76235662D01*
X168799791Y-76226871D01*
X168656060Y-76122445D01*
X168644688Y-76115879D01*
X168482378Y-76043614D01*
X168469892Y-76039557D01*
X168465939Y-76038717D01*
X168451876Y-76039790D01*
X168448217Y-76049744D01*
X168448217Y-76937132D01*
X167940217Y-76937132D01*
X167940217Y-76053065D01*
X167936244Y-76039534D01*
X167925749Y-76038025D01*
X167918542Y-76039557D01*
X167906056Y-76043614D01*
X167743746Y-76115879D01*
X167732374Y-76122445D01*
X167588643Y-76226871D01*
X167578880Y-76235662D01*
X167460003Y-76367689D01*
X167452279Y-76378320D01*
X167363452Y-76532173D01*
X167358106Y-76544181D01*
X167303206Y-76713145D01*
X167300476Y-76725986D01*
X167286561Y-76858385D01*
X167286217Y-76864945D01*
X167286217Y-76937132D01*
X165363051Y-76937132D01*
X165363050Y-75215671D01*
X165348285Y-75141436D01*
X165322205Y-75102404D01*
X165298928Y-75067569D01*
X165292035Y-75057253D01*
X165207852Y-75001003D01*
X165133618Y-74986237D01*
X164258693Y-74986237D01*
X163383485Y-74986238D01*
X163347733Y-74993349D01*
X163321425Y-74998581D01*
X163321423Y-74998582D01*
X163309250Y-75001003D01*
X163298930Y-75007898D01*
X163298929Y-75007899D01*
X163238536Y-75048253D01*
X163225067Y-75057253D01*
X163168817Y-75141436D01*
X163154051Y-75215670D01*
X162399160Y-75215670D01*
X162398054Y-75214648D01*
X162393809Y-75210724D01*
X162388926Y-75207643D01*
X162388922Y-75207640D01*
X162227015Y-75105485D01*
X162222132Y-75102404D01*
X162033590Y-75027183D01*
X162027930Y-75026057D01*
X162027926Y-75026056D01*
X161840164Y-74988708D01*
X161840161Y-74988708D01*
X161834497Y-74987581D01*
X161828722Y-74987505D01*
X161828718Y-74987505D01*
X161727344Y-74986178D01*
X161631522Y-74984924D01*
X161625825Y-74985903D01*
X161625824Y-74985903D01*
X161537948Y-75001003D01*
X161431461Y-75019301D01*
X161241014Y-75089561D01*
X161066561Y-75193349D01*
X161062221Y-75197155D01*
X161062217Y-75197158D01*
X160950537Y-75295100D01*
X160913943Y-75327192D01*
X160788271Y-75486606D01*
X160785582Y-75491717D01*
X160785580Y-75491720D01*
X160772624Y-75516346D01*
X160693754Y-75666252D01*
X160633558Y-75860115D01*
X160609699Y-76061701D01*
X160285115Y-76061701D01*
X160273387Y-75934062D01*
X160269738Y-75894350D01*
X160269737Y-75894347D01*
X160269209Y-75888596D01*
X160267641Y-75883036D01*
X160215676Y-75698783D01*
X160215675Y-75698781D01*
X160214108Y-75693224D01*
X160203529Y-75671770D01*
X160126882Y-75516346D01*
X160124327Y-75511165D01*
X160002871Y-75348516D01*
X159865853Y-75221857D01*
X159858054Y-75214648D01*
X159853809Y-75210724D01*
X159848926Y-75207643D01*
X159848922Y-75207640D01*
X159687015Y-75105485D01*
X159682132Y-75102404D01*
X159493590Y-75027183D01*
X159487930Y-75026057D01*
X159487926Y-75026056D01*
X159300164Y-74988708D01*
X159300161Y-74988708D01*
X159294497Y-74987581D01*
X159288722Y-74987505D01*
X159288718Y-74987505D01*
X159187344Y-74986178D01*
X159091522Y-74984924D01*
X159085825Y-74985903D01*
X159085824Y-74985903D01*
X158997948Y-75001003D01*
X158891461Y-75019301D01*
X158701014Y-75089561D01*
X158526561Y-75193349D01*
X158522221Y-75197155D01*
X158522217Y-75197158D01*
X158410537Y-75295100D01*
X158373943Y-75327192D01*
X158248271Y-75486606D01*
X158245582Y-75491717D01*
X158245580Y-75491720D01*
X158156140Y-75661717D01*
X158106721Y-75712689D01*
X158037588Y-75728852D01*
X157970692Y-75705073D01*
X157930554Y-75650710D01*
X157928506Y-75651600D01*
X157841523Y-75451551D01*
X157836656Y-75442476D01*
X157720977Y-75263663D01*
X157714687Y-75255494D01*
X157571357Y-75097977D01*
X157563824Y-75090952D01*
X157396690Y-74958959D01*
X157388103Y-74953254D01*
X157201668Y-74850336D01*
X157192256Y-74846106D01*
X156991510Y-74775017D01*
X156981539Y-74772383D01*
X156910388Y-74759709D01*
X156897091Y-74761169D01*
X156892551Y-74775726D01*
X156892551Y-77409254D01*
X156384551Y-77409254D01*
X156384551Y-76362852D01*
X156380076Y-76347613D01*
X156378686Y-76346408D01*
X156371003Y-76344737D01*
X155321776Y-76344737D01*
X155308245Y-76348710D01*
X155306808Y-76358703D01*
X153001934Y-76358703D01*
X152468151Y-75824920D01*
X155302940Y-75824920D01*
X155304463Y-75833344D01*
X155316843Y-75836737D01*
X156366436Y-75836737D01*
X156381675Y-75832262D01*
X156382880Y-75830872D01*
X156384551Y-75823189D01*
X156384551Y-74773839D01*
X156380633Y-74760495D01*
X156366357Y-74758508D01*
X156327875Y-74764397D01*
X156317839Y-74766788D01*
X156115419Y-74832949D01*
X156105910Y-74836946D01*
X155917014Y-74935279D01*
X155908289Y-74940773D01*
X155737984Y-75068642D01*
X155730277Y-75075485D01*
X155583141Y-75229454D01*
X155576655Y-75237464D01*
X155456649Y-75413386D01*
X155451551Y-75422360D01*
X155361889Y-75615520D01*
X155358326Y-75625207D01*
X155302940Y-75824920D01*
X152468151Y-75824920D01*
X151988371Y-75345140D01*
X151975866Y-75329658D01*
X151972930Y-75326431D01*
X151967278Y-75317678D01*
X151943015Y-75298551D01*
X151939020Y-75295001D01*
X151938936Y-75295100D01*
X151934973Y-75291742D01*
X151931297Y-75288066D01*
X151924522Y-75283224D01*
X151916801Y-75277706D01*
X151912058Y-75274145D01*
X151882778Y-75251063D01*
X151882774Y-75251061D01*
X151874596Y-75244614D01*
X151866528Y-75241781D01*
X151859568Y-75236807D01*
X151813867Y-75223140D01*
X151808218Y-75221304D01*
X151785156Y-75213205D01*
X151763245Y-75205510D01*
X151758049Y-75205060D01*
X151755344Y-75205060D01*
X151753088Y-75204963D01*
X151752612Y-75204820D01*
X151752614Y-75204774D01*
X151752415Y-75204761D01*
X151746498Y-75202992D01*
X151696864Y-75204942D01*
X151696329Y-75204963D01*
X151691383Y-75205060D01*
X149082754Y-75205060D01*
X149062960Y-75202954D01*
X149058607Y-75202749D01*
X149048427Y-75200557D01*
X149017757Y-75204187D01*
X149012414Y-75204502D01*
X149012425Y-75204632D01*
X149007245Y-75205060D01*
X149002046Y-75205060D01*
X148996922Y-75205913D01*
X148996909Y-75205914D01*
X148984456Y-75207987D01*
X148978581Y-75208824D01*
X148941568Y-75213205D01*
X148931227Y-75214429D01*
X148923519Y-75218130D01*
X148915080Y-75219535D01*
X148876012Y-75240615D01*
X148873112Y-75242180D01*
X148867821Y-75244876D01*
X148831980Y-75262086D01*
X148831977Y-75262088D01*
X148824840Y-75265515D01*
X148820847Y-75268871D01*
X148818921Y-75270797D01*
X148817271Y-75272310D01*
X148816835Y-75272546D01*
X148816803Y-75272511D01*
X148816652Y-75272644D01*
X148811217Y-75275577D01*
X148804148Y-75283224D01*
X148777140Y-75312441D01*
X148773711Y-75316007D01*
X147123915Y-76965804D01*
X145479630Y-78610089D01*
X145464148Y-78622594D01*
X145460921Y-78625530D01*
X145452168Y-78631182D01*
X145433041Y-78655445D01*
X145429491Y-78659440D01*
X145429590Y-78659524D01*
X145426232Y-78663487D01*
X145422556Y-78667163D01*
X145419533Y-78671392D01*
X145419533Y-78671393D01*
X145412196Y-78681659D01*
X145408635Y-78686402D01*
X145385553Y-78715682D01*
X145385551Y-78715686D01*
X145379104Y-78723864D01*
X145376271Y-78731932D01*
X145371297Y-78738892D01*
X145368313Y-78748871D01*
X145361014Y-78773277D01*
X145323125Y-78832126D01*
X145209815Y-78930973D01*
X145209811Y-78930977D01*
X145204089Y-78935969D01*
X145113000Y-79065575D01*
X145055456Y-79213168D01*
X145034779Y-79370227D01*
X121937305Y-79370227D01*
X121937305Y-72825437D01*
X121957307Y-72757316D01*
X122010963Y-72710823D01*
X122063305Y-72699437D01*
X179722305Y-72699437D01*
X179790426Y-72719439D01*
G37*
%TD.AperFunction*%
%TD*%
M02*
